<ttFont>
    <TTGlyph name=".notdef" xMin="65" yMin="0" xMax="437" yMax="700">
      <contour>
        <pt x="65" y="0" on="1"/>
        <pt x="65" y="700" on="1"/>
        <pt x="437" y="700" on="1"/>
        <pt x="437" y="0" on="1"/>
      </contour>
      <contour>
        <pt x="140" y="72" on="1"/>
        <pt x="362" y="72" on="1"/>
        <pt x="362" y="628" on="1"/>
        <pt x="140" y="628" on="1"/>
      </contour>
    </TTGlyph>
    <TTGlyph name="A" xMin="25" yMin="0" xMax="475" yMax="700">
      <contour>
        <pt x="332" y="252" on="1"/>
        <pt x="250" y="634" on="1"/>
        <pt x="169" y="252" on="1"/>
      </contour>
      <contour>
        <pt x="475" y="0" on="1"/>
        <pt x="386" y="0" on="1"/>
        <pt x="348" y="177" on="1"/>
        <pt x="153" y="177" on="1"/>
        <pt x="114" y="0" on="1"/>
        <pt x="25" y="0" on="1"/>
        <pt x="194" y="700" on="1"/>
        <pt x="309" y="700" on="1"/>
      </contour>
    </TTGlyph>
    <TTGlyph name="AE" xMin="25" yMin="0" xMax="688" yMax="700">
      <contour>
        <pt x="688" y="0" on="1"/>
        <pt x="390" y="0" on="1"/>
        <pt x="370" y="177" on="1"/>
        <pt x="171" y="177" on="1"/>
        <pt x="114" y="0" on="1"/>
        <pt x="25" y="0" on="1"/>
        <pt x="264" y="700" on="1"/>
        <pt x="668" y="700" on="1"/>
        <pt x="668" y="627" on="1"/>
        <pt x="401" y="627" on="1"/>
        <pt x="428" y="398" on="1"/>
        <pt x="663" y="398" on="1"/>
        <pt x="663" y="325" on="1"/>
        <pt x="437" y="325" on="1"/>
        <pt x="467" y="73" on="1"/>
        <pt x="688" y="73" on="1"/>
      </contour>
      <contour>
        <pt x="320" y="627" on="1"/>
        <pt x="195" y="252" on="1"/>
        <pt x="361" y="252" on="1"/>
      </contour>
    </TTGlyph>
    <TTGlyph name="Aacute" xMin="25" yMin="0" xMax="475" yMax="841">
      <contour>
        <pt x="244" y="726" on="1"/>
        <pt x="161" y="726" on="1"/>
        <pt x="265" y="841" on="1"/>
        <pt x="376" y="841" on="1"/>
      </contour>
      <contour>
        <pt x="330" y="252" on="1"/>
        <pt x="249" y="627" on="1"/>
        <pt x="161" y="252" on="1"/>
      </contour>
      <contour>
        <pt x="475" y="0" on="1"/>
        <pt x="384" y="0" on="1"/>
        <pt x="346" y="177" on="1"/>
        <pt x="153" y="177" on="1"/>
        <pt x="114" y="0" on="1"/>
        <pt x="25" y="0" on="1"/>
        <pt x="194" y="700" on="1"/>
        <pt x="309" y="700" on="1"/>
      </contour>
    </TTGlyph>
    <TTGlyph name="Acircumflex" xMin="25" yMin="0" xMax="475" yMax="845">
      <contour>
        <pt x="406" y="730" on="1"/>
        <pt x="309" y="730" on="1"/>
        <pt x="249" y="794" on="1"/>
        <pt x="189" y="730" on="1"/>
        <pt x="93" y="730" on="1"/>
        <pt x="203" y="845" on="1"/>
        <pt x="295" y="845" on="1"/>
      </contour>
      <contour>
        <pt x="330" y="252" on="1"/>
        <pt x="249" y="627" on="1"/>
        <pt x="169" y="252" on="1"/>
      </contour>
      <contour>
        <pt x="475" y="0" on="1"/>
        <pt x="384" y="0" on="1"/>
        <pt x="346" y="177" on="1"/>
        <pt x="153" y="177" on="1"/>
        <pt x="114" y="0" on="1"/>
        <pt x="25" y="0" on="1"/>
        <pt x="194" y="700" on="1"/>
        <pt x="309" y="700" on="1"/>
      </contour>
    </TTGlyph>
    <TTGlyph name="Adieresis" xMin="25" yMin="0" xMax="475" yMax="815">
      <contour>
        <pt x="330" y="252" on="1"/>
        <pt x="249" y="627" on="1"/>
        <pt x="169" y="252" on="1"/>
      </contour>
      <contour>
        <pt x="475" y="0" on="1"/>
        <pt x="384" y="0" on="1"/>
        <pt x="346" y="177" on="1"/>
        <pt x="153" y="177" on="1"/>
        <pt x="114" y="0" on="1"/>
        <pt x="25" y="0" on="1"/>
        <pt x="194" y="700" on="1"/>
        <pt x="309" y="700" on="1"/>
      </contour>
      <contour>
        <pt x="313" y="735" on="1"/>
        <pt x="313" y="815" on="1"/>
        <pt x="384" y="815" on="1"/>
        <pt x="398" y="735" on="1"/>
      </contour>
      <contour>
        <pt x="198" y="735" on="1"/>
        <pt x="113" y="735" on="1"/>
        <pt x="113" y="815" on="1"/>
        <pt x="198" y="815" on="1"/>
      </contour>
    </TTGlyph>
    <TTGlyph name="Agrave" xMin="25" yMin="0" xMax="475" yMax="841">
      <contour>
        <pt x="337" y="726" on="1"/>
        <pt x="254" y="726" on="1"/>
        <pt x="122" y="841" on="1"/>
        <pt x="233" y="841" on="1"/>
      </contour>
      <contour>
        <pt x="330" y="252" on="1"/>
        <pt x="249" y="627" on="1"/>
        <pt x="169" y="252" on="1"/>
      </contour>
      <contour>
        <pt x="475" y="0" on="1"/>
        <pt x="384" y="0" on="1"/>
        <pt x="346" y="177" on="1"/>
        <pt x="153" y="177" on="1"/>
        <pt x="114" y="0" on="1"/>
        <pt x="25" y="0" on="1"/>
        <pt x="194" y="700" on="1"/>
        <pt x="309" y="700" on="1"/>
      </contour>
    </TTGlyph>
    <TTGlyph name="Aring" xMin="25" yMin="0" xMax="475" yMax="855">
      <contour>
        <pt x="159" y="741" on="1"/>
        <pt x="159" y="770" on="1"/>
        <pt x="159" y="812" on="0"/>
        <pt x="208" y="855" on="0"/>
        <pt x="248" y="855" on="1"/>
        <pt x="254" y="855" on="1"/>
        <pt x="294" y="855" on="0"/>
        <pt x="343" y="812" on="0"/>
        <pt x="343" y="770" on="1"/>
        <pt x="343" y="741" on="1"/>
        <pt x="341" y="696" on="0"/>
        <pt x="315" y="675" on="1"/>
        <pt x="475" y="0" on="1"/>
        <pt x="384" y="0" on="1"/>
        <pt x="346" y="177" on="1"/>
        <pt x="153" y="177" on="1"/>
        <pt x="114" y="0" on="1"/>
        <pt x="25" y="0" on="1"/>
        <pt x="188" y="674" on="1"/>
        <pt x="159" y="697" on="0"/>
      </contour>
      <contour>
        <pt x="330" y="252" on="1"/>
        <pt x="249" y="627" on="1"/>
        <pt x="169" y="252" on="1"/>
      </contour>
      <contour>
        <pt x="286" y="740" on="1"/>
        <pt x="286" y="771" on="1"/>
        <pt x="286" y="809" on="0"/>
        <pt x="254" y="809" on="1"/>
        <pt x="248" y="809" on="1"/>
        <pt x="214" y="809" on="0"/>
        <pt x="214" y="771" on="1"/>
        <pt x="214" y="740" on="1"/>
        <pt x="214" y="702" on="0"/>
        <pt x="248" y="702" on="1"/>
        <pt x="254" y="702" on="1"/>
        <pt x="286" y="702" on="0"/>
      </contour>
    </TTGlyph>
    <TTGlyph name="Atilde" xMin="25" yMin="0" xMax="475" yMax="840">
      <contour>
        <pt x="330" y="252" on="1"/>
        <pt x="249" y="627" on="1"/>
        <pt x="169" y="252" on="1"/>
      </contour>
      <contour>
        <pt x="475" y="0" on="1"/>
        <pt x="384" y="0" on="1"/>
        <pt x="346" y="177" on="1"/>
        <pt x="153" y="177" on="1"/>
        <pt x="114" y="0" on="1"/>
        <pt x="25" y="0" on="1"/>
        <pt x="194" y="700" on="1"/>
        <pt x="309" y="700" on="1"/>
      </contour>
      <contour>
        <pt x="191" y="840" on="1"/>
        <pt x="206" y="840" on="1"/>
        <pt x="218" y="840" on="0"/>
        <pt x="306" y="800" on="0"/>
        <pt x="317" y="800" on="1"/>
        <pt x="327" y="800" on="1"/>
        <pt x="338" y="800" on="0"/>
        <pt x="380" y="827" on="1"/>
        <pt x="394" y="836" on="1"/>
        <pt x="394" y="764" on="1"/>
        <pt x="343" y="731" on="0"/>
        <pt x="326" y="731" on="1"/>
        <pt x="311" y="731" on="1"/>
        <pt x="305" y="731" on="0"/>
        <pt x="212" y="771" on="0"/>
        <pt x="201" y="771" on="1"/>
        <pt x="191" y="771" on="1"/>
        <pt x="178" y="771" on="0"/>
        <pt x="130" y="744" on="1"/>
        <pt x="114" y="735" on="1"/>
        <pt x="114" y="807" on="1"/>
        <pt x="172" y="840" on="0"/>
      </contour>
    </TTGlyph>
    <TTGlyph name="B" xMin="85" yMin="0" xMax="445" yMax="700">
      <contour>
        <pt x="445" y="158" on="1"/>
        <pt x="445" y="72" on="0"/>
        <pt x="366" y="0" on="0"/>
        <pt x="275" y="0" on="1"/>
        <pt x="85" y="0" on="1"/>
        <pt x="85" y="700" on="1"/>
        <pt x="263" y="700" on="1"/>
        <pt x="352" y="700" on="0"/>
        <pt x="435" y="628" on="0"/>
        <pt x="435" y="544" on="1"/>
        <pt x="435" y="487" on="1"/>
        <pt x="435" y="410" on="0"/>
        <pt x="380" y="371" on="1"/>
        <pt x="445" y="335" on="0"/>
        <pt x="445" y="248" on="1"/>
      </contour>
      <contour>
        <pt x="348" y="477" on="1"/>
        <pt x="348" y="553" on="1"/>
        <pt x="348" y="591" on="0"/>
        <pt x="313" y="625" on="0"/>
        <pt x="275" y="625" on="1"/>
        <pt x="172" y="625" on="1"/>
        <pt x="172" y="404" on="1"/>
        <pt x="275" y="404" on="1"/>
        <pt x="306" y="404" on="0"/>
        <pt x="348" y="444" on="0"/>
      </contour>
      <contour>
        <pt x="358" y="148" on="1"/>
        <pt x="358" y="257" on="1"/>
        <pt x="358" y="290" on="0"/>
        <pt x="318" y="329" on="0"/>
        <pt x="285" y="329" on="1"/>
        <pt x="172" y="329" on="1"/>
        <pt x="172" y="75" on="1"/>
        <pt x="284" y="75" on="1"/>
        <pt x="322" y="75" on="0"/>
        <pt x="358" y="110" on="0"/>
      </contour>
    </TTGlyph>
    <TTGlyph name="C" xMin="75" yMin="0" xMax="377" yMax="700">
      <contour>
        <pt x="377" y="0" on="1"/>
        <pt x="255" y="0" on="1"/>
        <pt x="168" y="0" on="0"/>
        <pt x="75" y="85" on="0"/>
        <pt x="75" y="170" on="1"/>
        <pt x="75" y="530" on="1"/>
        <pt x="75" y="615" on="0"/>
        <pt x="168" y="700" on="0"/>
        <pt x="255" y="700" on="1"/>
        <pt x="377" y="700" on="1"/>
        <pt x="377" y="624" on="1"/>
        <pt x="245" y="624" on="1"/>
        <pt x="208" y="624" on="0"/>
        <pt x="162" y="580" on="0"/>
        <pt x="162" y="549" on="1"/>
        <pt x="162" y="151" on="1"/>
        <pt x="162" y="120" on="0"/>
        <pt x="208" y="76" on="0"/>
        <pt x="245" y="76" on="1"/>
        <pt x="377" y="76" on="1"/>
      </contour>
    </TTGlyph>
    <TTGlyph name="Ccedilla" xMin="75" yMin="-200" xMax="377" yMax="700">
      <contour>
        <pt x="282" y="-200" on="1"/>
        <pt x="197" y="-200" on="1"/>
        <pt x="197" y="-136" on="1"/>
        <pt x="264" y="-136" on="1"/>
        <pt x="297" y="-136" on="0"/>
        <pt x="297" y="-105" on="1"/>
        <pt x="297" y="-88" on="0"/>
        <pt x="280" y="-76" on="0"/>
        <pt x="262" y="-76" on="1"/>
        <pt x="213" y="-76" on="1"/>
        <pt x="213" y="2" on="1"/>
        <pt x="75" y="22" on="0"/>
        <pt x="75" y="170" on="1"/>
        <pt x="75" y="530" on="1"/>
        <pt x="75" y="615" on="0"/>
        <pt x="168" y="700" on="0"/>
        <pt x="255" y="700" on="1"/>
        <pt x="377" y="700" on="1"/>
        <pt x="377" y="624" on="1"/>
        <pt x="245" y="624" on="1"/>
        <pt x="208" y="624" on="0"/>
        <pt x="162" y="580" on="0"/>
        <pt x="162" y="549" on="1"/>
        <pt x="162" y="151" on="1"/>
        <pt x="162" y="120" on="0"/>
        <pt x="208" y="76" on="0"/>
        <pt x="245" y="76" on="1"/>
        <pt x="377" y="76" on="1"/>
        <pt x="377" y="0" on="1"/>
        <pt x="283" y="0" on="1"/>
        <pt x="283" y="-21" on="1"/>
        <pt x="329" y="-21" on="0"/>
        <pt x="370" y="-56" on="0"/>
        <pt x="370" y="-136" on="0"/>
        <pt x="353" y="-177" on="0"/>
        <pt x="338" y="-186" on="1"/>
        <pt x="314" y="-200" on="0"/>
      </contour>
    </TTGlyph>
    <TTGlyph name="D" xMin="85" yMin="0" xMax="451" yMax="700">
      <contour>
        <pt x="451" y="158" on="1"/>
        <pt x="451" y="72" on="0"/>
        <pt x="372" y="0" on="0"/>
        <pt x="281" y="0" on="1"/>
        <pt x="85" y="0" on="1"/>
        <pt x="85" y="700" on="1"/>
        <pt x="269" y="700" on="1"/>
        <pt x="359" y="700" on="0"/>
        <pt x="451" y="627" on="0"/>
        <pt x="451" y="544" on="1"/>
      </contour>
      <contour>
        <pt x="364" y="148" on="1"/>
        <pt x="364" y="553" on="1"/>
        <pt x="364" y="586" on="0"/>
        <pt x="324" y="625" on="0"/>
        <pt x="291" y="625" on="1"/>
        <pt x="172" y="625" on="1"/>
        <pt x="172" y="75" on="1"/>
        <pt x="290" y="75" on="1"/>
        <pt x="328" y="75" on="0"/>
        <pt x="364" y="110" on="0"/>
      </contour>
    </TTGlyph>
    <TTGlyph name="Delta" xMin="25" yMin="0" xMax="485" yMax="700">
      <contour>
        <pt x="485" y="0" on="1"/>
        <pt x="25" y="0" on="1"/>
        <pt x="203" y="700" on="1"/>
        <pt x="314" y="700" on="1"/>
      </contour>
      <contour>
        <pt x="377" y="75" on="1"/>
        <pt x="258" y="625" on="1"/>
        <pt x="133" y="75" on="1"/>
      </contour>
    </TTGlyph>
    <TTGlyph name="E" xMin="85" yMin="0" xMax="413" yMax="700">
      <contour>
        <pt x="413" y="0" on="1"/>
        <pt x="85" y="0" on="1"/>
        <pt x="85" y="700" on="1"/>
        <pt x="413" y="700" on="1"/>
        <pt x="413" y="627" on="1"/>
        <pt x="172" y="627" on="1"/>
        <pt x="172" y="398" on="1"/>
        <pt x="388" y="398" on="1"/>
        <pt x="388" y="325" on="1"/>
        <pt x="172" y="325" on="1"/>
        <pt x="172" y="73" on="1"/>
        <pt x="413" y="73" on="1"/>
      </contour>
    </TTGlyph>
    <TTGlyph name="Eacute" xMin="85" yMin="0" xMax="413" yMax="841">
      <contour>
        <pt x="265" y="726" on="1"/>
        <pt x="182" y="726" on="1"/>
        <pt x="286" y="841" on="1"/>
        <pt x="397" y="841" on="1"/>
      </contour>
      <contour>
        <pt x="413" y="0" on="1"/>
        <pt x="85" y="0" on="1"/>
        <pt x="85" y="700" on="1"/>
        <pt x="413" y="700" on="1"/>
        <pt x="413" y="627" on="1"/>
        <pt x="172" y="627" on="1"/>
        <pt x="172" y="398" on="1"/>
        <pt x="388" y="398" on="1"/>
        <pt x="388" y="325" on="1"/>
        <pt x="172" y="325" on="1"/>
        <pt x="172" y="73" on="1"/>
        <pt x="413" y="73" on="1"/>
      </contour>
    </TTGlyph>
    <TTGlyph name="Ecircumflex" xMin="85" yMin="0" xMax="413" yMax="845">
      <contour>
        <pt x="406" y="730" on="1"/>
        <pt x="309" y="730" on="1"/>
        <pt x="249" y="794" on="1"/>
        <pt x="189" y="730" on="1"/>
        <pt x="93" y="730" on="1"/>
        <pt x="203" y="845" on="1"/>
        <pt x="295" y="845" on="1"/>
      </contour>
      <contour>
        <pt x="413" y="0" on="1"/>
        <pt x="85" y="0" on="1"/>
        <pt x="85" y="700" on="1"/>
        <pt x="413" y="700" on="1"/>
        <pt x="413" y="627" on="1"/>
        <pt x="172" y="627" on="1"/>
        <pt x="172" y="398" on="1"/>
        <pt x="388" y="398" on="1"/>
        <pt x="388" y="325" on="1"/>
        <pt x="172" y="325" on="1"/>
        <pt x="172" y="73" on="1"/>
        <pt x="413" y="73" on="1"/>
      </contour>
    </TTGlyph>
    <TTGlyph name="Edieresis" xMin="85" yMin="0" xMax="413" yMax="815">
      <contour>
        <pt x="413" y="0" on="1"/>
        <pt x="85" y="0" on="1"/>
        <pt x="85" y="700" on="1"/>
        <pt x="413" y="700" on="1"/>
        <pt x="413" y="627" on="1"/>
        <pt x="172" y="627" on="1"/>
        <pt x="172" y="398" on="1"/>
        <pt x="388" y="398" on="1"/>
        <pt x="388" y="325" on="1"/>
        <pt x="172" y="325" on="1"/>
        <pt x="172" y="73" on="1"/>
        <pt x="413" y="73" on="1"/>
      </contour>
      <contour>
        <pt x="393" y="735" on="1"/>
        <pt x="308" y="735" on="1"/>
        <pt x="308" y="815" on="1"/>
        <pt x="393" y="815" on="1"/>
      </contour>
      <contour>
        <pt x="193" y="735" on="1"/>
        <pt x="108" y="735" on="1"/>
        <pt x="108" y="815" on="1"/>
        <pt x="193" y="815" on="1"/>
      </contour>
    </TTGlyph>
    <TTGlyph name="Egrave" xMin="85" yMin="0" xMax="413" yMax="841">
      <contour>
        <pt x="327" y="726" on="1"/>
        <pt x="244" y="726" on="1"/>
        <pt x="112" y="841" on="1"/>
        <pt x="223" y="841" on="1"/>
      </contour>
      <contour>
        <pt x="413" y="0" on="1"/>
        <pt x="85" y="0" on="1"/>
        <pt x="85" y="700" on="1"/>
        <pt x="413" y="700" on="1"/>
        <pt x="413" y="627" on="1"/>
        <pt x="172" y="627" on="1"/>
        <pt x="172" y="398" on="1"/>
        <pt x="388" y="398" on="1"/>
        <pt x="388" y="325" on="1"/>
        <pt x="172" y="325" on="1"/>
        <pt x="172" y="73" on="1"/>
        <pt x="413" y="73" on="1"/>
      </contour>
    </TTGlyph>
    <TTGlyph name="Eth" xMin="25" yMin="0" xMax="456" yMax="700">
      <contour>
        <pt x="456" y="158" on="1"/>
        <pt x="456" y="72" on="0"/>
        <pt x="377" y="0" on="0"/>
        <pt x="286" y="0" on="1"/>
        <pt x="90" y="0" on="1"/>
        <pt x="90" y="325" on="1"/>
        <pt x="25" y="325" on="1"/>
        <pt x="25" y="400" on="1"/>
        <pt x="90" y="400" on="1"/>
        <pt x="90" y="700" on="1"/>
        <pt x="274" y="700" on="1"/>
        <pt x="364" y="700" on="0"/>
        <pt x="456" y="627" on="0"/>
        <pt x="456" y="544" on="1"/>
      </contour>
      <contour>
        <pt x="369" y="148" on="1"/>
        <pt x="369" y="553" on="1"/>
        <pt x="369" y="586" on="0"/>
        <pt x="329" y="625" on="0"/>
        <pt x="296" y="625" on="1"/>
        <pt x="177" y="625" on="1"/>
        <pt x="177" y="400" on="1"/>
        <pt x="295" y="400" on="1"/>
        <pt x="295" y="325" on="1"/>
        <pt x="177" y="325" on="1"/>
        <pt x="177" y="75" on="1"/>
        <pt x="295" y="75" on="1"/>
        <pt x="333" y="75" on="0"/>
        <pt x="369" y="110" on="0"/>
      </contour>
    </TTGlyph>
    <TTGlyph name="Euro" xMin="55" yMin="0" xMax="417" yMax="700">
      <contour>
        <pt x="381" y="480" on="1"/>
        <pt x="381" y="407" on="1"/>
        <pt x="212" y="407" on="1"/>
        <pt x="212" y="310" on="1"/>
        <pt x="381" y="310" on="1"/>
        <pt x="381" y="237" on="1"/>
        <pt x="212" y="237" on="1"/>
        <pt x="212" y="151" on="1"/>
        <pt x="212" y="120" on="0"/>
        <pt x="258" y="76" on="0"/>
        <pt x="295" y="76" on="1"/>
        <pt x="417" y="76" on="1"/>
        <pt x="417" y="0" on="1"/>
        <pt x="305" y="0" on="1"/>
        <pt x="218" y="0" on="0"/>
        <pt x="125" y="85" on="0"/>
        <pt x="125" y="170" on="1"/>
        <pt x="125" y="237" on="1"/>
        <pt x="55" y="237" on="1"/>
        <pt x="55" y="310" on="1"/>
        <pt x="125" y="310" on="1"/>
        <pt x="125" y="407" on="1"/>
        <pt x="55" y="407" on="1"/>
        <pt x="55" y="480" on="1"/>
        <pt x="125" y="480" on="1"/>
        <pt x="125" y="530" on="1"/>
        <pt x="125" y="615" on="0"/>
        <pt x="218" y="700" on="0"/>
        <pt x="305" y="700" on="1"/>
        <pt x="417" y="700" on="1"/>
        <pt x="417" y="624" on="1"/>
        <pt x="295" y="624" on="1"/>
        <pt x="258" y="624" on="0"/>
        <pt x="212" y="580" on="0"/>
        <pt x="212" y="549" on="1"/>
        <pt x="212" y="480" on="1"/>
      </contour>
    </TTGlyph>
    <TTGlyph name="F" xMin="85" yMin="0" xMax="413" yMax="700">
      <contour>
        <pt x="413" y="627" on="1"/>
        <pt x="172" y="627" on="1"/>
        <pt x="172" y="388" on="1"/>
        <pt x="388" y="388" on="1"/>
        <pt x="388" y="315" on="1"/>
        <pt x="172" y="315" on="1"/>
        <pt x="172" y="0" on="1"/>
        <pt x="85" y="0" on="1"/>
        <pt x="85" y="700" on="1"/>
        <pt x="413" y="700" on="1"/>
      </contour>
    </TTGlyph>
    <TTGlyph name="G" xMin="75" yMin="0" xMax="420" yMax="700">
      <contour>
        <pt x="420" y="0" on="1"/>
        <pt x="255" y="0" on="1"/>
        <pt x="168" y="0" on="0"/>
        <pt x="75" y="85" on="0"/>
        <pt x="75" y="170" on="1"/>
        <pt x="75" y="530" on="1"/>
        <pt x="75" y="615" on="0"/>
        <pt x="168" y="700" on="0"/>
        <pt x="255" y="700" on="1"/>
        <pt x="390" y="700" on="1"/>
        <pt x="390" y="624" on="1"/>
        <pt x="245" y="624" on="1"/>
        <pt x="208" y="624" on="0"/>
        <pt x="162" y="580" on="0"/>
        <pt x="162" y="549" on="1"/>
        <pt x="162" y="151" on="1"/>
        <pt x="162" y="120" on="0"/>
        <pt x="208" y="76" on="0"/>
        <pt x="245" y="76" on="1"/>
        <pt x="337" y="76" on="1"/>
        <pt x="337" y="293" on="1"/>
        <pt x="253" y="293" on="1"/>
        <pt x="253" y="368" on="1"/>
        <pt x="420" y="368" on="1"/>
      </contour>
    </TTGlyph>
    <TTGlyph name="H" xMin="85" yMin="0" xMax="465" yMax="700">
      <contour>
        <pt x="465" y="0" on="1"/>
        <pt x="378" y="0" on="1"/>
        <pt x="378" y="322" on="1"/>
        <pt x="172" y="322" on="1"/>
        <pt x="172" y="0" on="1"/>
        <pt x="85" y="0" on="1"/>
        <pt x="85" y="700" on="1"/>
        <pt x="172" y="700" on="1"/>
        <pt x="172" y="396" on="1"/>
        <pt x="378" y="396" on="1"/>
        <pt x="378" y="700" on="1"/>
        <pt x="465" y="700" on="1"/>
      </contour>
    </TTGlyph>
    <TTGlyph name="I" xMin="45" yMin="0" xMax="272" yMax="700">
      <contour>
        <pt x="272" y="0" on="1"/>
        <pt x="45" y="0" on="1"/>
        <pt x="45" y="73" on="1"/>
        <pt x="115" y="73" on="1"/>
        <pt x="115" y="627" on="1"/>
        <pt x="45" y="627" on="1"/>
        <pt x="45" y="700" on="1"/>
        <pt x="272" y="700" on="1"/>
        <pt x="272" y="627" on="1"/>
        <pt x="202" y="627" on="1"/>
        <pt x="202" y="73" on="1"/>
        <pt x="272" y="73" on="1"/>
      </contour>
    </TTGlyph>
    <TTGlyph name="Iacute" xMin="45" yMin="0" xMax="276" yMax="841">
      <contour>
        <pt x="144" y="726" on="1"/>
        <pt x="61" y="726" on="1"/>
        <pt x="165" y="841" on="1"/>
        <pt x="276" y="841" on="1"/>
      </contour>
      <contour>
        <pt x="272" y="0" on="1"/>
        <pt x="45" y="0" on="1"/>
        <pt x="45" y="73" on="1"/>
        <pt x="115" y="73" on="1"/>
        <pt x="115" y="627" on="1"/>
        <pt x="45" y="627" on="1"/>
        <pt x="45" y="700" on="1"/>
        <pt x="272" y="700" on="1"/>
        <pt x="272" y="627" on="1"/>
        <pt x="202" y="627" on="1"/>
        <pt x="202" y="73" on="1"/>
        <pt x="272" y="73" on="1"/>
      </contour>
    </TTGlyph>
    <TTGlyph name="Icircumflex" xMin="2" yMin="0" xMax="315" yMax="845">
      <contour>
        <pt x="315" y="730" on="1"/>
        <pt x="218" y="730" on="1"/>
        <pt x="158" y="794" on="1"/>
        <pt x="98" y="730" on="1"/>
        <pt x="2" y="730" on="1"/>
        <pt x="112" y="845" on="1"/>
        <pt x="204" y="845" on="1"/>
      </contour>
      <contour>
        <pt x="272" y="0" on="1"/>
        <pt x="45" y="0" on="1"/>
        <pt x="45" y="73" on="1"/>
        <pt x="115" y="73" on="1"/>
        <pt x="115" y="627" on="1"/>
        <pt x="45" y="627" on="1"/>
        <pt x="45" y="700" on="1"/>
        <pt x="272" y="700" on="1"/>
        <pt x="272" y="627" on="1"/>
        <pt x="202" y="627" on="1"/>
        <pt x="202" y="73" on="1"/>
        <pt x="272" y="73" on="1"/>
      </contour>
    </TTGlyph>
    <TTGlyph name="Idieresis" xMin="16" yMin="0" xMax="301" yMax="815">
      <contour>
        <pt x="272" y="0" on="1"/>
        <pt x="45" y="0" on="1"/>
        <pt x="45" y="73" on="1"/>
        <pt x="115" y="73" on="1"/>
        <pt x="115" y="627" on="1"/>
        <pt x="45" y="627" on="1"/>
        <pt x="45" y="700" on="1"/>
        <pt x="272" y="700" on="1"/>
        <pt x="272" y="627" on="1"/>
        <pt x="202" y="627" on="1"/>
        <pt x="202" y="73" on="1"/>
        <pt x="272" y="73" on="1"/>
      </contour>
      <contour>
        <pt x="301" y="735" on="1"/>
        <pt x="216" y="735" on="1"/>
        <pt x="216" y="815" on="1"/>
        <pt x="301" y="815" on="1"/>
      </contour>
      <contour>
        <pt x="101" y="735" on="1"/>
        <pt x="16" y="735" on="1"/>
        <pt x="16" y="815" on="1"/>
        <pt x="101" y="815" on="1"/>
      </contour>
    </TTGlyph>
    <TTGlyph name="Igrave" xMin="38" yMin="0" xMax="272" yMax="841">
      <contour>
        <pt x="253" y="726" on="1"/>
        <pt x="170" y="726" on="1"/>
        <pt x="38" y="841" on="1"/>
        <pt x="149" y="841" on="1"/>
      </contour>
      <contour>
        <pt x="272" y="0" on="1"/>
        <pt x="45" y="0" on="1"/>
        <pt x="45" y="73" on="1"/>
        <pt x="115" y="73" on="1"/>
        <pt x="115" y="627" on="1"/>
        <pt x="45" y="627" on="1"/>
        <pt x="45" y="700" on="1"/>
        <pt x="272" y="700" on="1"/>
        <pt x="272" y="627" on="1"/>
        <pt x="202" y="627" on="1"/>
        <pt x="202" y="73" on="1"/>
        <pt x="272" y="73" on="1"/>
      </contour>
    </TTGlyph>
    <TTGlyph name="J" xMin="30" yMin="0" xMax="305" yMax="700">
      <contour>
        <pt x="305" y="170" on="1"/>
        <pt x="305" y="85" on="0"/>
        <pt x="212" y="0" on="0"/>
        <pt x="125" y="0" on="1"/>
        <pt x="30" y="0" on="1"/>
        <pt x="30" y="76" on="1"/>
        <pt x="135" y="76" on="1"/>
        <pt x="172" y="76" on="0"/>
        <pt x="218" y="120" on="0"/>
        <pt x="218" y="151" on="1"/>
        <pt x="218" y="625" on="1"/>
        <pt x="67" y="625" on="1"/>
        <pt x="67" y="700" on="1"/>
        <pt x="305" y="700" on="1"/>
      </contour>
    </TTGlyph>
    <TTGlyph name="K" xMin="85" yMin="0" xMax="462" yMax="700">
      <contour>
        <pt x="172" y="0" on="1"/>
        <pt x="85" y="0" on="1"/>
        <pt x="85" y="700" on="1"/>
        <pt x="172" y="700" on="1"/>
        <pt x="172" y="398" on="1"/>
        <pt x="357" y="700" on="1"/>
        <pt x="452" y="700" on="1"/>
        <pt x="262" y="394" on="1"/>
        <pt x="462" y="0" on="1"/>
        <pt x="364" y="0" on="1"/>
        <pt x="208" y="318" on="1"/>
        <pt x="172" y="258" on="1"/>
      </contour>
    </TTGlyph>
    <TTGlyph name="L" xMin="85" yMin="0" xMax="395" yMax="700">
      <contour>
        <pt x="395" y="0" on="1"/>
        <pt x="85" y="0" on="1"/>
        <pt x="85" y="700" on="1"/>
        <pt x="172" y="700" on="1"/>
        <pt x="172" y="76" on="1"/>
        <pt x="395" y="76" on="1"/>
      </contour>
    </TTGlyph>
    <TTGlyph name="Lslash" xMin="25" yMin="0" xMax="395" yMax="700">
      <contour>
        <pt x="395" y="0" on="1"/>
        <pt x="85" y="0" on="1"/>
        <pt x="85" y="329" on="1"/>
        <pt x="25" y="300" on="1"/>
        <pt x="25" y="380" on="1"/>
        <pt x="85" y="409" on="1"/>
        <pt x="85" y="700" on="1"/>
        <pt x="172" y="700" on="1"/>
        <pt x="172" y="451" on="1"/>
        <pt x="295" y="510" on="1"/>
        <pt x="295" y="430" on="1"/>
        <pt x="172" y="371" on="1"/>
        <pt x="172" y="76" on="1"/>
        <pt x="395" y="76" on="1"/>
      </contour>
    </TTGlyph>
    <TTGlyph name="M" xMin="85" yMin="0" xMax="545" yMax="700">
      <contour>
        <pt x="545" y="0" on="1"/>
        <pt x="462" y="0" on="1"/>
        <pt x="462" y="628" on="1"/>
        <pt x="355" y="235" on="1"/>
        <pt x="272" y="235" on="1"/>
        <pt x="165" y="628" on="1"/>
        <pt x="165" y="0" on="1"/>
        <pt x="85" y="0" on="1"/>
        <pt x="85" y="700" on="1"/>
        <pt x="226" y="700" on="1"/>
        <pt x="317" y="342" on="1"/>
        <pt x="407" y="700" on="1"/>
        <pt x="545" y="700" on="1"/>
      </contour>
    </TTGlyph>
    <TTGlyph name="N" xMin="85" yMin="0" xMax="462" yMax="700">
      <contour>
        <pt x="462" y="0" on="1"/>
        <pt x="319" y="0" on="1"/>
        <pt x="166" y="626" on="1"/>
        <pt x="166" y="0" on="1"/>
        <pt x="85" y="0" on="1"/>
        <pt x="85" y="700" on="1"/>
        <pt x="227" y="700" on="1"/>
        <pt x="381" y="74" on="1"/>
        <pt x="381" y="700" on="1"/>
        <pt x="462" y="700" on="1"/>
      </contour>
    </TTGlyph>
    <TTGlyph name="Ntilde" xMin="85" yMin="0" xMax="462" yMax="840">
      <contour>
        <pt x="462" y="0" on="1"/>
        <pt x="319" y="0" on="1"/>
        <pt x="166" y="626" on="1"/>
        <pt x="166" y="0" on="1"/>
        <pt x="85" y="0" on="1"/>
        <pt x="85" y="700" on="1"/>
        <pt x="227" y="700" on="1"/>
        <pt x="381" y="74" on="1"/>
        <pt x="381" y="700" on="1"/>
        <pt x="462" y="700" on="1"/>
      </contour>
      <contour>
        <pt x="214" y="840" on="1"/>
        <pt x="229" y="840" on="1"/>
        <pt x="241" y="840" on="0"/>
        <pt x="329" y="800" on="0"/>
        <pt x="340" y="800" on="1"/>
        <pt x="350" y="800" on="1"/>
        <pt x="361" y="800" on="0"/>
        <pt x="403" y="827" on="1"/>
        <pt x="417" y="836" on="1"/>
        <pt x="417" y="764" on="1"/>
        <pt x="366" y="731" on="0"/>
        <pt x="349" y="731" on="1"/>
        <pt x="334" y="731" on="1"/>
        <pt x="328" y="731" on="0"/>
        <pt x="235" y="771" on="0"/>
        <pt x="224" y="771" on="1"/>
        <pt x="214" y="771" on="1"/>
        <pt x="201" y="771" on="0"/>
        <pt x="153" y="744" on="1"/>
        <pt x="137" y="735" on="1"/>
        <pt x="137" y="807" on="1"/>
        <pt x="195" y="840" on="0"/>
      </contour>
    </TTGlyph>
    <TTGlyph name="O" xMin="75" yMin="0" xMax="469" yMax="700">
      <contour>
        <pt x="469" y="170" on="1"/>
        <pt x="469" y="85" on="0"/>
        <pt x="376" y="0" on="0"/>
        <pt x="289" y="0" on="1"/>
        <pt x="255" y="0" on="1"/>
        <pt x="168" y="0" on="0"/>
        <pt x="75" y="85" on="0"/>
        <pt x="75" y="170" on="1"/>
        <pt x="75" y="530" on="1"/>
        <pt x="75" y="615" on="0"/>
        <pt x="168" y="700" on="0"/>
        <pt x="255" y="700" on="1"/>
        <pt x="289" y="700" on="1"/>
        <pt x="376" y="700" on="0"/>
        <pt x="469" y="615" on="0"/>
        <pt x="469" y="530" on="1"/>
      </contour>
      <contour>
        <pt x="382" y="151" on="1"/>
        <pt x="382" y="549" on="1"/>
        <pt x="382" y="580" on="0"/>
        <pt x="336" y="624" on="0"/>
        <pt x="299" y="624" on="1"/>
        <pt x="245" y="624" on="1"/>
        <pt x="208" y="624" on="0"/>
        <pt x="162" y="580" on="0"/>
        <pt x="162" y="549" on="1"/>
        <pt x="162" y="151" on="1"/>
        <pt x="162" y="120" on="0"/>
        <pt x="208" y="76" on="0"/>
        <pt x="245" y="76" on="1"/>
        <pt x="299" y="76" on="1"/>
        <pt x="336" y="76" on="0"/>
        <pt x="382" y="120" on="0"/>
      </contour>
    </TTGlyph>
    <TTGlyph name="OE" xMin="75" yMin="0" xMax="681" yMax="700">
      <contour>
        <pt x="681" y="0" on="1"/>
        <pt x="255" y="0" on="1"/>
        <pt x="168" y="0" on="0"/>
        <pt x="75" y="85" on="0"/>
        <pt x="75" y="170" on="1"/>
        <pt x="75" y="530" on="1"/>
        <pt x="75" y="615" on="0"/>
        <pt x="168" y="700" on="0"/>
        <pt x="255" y="700" on="1"/>
        <pt x="681" y="700" on="1"/>
        <pt x="681" y="627" on="1"/>
        <pt x="445" y="627" on="1"/>
        <pt x="469" y="582" on="0"/>
        <pt x="469" y="530" on="1"/>
        <pt x="469" y="398" on="1"/>
        <pt x="666" y="398" on="1"/>
        <pt x="666" y="325" on="1"/>
        <pt x="469" y="325" on="1"/>
        <pt x="469" y="170" on="1"/>
        <pt x="469" y="116" on="0"/>
        <pt x="445" y="73" on="1"/>
        <pt x="681" y="73" on="1"/>
      </contour>
      <contour>
        <pt x="382" y="151" on="1"/>
        <pt x="382" y="549" on="1"/>
        <pt x="382" y="580" on="0"/>
        <pt x="336" y="624" on="0"/>
        <pt x="299" y="624" on="1"/>
        <pt x="245" y="624" on="1"/>
        <pt x="208" y="624" on="0"/>
        <pt x="162" y="580" on="0"/>
        <pt x="162" y="549" on="1"/>
        <pt x="162" y="151" on="1"/>
        <pt x="162" y="120" on="0"/>
        <pt x="208" y="76" on="0"/>
        <pt x="245" y="76" on="1"/>
        <pt x="299" y="76" on="1"/>
        <pt x="336" y="76" on="0"/>
        <pt x="382" y="120" on="0"/>
      </contour>
    </TTGlyph>
    <TTGlyph name="Oacute" xMin="75" yMin="0" xMax="469" yMax="841">
      <contour>
        <pt x="294" y="726" on="1"/>
        <pt x="211" y="726" on="1"/>
        <pt x="315" y="841" on="1"/>
        <pt x="426" y="841" on="1"/>
      </contour>
      <contour>
        <pt x="469" y="170" on="1"/>
        <pt x="469" y="85" on="0"/>
        <pt x="376" y="0" on="0"/>
        <pt x="289" y="0" on="1"/>
        <pt x="255" y="0" on="1"/>
        <pt x="168" y="0" on="0"/>
        <pt x="75" y="85" on="0"/>
        <pt x="75" y="170" on="1"/>
        <pt x="75" y="530" on="1"/>
        <pt x="75" y="615" on="0"/>
        <pt x="168" y="700" on="0"/>
        <pt x="255" y="700" on="1"/>
        <pt x="289" y="700" on="1"/>
        <pt x="376" y="700" on="0"/>
        <pt x="469" y="615" on="0"/>
        <pt x="469" y="530" on="1"/>
      </contour>
      <contour>
        <pt x="382" y="151" on="1"/>
        <pt x="382" y="549" on="1"/>
        <pt x="382" y="580" on="0"/>
        <pt x="336" y="624" on="0"/>
        <pt x="299" y="624" on="1"/>
        <pt x="245" y="624" on="1"/>
        <pt x="208" y="624" on="0"/>
        <pt x="162" y="580" on="0"/>
        <pt x="162" y="549" on="1"/>
        <pt x="162" y="151" on="1"/>
        <pt x="162" y="120" on="0"/>
        <pt x="208" y="76" on="0"/>
        <pt x="245" y="76" on="1"/>
        <pt x="299" y="76" on="1"/>
        <pt x="336" y="76" on="0"/>
        <pt x="382" y="120" on="0"/>
      </contour>
    </TTGlyph>
    <TTGlyph name="Ocircumflex" xMin="75" yMin="0" xMax="469" yMax="845">
      <contour>
        <pt x="426" y="730" on="1"/>
        <pt x="329" y="730" on="1"/>
        <pt x="269" y="794" on="1"/>
        <pt x="209" y="730" on="1"/>
        <pt x="113" y="730" on="1"/>
        <pt x="223" y="845" on="1"/>
        <pt x="315" y="845" on="1"/>
      </contour>
      <contour>
        <pt x="469" y="170" on="1"/>
        <pt x="469" y="85" on="0"/>
        <pt x="376" y="0" on="0"/>
        <pt x="289" y="0" on="1"/>
        <pt x="255" y="0" on="1"/>
        <pt x="168" y="0" on="0"/>
        <pt x="75" y="85" on="0"/>
        <pt x="75" y="170" on="1"/>
        <pt x="75" y="530" on="1"/>
        <pt x="75" y="615" on="0"/>
        <pt x="168" y="700" on="0"/>
        <pt x="255" y="700" on="1"/>
        <pt x="289" y="700" on="1"/>
        <pt x="376" y="700" on="0"/>
        <pt x="469" y="615" on="0"/>
        <pt x="469" y="530" on="1"/>
      </contour>
      <contour>
        <pt x="382" y="151" on="1"/>
        <pt x="382" y="549" on="1"/>
        <pt x="382" y="580" on="0"/>
        <pt x="336" y="624" on="0"/>
        <pt x="299" y="624" on="1"/>
        <pt x="245" y="624" on="1"/>
        <pt x="208" y="624" on="0"/>
        <pt x="162" y="580" on="0"/>
        <pt x="162" y="549" on="1"/>
        <pt x="162" y="151" on="1"/>
        <pt x="162" y="120" on="0"/>
        <pt x="208" y="76" on="0"/>
        <pt x="245" y="76" on="1"/>
        <pt x="299" y="76" on="1"/>
        <pt x="336" y="76" on="0"/>
        <pt x="382" y="120" on="0"/>
      </contour>
    </TTGlyph>
    <TTGlyph name="Odieresis" xMin="75" yMin="0" xMax="469" yMax="815">
      <contour>
        <pt x="418" y="735" on="1"/>
        <pt x="333" y="735" on="1"/>
        <pt x="333" y="815" on="1"/>
        <pt x="418" y="815" on="1"/>
      </contour>
      <contour>
        <pt x="218" y="735" on="1"/>
        <pt x="133" y="735" on="1"/>
        <pt x="133" y="815" on="1"/>
        <pt x="218" y="815" on="1"/>
      </contour>
      <contour>
        <pt x="469" y="170" on="1"/>
        <pt x="469" y="85" on="0"/>
        <pt x="376" y="0" on="0"/>
        <pt x="289" y="0" on="1"/>
        <pt x="255" y="0" on="1"/>
        <pt x="168" y="0" on="0"/>
        <pt x="75" y="85" on="0"/>
        <pt x="75" y="170" on="1"/>
        <pt x="75" y="530" on="1"/>
        <pt x="75" y="615" on="0"/>
        <pt x="168" y="700" on="0"/>
        <pt x="255" y="700" on="1"/>
        <pt x="289" y="700" on="1"/>
        <pt x="376" y="700" on="0"/>
        <pt x="469" y="615" on="0"/>
        <pt x="469" y="530" on="1"/>
      </contour>
      <contour>
        <pt x="382" y="151" on="1"/>
        <pt x="382" y="549" on="1"/>
        <pt x="382" y="580" on="0"/>
        <pt x="336" y="624" on="0"/>
        <pt x="299" y="624" on="1"/>
        <pt x="245" y="624" on="1"/>
        <pt x="208" y="624" on="0"/>
        <pt x="162" y="580" on="0"/>
        <pt x="162" y="549" on="1"/>
        <pt x="162" y="151" on="1"/>
        <pt x="162" y="120" on="0"/>
        <pt x="208" y="76" on="0"/>
        <pt x="245" y="76" on="1"/>
        <pt x="299" y="76" on="1"/>
        <pt x="336" y="76" on="0"/>
        <pt x="382" y="120" on="0"/>
      </contour>
    </TTGlyph>
    <TTGlyph name="Ograve" xMin="75" yMin="0" xMax="469" yMax="841">
      <contour>
        <pt x="351" y="726" on="1"/>
        <pt x="268" y="726" on="1"/>
        <pt x="136" y="841" on="1"/>
        <pt x="247" y="841" on="1"/>
      </contour>
      <contour>
        <pt x="469" y="170" on="1"/>
        <pt x="469" y="85" on="0"/>
        <pt x="376" y="0" on="0"/>
        <pt x="289" y="0" on="1"/>
        <pt x="255" y="0" on="1"/>
        <pt x="168" y="0" on="0"/>
        <pt x="75" y="85" on="0"/>
        <pt x="75" y="170" on="1"/>
        <pt x="75" y="530" on="1"/>
        <pt x="75" y="615" on="0"/>
        <pt x="168" y="700" on="0"/>
        <pt x="255" y="700" on="1"/>
        <pt x="289" y="700" on="1"/>
        <pt x="376" y="700" on="0"/>
        <pt x="469" y="615" on="0"/>
        <pt x="469" y="530" on="1"/>
      </contour>
      <contour>
        <pt x="382" y="151" on="1"/>
        <pt x="382" y="549" on="1"/>
        <pt x="382" y="580" on="0"/>
        <pt x="336" y="624" on="0"/>
        <pt x="299" y="624" on="1"/>
        <pt x="245" y="624" on="1"/>
        <pt x="208" y="624" on="0"/>
        <pt x="162" y="580" on="0"/>
        <pt x="162" y="549" on="1"/>
        <pt x="162" y="151" on="1"/>
        <pt x="162" y="120" on="0"/>
        <pt x="208" y="76" on="0"/>
        <pt x="245" y="76" on="1"/>
        <pt x="299" y="76" on="1"/>
        <pt x="336" y="76" on="0"/>
        <pt x="382" y="120" on="0"/>
      </contour>
    </TTGlyph>
    <TTGlyph name="Omega" xMin="50" yMin="0" xMax="500" yMax="700">
      <contour>
        <pt x="500" y="0" on="1"/>
        <pt x="317" y="0" on="1"/>
        <pt x="317" y="76" on="1"/>
        <pt x="344" y="76" on="0"/>
        <pt x="382" y="121" on="0"/>
        <pt x="382" y="151" on="1"/>
        <pt x="382" y="549" on="1"/>
        <pt x="382" y="580" on="0"/>
        <pt x="336" y="624" on="0"/>
        <pt x="299" y="624" on="1"/>
        <pt x="245" y="624" on="1"/>
        <pt x="208" y="624" on="0"/>
        <pt x="162" y="580" on="0"/>
        <pt x="162" y="549" on="1"/>
        <pt x="162" y="151" on="1"/>
        <pt x="162" y="121" on="0"/>
        <pt x="203" y="76" on="0"/>
        <pt x="233" y="76" on="1"/>
        <pt x="233" y="0" on="1"/>
        <pt x="50" y="0" on="1"/>
        <pt x="50" y="76" on="1"/>
        <pt x="99" y="76" on="1"/>
        <pt x="75" y="119" on="0"/>
        <pt x="75" y="170" on="1"/>
        <pt x="75" y="530" on="1"/>
        <pt x="75" y="615" on="0"/>
        <pt x="168" y="700" on="0"/>
        <pt x="255" y="700" on="1"/>
        <pt x="289" y="700" on="1"/>
        <pt x="376" y="700" on="0"/>
        <pt x="469" y="615" on="0"/>
        <pt x="469" y="530" on="1"/>
        <pt x="469" y="170" on="1"/>
        <pt x="469" y="117" on="0"/>
        <pt x="446" y="76" on="1"/>
        <pt x="500" y="76" on="1"/>
      </contour>
    </TTGlyph>
    <TTGlyph name="Oslash" xMin="75" yMin="-91" xMax="469" yMax="791">
      <contour>
        <pt x="469" y="170" on="1"/>
        <pt x="469" y="85" on="0"/>
        <pt x="376" y="0" on="0"/>
        <pt x="289" y="0" on="1"/>
        <pt x="255" y="0" on="1"/>
        <pt x="239" y="0" on="0"/>
        <pt x="215" y="2" on="1"/>
        <pt x="189" y="-91" on="1"/>
        <pt x="113" y="-91" on="1"/>
        <pt x="145" y="25" on="1"/>
        <pt x="75" y="65" on="0"/>
        <pt x="75" y="170" on="1"/>
        <pt x="75" y="530" on="1"/>
        <pt x="75" y="615" on="0"/>
        <pt x="168" y="700" on="0"/>
        <pt x="255" y="700" on="1"/>
        <pt x="289" y="700" on="1"/>
        <pt x="312" y="700" on="0"/>
        <pt x="331" y="697" on="1"/>
        <pt x="357" y="791" on="1"/>
        <pt x="433" y="791" on="1"/>
        <pt x="400" y="674" on="1"/>
        <pt x="469" y="633" on="0"/>
        <pt x="469" y="530" on="1"/>
      </contour>
      <contour>
        <pt x="162" y="151" on="1"/>
        <pt x="162" y="133" on="0"/>
        <pt x="170" y="117" on="1"/>
        <pt x="310" y="623" on="1"/>
        <pt x="307" y="624" on="0"/>
        <pt x="299" y="624" on="1"/>
        <pt x="245" y="624" on="1"/>
        <pt x="208" y="624" on="0"/>
        <pt x="162" y="580" on="0"/>
        <pt x="162" y="549" on="1"/>
      </contour>
      <contour>
        <pt x="382" y="151" on="1"/>
        <pt x="382" y="549" on="1"/>
        <pt x="382" y="562" on="0"/>
        <pt x="375" y="580" on="1"/>
        <pt x="235" y="76" on="1"/>
        <pt x="299" y="76" on="1"/>
        <pt x="336" y="76" on="0"/>
        <pt x="382" y="120" on="0"/>
      </contour>
    </TTGlyph>
    <TTGlyph name="Otilde" xMin="75" yMin="0" xMax="469" yMax="840">
      <contour>
        <pt x="469" y="170" on="1"/>
        <pt x="469" y="85" on="0"/>
        <pt x="376" y="0" on="0"/>
        <pt x="289" y="0" on="1"/>
        <pt x="255" y="0" on="1"/>
        <pt x="168" y="0" on="0"/>
        <pt x="75" y="85" on="0"/>
        <pt x="75" y="170" on="1"/>
        <pt x="75" y="530" on="1"/>
        <pt x="75" y="615" on="0"/>
        <pt x="168" y="700" on="0"/>
        <pt x="255" y="700" on="1"/>
        <pt x="289" y="700" on="1"/>
        <pt x="376" y="700" on="0"/>
        <pt x="469" y="615" on="0"/>
        <pt x="469" y="530" on="1"/>
      </contour>
      <contour>
        <pt x="382" y="151" on="1"/>
        <pt x="382" y="549" on="1"/>
        <pt x="382" y="580" on="0"/>
        <pt x="336" y="624" on="0"/>
        <pt x="299" y="624" on="1"/>
        <pt x="245" y="624" on="1"/>
        <pt x="208" y="624" on="0"/>
        <pt x="162" y="580" on="0"/>
        <pt x="162" y="549" on="1"/>
        <pt x="162" y="151" on="1"/>
        <pt x="162" y="120" on="0"/>
        <pt x="208" y="76" on="0"/>
        <pt x="245" y="76" on="1"/>
        <pt x="299" y="76" on="1"/>
        <pt x="336" y="76" on="0"/>
        <pt x="382" y="120" on="0"/>
      </contour>
      <contour>
        <pt x="210" y="840" on="1"/>
        <pt x="225" y="840" on="1"/>
        <pt x="237" y="840" on="0"/>
        <pt x="325" y="800" on="0"/>
        <pt x="336" y="800" on="1"/>
        <pt x="346" y="800" on="1"/>
        <pt x="357" y="800" on="0"/>
        <pt x="399" y="827" on="1"/>
        <pt x="413" y="836" on="1"/>
        <pt x="413" y="764" on="1"/>
        <pt x="362" y="731" on="0"/>
        <pt x="345" y="731" on="1"/>
        <pt x="330" y="731" on="1"/>
        <pt x="324" y="731" on="0"/>
        <pt x="231" y="771" on="0"/>
        <pt x="220" y="771" on="1"/>
        <pt x="210" y="771" on="1"/>
        <pt x="197" y="771" on="0"/>
        <pt x="149" y="744" on="1"/>
        <pt x="133" y="735" on="1"/>
        <pt x="133" y="807" on="1"/>
        <pt x="191" y="840" on="0"/>
      </contour>
    </TTGlyph>
    <TTGlyph name="P" xMin="85" yMin="0" xMax="436" yMax="700">
      <contour>
        <pt x="436" y="430" on="1"/>
        <pt x="436" y="272" on="0"/>
        <pt x="266" y="272" on="1"/>
        <pt x="172" y="272" on="1"/>
        <pt x="172" y="0" on="1"/>
        <pt x="85" y="0" on="1"/>
        <pt x="85" y="700" on="1"/>
        <pt x="264" y="700" on="1"/>
        <pt x="436" y="700" on="0"/>
        <pt x="436" y="544" on="1"/>
      </contour>
      <contour>
        <pt x="349" y="420" on="1"/>
        <pt x="349" y="553" on="1"/>
        <pt x="349" y="591" on="0"/>
        <pt x="314" y="625" on="0"/>
        <pt x="276" y="625" on="1"/>
        <pt x="172" y="625" on="1"/>
        <pt x="172" y="347" on="1"/>
        <pt x="276" y="347" on="1"/>
        <pt x="314" y="347" on="0"/>
        <pt x="349" y="382" on="0"/>
      </contour>
    </TTGlyph>
    <TTGlyph name="Q" xMin="75" yMin="-59" xMax="520" yMax="700">
      <contour>
        <pt x="289" y="0" on="1"/>
        <pt x="255" y="0" on="1"/>
        <pt x="168" y="0" on="0"/>
        <pt x="75" y="85" on="0"/>
        <pt x="75" y="170" on="1"/>
        <pt x="75" y="530" on="1"/>
        <pt x="75" y="615" on="0"/>
        <pt x="168" y="700" on="0"/>
        <pt x="255" y="700" on="1"/>
        <pt x="289" y="700" on="1"/>
        <pt x="376" y="700" on="0"/>
        <pt x="469" y="615" on="0"/>
        <pt x="469" y="530" on="1"/>
        <pt x="469" y="170" on="1"/>
        <pt x="469" y="110" on="0"/>
        <pt x="445" y="73" on="1"/>
        <pt x="520" y="-2" on="1"/>
        <pt x="463" y="-59" on="1"/>
        <pt x="386" y="19" on="1"/>
        <pt x="347" y="0" on="0"/>
      </contour>
      <contour>
        <pt x="382" y="151" on="1"/>
        <pt x="382" y="549" on="1"/>
        <pt x="382" y="580" on="0"/>
        <pt x="336" y="624" on="0"/>
        <pt x="299" y="624" on="1"/>
        <pt x="245" y="624" on="1"/>
        <pt x="208" y="624" on="0"/>
        <pt x="162" y="580" on="0"/>
        <pt x="162" y="549" on="1"/>
        <pt x="162" y="151" on="1"/>
        <pt x="162" y="120" on="0"/>
        <pt x="208" y="76" on="0"/>
        <pt x="245" y="76" on="1"/>
        <pt x="299" y="76" on="1"/>
        <pt x="337" y="76" on="0"/>
        <pt x="382" y="115" on="0"/>
      </contour>
    </TTGlyph>
    <TTGlyph name="R" xMin="85" yMin="0" xMax="485" yMax="700">
      <contour>
        <pt x="172" y="290" on="1"/>
        <pt x="172" y="0" on="1"/>
        <pt x="85" y="0" on="1"/>
        <pt x="85" y="700" on="1"/>
        <pt x="264" y="700" on="1"/>
        <pt x="436" y="700" on="0"/>
        <pt x="436" y="544" on="1"/>
        <pt x="436" y="448" on="1"/>
        <pt x="436" y="335" on="0"/>
        <pt x="346" y="307" on="1"/>
        <pt x="485" y="0" on="1"/>
        <pt x="390" y="0" on="1"/>
        <pt x="261" y="290" on="1"/>
      </contour>
      <contour>
        <pt x="349" y="438" on="1"/>
        <pt x="349" y="553" on="1"/>
        <pt x="349" y="591" on="0"/>
        <pt x="314" y="625" on="0"/>
        <pt x="276" y="625" on="1"/>
        <pt x="172" y="625" on="1"/>
        <pt x="172" y="365" on="1"/>
        <pt x="276" y="365" on="1"/>
        <pt x="314" y="365" on="0"/>
        <pt x="349" y="400" on="0"/>
      </contour>
    </TTGlyph>
    <TTGlyph name="S" xMin="55" yMin="0" xMax="384" yMax="700">
      <contour>
        <pt x="384" y="170" on="1"/>
        <pt x="384" y="85" on="0"/>
        <pt x="291" y="0" on="0"/>
        <pt x="204" y="0" on="1"/>
        <pt x="72" y="0" on="1"/>
        <pt x="72" y="76" on="1"/>
        <pt x="214" y="76" on="1"/>
        <pt x="251" y="76" on="0"/>
        <pt x="297" y="120" on="0"/>
        <pt x="297" y="151" on="1"/>
        <pt x="297" y="255" on="1"/>
        <pt x="297" y="285" on="0"/>
        <pt x="266" y="322" on="0"/>
        <pt x="235" y="322" on="1"/>
        <pt x="215" y="322" on="1"/>
        <pt x="141" y="322" on="0"/>
        <pt x="55" y="409" on="0"/>
        <pt x="55" y="492" on="1"/>
        <pt x="55" y="530" on="1"/>
        <pt x="55" y="615" on="0"/>
        <pt x="148" y="700" on="0"/>
        <pt x="235" y="700" on="1"/>
        <pt x="368" y="700" on="1"/>
        <pt x="368" y="624" on="1"/>
        <pt x="225" y="624" on="1"/>
        <pt x="188" y="624" on="0"/>
        <pt x="142" y="580" on="0"/>
        <pt x="142" y="549" on="1"/>
        <pt x="142" y="473" on="1"/>
        <pt x="142" y="442" on="0"/>
        <pt x="182" y="401" on="0"/>
        <pt x="214" y="401" on="1"/>
        <pt x="234" y="401" on="1"/>
        <pt x="305" y="401" on="0"/>
        <pt x="384" y="319" on="0"/>
        <pt x="384" y="236" on="1"/>
      </contour>
    </TTGlyph>
    <TTGlyph name="Scaron" xMin="55" yMin="0" xMax="397" yMax="845">
      <contour>
        <pt x="84" y="845" on="1"/>
        <pt x="181" y="845" on="1"/>
        <pt x="241" y="778" on="1"/>
        <pt x="301" y="845" on="1"/>
        <pt x="397" y="845" on="1"/>
        <pt x="285" y="730" on="1"/>
        <pt x="197" y="730" on="1"/>
      </contour>
      <contour>
        <pt x="384" y="170" on="1"/>
        <pt x="384" y="85" on="0"/>
        <pt x="291" y="0" on="0"/>
        <pt x="204" y="0" on="1"/>
        <pt x="72" y="0" on="1"/>
        <pt x="72" y="76" on="1"/>
        <pt x="214" y="76" on="1"/>
        <pt x="251" y="76" on="0"/>
        <pt x="297" y="120" on="0"/>
        <pt x="297" y="151" on="1"/>
        <pt x="297" y="255" on="1"/>
        <pt x="297" y="285" on="0"/>
        <pt x="266" y="322" on="0"/>
        <pt x="235" y="322" on="1"/>
        <pt x="215" y="322" on="1"/>
        <pt x="141" y="322" on="0"/>
        <pt x="55" y="409" on="0"/>
        <pt x="55" y="492" on="1"/>
        <pt x="55" y="530" on="1"/>
        <pt x="55" y="615" on="0"/>
        <pt x="148" y="700" on="0"/>
        <pt x="235" y="700" on="1"/>
        <pt x="368" y="700" on="1"/>
        <pt x="368" y="624" on="1"/>
        <pt x="225" y="624" on="1"/>
        <pt x="188" y="624" on="0"/>
        <pt x="142" y="580" on="0"/>
        <pt x="142" y="549" on="1"/>
        <pt x="142" y="473" on="1"/>
        <pt x="142" y="442" on="0"/>
        <pt x="182" y="401" on="0"/>
        <pt x="214" y="401" on="1"/>
        <pt x="234" y="401" on="1"/>
        <pt x="305" y="401" on="0"/>
        <pt x="384" y="319" on="0"/>
        <pt x="384" y="236" on="1"/>
      </contour>
    </TTGlyph>
    <TTGlyph name="T" xMin="15" yMin="0" xMax="410" yMax="700">
      <contour>
        <pt x="410" y="624" on="1"/>
        <pt x="256" y="624" on="1"/>
        <pt x="256" y="0" on="1"/>
        <pt x="169" y="0" on="1"/>
        <pt x="169" y="624" on="1"/>
        <pt x="15" y="624" on="1"/>
        <pt x="15" y="700" on="1"/>
        <pt x="410" y="700" on="1"/>
      </contour>
    </TTGlyph>
    <TTGlyph name="Thorn" xMin="85" yMin="0" xMax="436" yMax="700">
      <contour>
        <pt x="436" y="300" on="1"/>
        <pt x="436" y="142" on="0"/>
        <pt x="266" y="142" on="1"/>
        <pt x="172" y="142" on="1"/>
        <pt x="172" y="0" on="1"/>
        <pt x="85" y="0" on="1"/>
        <pt x="85" y="700" on="1"/>
        <pt x="172" y="700" on="1"/>
        <pt x="172" y="570" on="1"/>
        <pt x="264" y="570" on="1"/>
        <pt x="436" y="570" on="0"/>
        <pt x="436" y="414" on="1"/>
      </contour>
      <contour>
        <pt x="349" y="290" on="1"/>
        <pt x="349" y="423" on="1"/>
        <pt x="349" y="461" on="0"/>
        <pt x="314" y="495" on="0"/>
        <pt x="276" y="495" on="1"/>
        <pt x="172" y="495" on="1"/>
        <pt x="172" y="217" on="1"/>
        <pt x="276" y="217" on="1"/>
        <pt x="314" y="217" on="0"/>
        <pt x="349" y="252" on="0"/>
      </contour>
    </TTGlyph>
    <TTGlyph name="U" xMin="80" yMin="0" xMax="455" yMax="700">
      <contour>
        <pt x="455" y="170" on="1"/>
        <pt x="455" y="85" on="0"/>
        <pt x="362" y="0" on="0"/>
        <pt x="275" y="0" on="1"/>
        <pt x="260" y="0" on="1"/>
        <pt x="173" y="0" on="0"/>
        <pt x="80" y="85" on="0"/>
        <pt x="80" y="170" on="1"/>
        <pt x="80" y="700" on="1"/>
        <pt x="167" y="700" on="1"/>
        <pt x="167" y="151" on="1"/>
        <pt x="167" y="120" on="0"/>
        <pt x="213" y="76" on="0"/>
        <pt x="250" y="76" on="1"/>
        <pt x="285" y="76" on="1"/>
        <pt x="322" y="76" on="0"/>
        <pt x="368" y="120" on="0"/>
        <pt x="368" y="151" on="1"/>
        <pt x="368" y="700" on="1"/>
        <pt x="455" y="700" on="1"/>
      </contour>
    </TTGlyph>
    <TTGlyph name="Uacute" xMin="75" yMin="0" xMax="450" yMax="841">
      <contour>
        <pt x="289" y="726" on="1"/>
        <pt x="206" y="726" on="1"/>
        <pt x="310" y="841" on="1"/>
        <pt x="421" y="841" on="1"/>
      </contour>
      <contour>
        <pt x="450" y="170" on="1"/>
        <pt x="450" y="85" on="0"/>
        <pt x="357" y="0" on="0"/>
        <pt x="270" y="0" on="1"/>
        <pt x="255" y="0" on="1"/>
        <pt x="168" y="0" on="0"/>
        <pt x="75" y="85" on="0"/>
        <pt x="75" y="170" on="1"/>
        <pt x="75" y="700" on="1"/>
        <pt x="162" y="700" on="1"/>
        <pt x="162" y="151" on="1"/>
        <pt x="162" y="120" on="0"/>
        <pt x="208" y="76" on="0"/>
        <pt x="245" y="76" on="1"/>
        <pt x="280" y="76" on="1"/>
        <pt x="317" y="76" on="0"/>
        <pt x="363" y="120" on="0"/>
        <pt x="363" y="151" on="1"/>
        <pt x="363" y="700" on="1"/>
        <pt x="450" y="700" on="1"/>
      </contour>
    </TTGlyph>
    <TTGlyph name="Ucircumflex" xMin="75" yMin="0" xMax="450" yMax="845">
      <contour>
        <pt x="418" y="730" on="1"/>
        <pt x="321" y="730" on="1"/>
        <pt x="261" y="794" on="1"/>
        <pt x="201" y="730" on="1"/>
        <pt x="105" y="730" on="1"/>
        <pt x="215" y="845" on="1"/>
        <pt x="307" y="845" on="1"/>
      </contour>
      <contour>
        <pt x="450" y="170" on="1"/>
        <pt x="450" y="85" on="0"/>
        <pt x="357" y="0" on="0"/>
        <pt x="270" y="0" on="1"/>
        <pt x="255" y="0" on="1"/>
        <pt x="168" y="0" on="0"/>
        <pt x="75" y="85" on="0"/>
        <pt x="75" y="170" on="1"/>
        <pt x="75" y="700" on="1"/>
        <pt x="162" y="700" on="1"/>
        <pt x="162" y="151" on="1"/>
        <pt x="162" y="120" on="0"/>
        <pt x="208" y="76" on="0"/>
        <pt x="245" y="76" on="1"/>
        <pt x="280" y="76" on="1"/>
        <pt x="317" y="76" on="0"/>
        <pt x="363" y="120" on="0"/>
        <pt x="363" y="151" on="1"/>
        <pt x="363" y="700" on="1"/>
        <pt x="450" y="700" on="1"/>
      </contour>
    </TTGlyph>
    <TTGlyph name="Udieresis" xMin="75" yMin="0" xMax="450" yMax="815">
      <contour>
        <pt x="408" y="735" on="1"/>
        <pt x="323" y="735" on="1"/>
        <pt x="323" y="815" on="1"/>
        <pt x="408" y="815" on="1"/>
      </contour>
      <contour>
        <pt x="208" y="735" on="1"/>
        <pt x="123" y="735" on="1"/>
        <pt x="123" y="815" on="1"/>
        <pt x="208" y="815" on="1"/>
      </contour>
      <contour>
        <pt x="450" y="170" on="1"/>
        <pt x="450" y="85" on="0"/>
        <pt x="357" y="0" on="0"/>
        <pt x="270" y="0" on="1"/>
        <pt x="255" y="0" on="1"/>
        <pt x="168" y="0" on="0"/>
        <pt x="75" y="85" on="0"/>
        <pt x="75" y="170" on="1"/>
        <pt x="75" y="700" on="1"/>
        <pt x="162" y="700" on="1"/>
        <pt x="162" y="151" on="1"/>
        <pt x="162" y="120" on="0"/>
        <pt x="208" y="76" on="0"/>
        <pt x="245" y="76" on="1"/>
        <pt x="280" y="76" on="1"/>
        <pt x="317" y="76" on="0"/>
        <pt x="363" y="120" on="0"/>
        <pt x="363" y="151" on="1"/>
        <pt x="363" y="700" on="1"/>
        <pt x="450" y="700" on="1"/>
      </contour>
    </TTGlyph>
    <TTGlyph name="Ugrave" xMin="75" yMin="0" xMax="450" yMax="841">
      <contour>
        <pt x="336" y="726" on="1"/>
        <pt x="253" y="726" on="1"/>
        <pt x="121" y="841" on="1"/>
        <pt x="232" y="841" on="1"/>
      </contour>
      <contour>
        <pt x="450" y="170" on="1"/>
        <pt x="450" y="85" on="0"/>
        <pt x="357" y="0" on="0"/>
        <pt x="270" y="0" on="1"/>
        <pt x="255" y="0" on="1"/>
        <pt x="168" y="0" on="0"/>
        <pt x="75" y="85" on="0"/>
        <pt x="75" y="170" on="1"/>
        <pt x="75" y="700" on="1"/>
        <pt x="162" y="700" on="1"/>
        <pt x="162" y="151" on="1"/>
        <pt x="162" y="120" on="0"/>
        <pt x="208" y="76" on="0"/>
        <pt x="245" y="76" on="1"/>
        <pt x="280" y="76" on="1"/>
        <pt x="317" y="76" on="0"/>
        <pt x="363" y="120" on="0"/>
        <pt x="363" y="151" on="1"/>
        <pt x="363" y="700" on="1"/>
        <pt x="450" y="700" on="1"/>
      </contour>
    </TTGlyph>
    <TTGlyph name="V" xMin="35" yMin="0" xMax="438" yMax="700">
      <contour>
        <pt x="438" y="700" on="1"/>
        <pt x="291" y="0" on="1"/>
        <pt x="172" y="0" on="1"/>
        <pt x="35" y="700" on="1"/>
        <pt x="123" y="700" on="1"/>
        <pt x="233" y="88" on="1"/>
        <pt x="352" y="700" on="1"/>
      </contour>
    </TTGlyph>
    <TTGlyph name="W" xMin="65" yMin="0" xMax="539" yMax="700">
      <contour>
        <pt x="539" y="700" on="1"/>
        <pt x="505" y="0" on="1"/>
        <pt x="369" y="0" on="1"/>
        <pt x="302" y="304" on="1"/>
        <pt x="229" y="0" on="1"/>
        <pt x="99" y="0" on="1"/>
        <pt x="65" y="700" on="1"/>
        <pt x="142" y="700" on="1"/>
        <pt x="172" y="55" on="1"/>
        <pt x="262" y="405" on="1"/>
        <pt x="344" y="405" on="1"/>
        <pt x="435" y="55" on="1"/>
        <pt x="466" y="700" on="1"/>
      </contour>
    </TTGlyph>
    <TTGlyph name="X" xMin="35" yMin="0" xMax="461" yMax="700">
      <contour>
        <pt x="461" y="0" on="1"/>
        <pt x="363" y="0" on="1"/>
        <pt x="249" y="268" on="1"/>
        <pt x="129" y="0" on="1"/>
        <pt x="35" y="0" on="1"/>
        <pt x="205" y="362" on="1"/>
        <pt x="50" y="700" on="1"/>
        <pt x="145" y="700" on="1"/>
        <pt x="250" y="459" on="1"/>
        <pt x="358" y="700" on="1"/>
        <pt x="451" y="700" on="1"/>
        <pt x="293" y="363" on="1"/>
      </contour>
    </TTGlyph>
    <TTGlyph name="Y" xMin="20" yMin="0" xMax="471" yMax="700">
      <contour>
        <pt x="289" y="0" on="1"/>
        <pt x="199" y="0" on="1"/>
        <pt x="199" y="325" on="1"/>
        <pt x="20" y="700" on="1"/>
        <pt x="116" y="700" on="1"/>
        <pt x="248" y="409" on="1"/>
        <pt x="380" y="700" on="1"/>
        <pt x="471" y="700" on="1"/>
        <pt x="289" y="325" on="1"/>
      </contour>
    </TTGlyph>
    <TTGlyph name="Yacute" xMin="20" yMin="0" xMax="471" yMax="841">
      <contour>
        <pt x="269" y="726" on="1"/>
        <pt x="186" y="726" on="1"/>
        <pt x="290" y="841" on="1"/>
        <pt x="401" y="841" on="1"/>
      </contour>
      <contour>
        <pt x="289" y="0" on="1"/>
        <pt x="199" y="0" on="1"/>
        <pt x="199" y="325" on="1"/>
        <pt x="20" y="700" on="1"/>
        <pt x="116" y="700" on="1"/>
        <pt x="248" y="409" on="1"/>
        <pt x="380" y="700" on="1"/>
        <pt x="471" y="700" on="1"/>
        <pt x="289" y="325" on="1"/>
      </contour>
    </TTGlyph>
    <TTGlyph name="Ydieresis" xMin="20" yMin="0" xMax="471" yMax="815">
      <contour>
        <pt x="289" y="0" on="1"/>
        <pt x="199" y="0" on="1"/>
        <pt x="199" y="325" on="1"/>
        <pt x="20" y="700" on="1"/>
        <pt x="116" y="700" on="1"/>
        <pt x="248" y="409" on="1"/>
        <pt x="380" y="700" on="1"/>
        <pt x="471" y="700" on="1"/>
        <pt x="289" y="325" on="1"/>
      </contour>
      <contour>
        <pt x="392" y="735" on="1"/>
        <pt x="307" y="735" on="1"/>
        <pt x="307" y="815" on="1"/>
        <pt x="392" y="815" on="1"/>
      </contour>
      <contour>
        <pt x="192" y="735" on="1"/>
        <pt x="107" y="735" on="1"/>
        <pt x="107" y="815" on="1"/>
        <pt x="192" y="815" on="1"/>
      </contour>
    </TTGlyph>
    <TTGlyph name="Z" xMin="45" yMin="0" xMax="391" yMax="700">
      <contour>
        <pt x="381" y="74" on="1"/>
        <pt x="381" y="0" on="1"/>
        <pt x="45" y="0" on="1"/>
        <pt x="45" y="88" on="1"/>
        <pt x="303" y="626" on="1"/>
        <pt x="68" y="626" on="1"/>
        <pt x="68" y="700" on="1"/>
        <pt x="391" y="700" on="1"/>
        <pt x="391" y="612" on="1"/>
        <pt x="134" y="74" on="1"/>
      </contour>
    </TTGlyph>
    <TTGlyph name="Zcaron" xMin="45" yMin="0" xMax="391" yMax="845">
      <contour>
        <pt x="72" y="845" on="1"/>
        <pt x="169" y="845" on="1"/>
        <pt x="229" y="778" on="1"/>
        <pt x="289" y="845" on="1"/>
        <pt x="385" y="845" on="1"/>
        <pt x="273" y="730" on="1"/>
        <pt x="185" y="730" on="1"/>
      </contour>
      <contour>
        <pt x="381" y="74" on="1"/>
        <pt x="381" y="0" on="1"/>
        <pt x="45" y="0" on="1"/>
        <pt x="45" y="88" on="1"/>
        <pt x="303" y="626" on="1"/>
        <pt x="68" y="626" on="1"/>
        <pt x="68" y="700" on="1"/>
        <pt x="391" y="700" on="1"/>
        <pt x="391" y="612" on="1"/>
        <pt x="134" y="74" on="1"/>
      </contour>
    </TTGlyph>
    <TTGlyph name="a" xMin="45" yMin="0" xMax="430" yMax="500">
      <contour>
        <pt x="430" y="0" on="1"/>
        <pt x="375" y="0" on="1"/>
        <pt x="345" y="0" on="0"/>
        <pt x="320" y="30" on="1"/>
        <pt x="297" y="0" on="0"/>
        <pt x="259" y="0" on="1"/>
        <pt x="190" y="0" on="1"/>
        <pt x="114" y="0" on="0"/>
        <pt x="45" y="61" on="0"/>
        <pt x="45" y="135" on="1"/>
        <pt x="45" y="155" on="1"/>
        <pt x="45" y="310" on="0"/>
        <pt x="191" y="310" on="1"/>
        <pt x="295" y="310" on="1"/>
        <pt x="295" y="360" on="1"/>
        <pt x="295" y="425" on="0"/>
        <pt x="220" y="425" on="1"/>
        <pt x="85" y="425" on="1"/>
        <pt x="85" y="500" on="1"/>
        <pt x="210" y="500" on="1"/>
        <pt x="297" y="500" on="0"/>
        <pt x="380" y="424" on="0"/>
        <pt x="380" y="340" on="1"/>
        <pt x="380" y="100" on="1"/>
        <pt x="380" y="70" on="0"/>
        <pt x="430" y="70" on="1"/>
      </contour>
      <contour>
        <pt x="249" y="75" on="1"/>
        <pt x="282" y="75" on="0"/>
        <pt x="290" y="93" on="1"/>
        <pt x="295" y="107" on="0"/>
        <pt x="295" y="125" on="1"/>
        <pt x="295" y="235" on="1"/>
        <pt x="190" y="235" on="1"/>
        <pt x="164" y="235" on="0"/>
        <pt x="130" y="201" on="0"/>
        <pt x="130" y="175" on="1"/>
        <pt x="130" y="125" on="1"/>
        <pt x="130" y="99" on="0"/>
        <pt x="154" y="75" on="0"/>
        <pt x="180" y="75" on="1"/>
      </contour>
    </TTGlyph>
    <TTGlyph name="aacute" xMin="45" yMin="0" xMax="430" yMax="715">
      <contour>
        <pt x="430" y="0" on="1"/>
        <pt x="375" y="0" on="1"/>
        <pt x="345" y="0" on="0"/>
        <pt x="320" y="30" on="1"/>
        <pt x="297" y="0" on="0"/>
        <pt x="259" y="0" on="1"/>
        <pt x="190" y="0" on="1"/>
        <pt x="114" y="0" on="0"/>
        <pt x="45" y="61" on="0"/>
        <pt x="45" y="135" on="1"/>
        <pt x="45" y="155" on="1"/>
        <pt x="45" y="310" on="0"/>
        <pt x="191" y="310" on="1"/>
        <pt x="295" y="310" on="1"/>
        <pt x="295" y="360" on="1"/>
        <pt x="295" y="425" on="0"/>
        <pt x="220" y="425" on="1"/>
        <pt x="85" y="425" on="1"/>
        <pt x="85" y="500" on="1"/>
        <pt x="210" y="500" on="1"/>
        <pt x="297" y="500" on="0"/>
        <pt x="380" y="424" on="0"/>
        <pt x="380" y="340" on="1"/>
        <pt x="380" y="100" on="1"/>
        <pt x="380" y="70" on="0"/>
        <pt x="430" y="70" on="1"/>
      </contour>
      <contour>
        <pt x="249" y="75" on="1"/>
        <pt x="282" y="75" on="0"/>
        <pt x="290" y="93" on="1"/>
        <pt x="295" y="107" on="0"/>
        <pt x="295" y="125" on="1"/>
        <pt x="295" y="235" on="1"/>
        <pt x="190" y="235" on="1"/>
        <pt x="164" y="235" on="0"/>
        <pt x="130" y="201" on="0"/>
        <pt x="130" y="175" on="1"/>
        <pt x="130" y="125" on="1"/>
        <pt x="130" y="99" on="0"/>
        <pt x="154" y="75" on="0"/>
        <pt x="180" y="75" on="1"/>
      </contour>
      <contour>
        <pt x="260" y="580" on="1"/>
        <pt x="174" y="580" on="1"/>
        <pt x="278" y="715" on="1"/>
        <pt x="387" y="715" on="1"/>
      </contour>
    </TTGlyph>
    <TTGlyph name="acircumflex" xMin="45" yMin="0" xMax="430" yMax="715">
      <contour>
        <pt x="430" y="0" on="1"/>
        <pt x="375" y="0" on="1"/>
        <pt x="345" y="0" on="0"/>
        <pt x="320" y="30" on="1"/>
        <pt x="297" y="0" on="0"/>
        <pt x="259" y="0" on="1"/>
        <pt x="190" y="0" on="1"/>
        <pt x="114" y="0" on="0"/>
        <pt x="45" y="61" on="0"/>
        <pt x="45" y="135" on="1"/>
        <pt x="45" y="155" on="1"/>
        <pt x="45" y="310" on="0"/>
        <pt x="191" y="310" on="1"/>
        <pt x="295" y="310" on="1"/>
        <pt x="295" y="360" on="1"/>
        <pt x="295" y="425" on="0"/>
        <pt x="220" y="425" on="1"/>
        <pt x="85" y="425" on="1"/>
        <pt x="85" y="500" on="1"/>
        <pt x="210" y="500" on="1"/>
        <pt x="297" y="500" on="0"/>
        <pt x="380" y="424" on="0"/>
        <pt x="380" y="340" on="1"/>
        <pt x="380" y="100" on="1"/>
        <pt x="380" y="70" on="0"/>
        <pt x="430" y="70" on="1"/>
      </contour>
      <contour>
        <pt x="249" y="75" on="1"/>
        <pt x="282" y="75" on="0"/>
        <pt x="290" y="93" on="1"/>
        <pt x="295" y="107" on="0"/>
        <pt x="295" y="125" on="1"/>
        <pt x="295" y="235" on="1"/>
        <pt x="190" y="235" on="1"/>
        <pt x="164" y="235" on="0"/>
        <pt x="130" y="201" on="0"/>
        <pt x="130" y="175" on="1"/>
        <pt x="130" y="125" on="1"/>
        <pt x="130" y="99" on="0"/>
        <pt x="154" y="75" on="0"/>
        <pt x="180" y="75" on="1"/>
      </contour>
      <contour>
        <pt x="377" y="580" on="1"/>
        <pt x="280" y="580" on="1"/>
        <pt x="220" y="655" on="1"/>
        <pt x="160" y="580" on="1"/>
        <pt x="64" y="580" on="1"/>
        <pt x="176" y="715" on="1"/>
        <pt x="264" y="715" on="1"/>
      </contour>
    </TTGlyph>
    <TTGlyph name="acute" xMin="45" yMin="580" xMax="258" yMax="715">
      <contour>
        <pt x="131" y="580" on="1"/>
        <pt x="45" y="580" on="1"/>
        <pt x="149" y="715" on="1"/>
        <pt x="258" y="715" on="1"/>
      </contour>
    </TTGlyph>
    <TTGlyph name="adieresis" xMin="45" yMin="0" xMax="430" yMax="675">
      <contour>
        <pt x="430" y="0" on="1"/>
        <pt x="375" y="0" on="1"/>
        <pt x="345" y="0" on="0"/>
        <pt x="320" y="30" on="1"/>
        <pt x="297" y="0" on="0"/>
        <pt x="259" y="0" on="1"/>
        <pt x="190" y="0" on="1"/>
        <pt x="114" y="0" on="0"/>
        <pt x="45" y="61" on="0"/>
        <pt x="45" y="135" on="1"/>
        <pt x="45" y="155" on="1"/>
        <pt x="45" y="310" on="0"/>
        <pt x="191" y="310" on="1"/>
        <pt x="295" y="310" on="1"/>
        <pt x="295" y="360" on="1"/>
        <pt x="295" y="425" on="0"/>
        <pt x="220" y="425" on="1"/>
        <pt x="85" y="425" on="1"/>
        <pt x="85" y="500" on="1"/>
        <pt x="210" y="500" on="1"/>
        <pt x="297" y="500" on="0"/>
        <pt x="380" y="424" on="0"/>
        <pt x="380" y="340" on="1"/>
        <pt x="380" y="100" on="1"/>
        <pt x="380" y="70" on="0"/>
        <pt x="430" y="70" on="1"/>
      </contour>
      <contour>
        <pt x="249" y="75" on="1"/>
        <pt x="282" y="75" on="0"/>
        <pt x="290" y="93" on="1"/>
        <pt x="295" y="107" on="0"/>
        <pt x="295" y="125" on="1"/>
        <pt x="295" y="235" on="1"/>
        <pt x="190" y="235" on="1"/>
        <pt x="164" y="235" on="0"/>
        <pt x="130" y="201" on="0"/>
        <pt x="130" y="175" on="1"/>
        <pt x="130" y="125" on="1"/>
        <pt x="130" y="99" on="0"/>
        <pt x="154" y="75" on="0"/>
        <pt x="180" y="75" on="1"/>
      </contour>
      <contour>
        <pt x="369" y="595" on="1"/>
        <pt x="284" y="595" on="1"/>
        <pt x="284" y="675" on="1"/>
        <pt x="369" y="675" on="1"/>
      </contour>
      <contour>
        <pt x="169" y="595" on="1"/>
        <pt x="84" y="595" on="1"/>
        <pt x="84" y="675" on="1"/>
        <pt x="169" y="675" on="1"/>
      </contour>
    </TTGlyph>
    <TTGlyph name="ae" xMin="45" yMin="0" xMax="626" yMax="500">
      <contour>
        <pt x="594" y="0" on="1"/>
        <pt x="465" y="0" on="1"/>
        <pt x="374" y="0" on="0"/>
        <pt x="338" y="47" on="1"/>
        <pt x="328" y="28" on="0"/>
        <pt x="284" y="0" on="0"/>
        <pt x="259" y="0" on="1"/>
        <pt x="190" y="0" on="1"/>
        <pt x="114" y="0" on="0"/>
        <pt x="45" y="61" on="0"/>
        <pt x="45" y="135" on="1"/>
        <pt x="45" y="145" on="1"/>
        <pt x="45" y="300" on="0"/>
        <pt x="191" y="300" on="1"/>
        <pt x="295" y="300" on="1"/>
        <pt x="295" y="360" on="1"/>
        <pt x="295" y="425" on="0"/>
        <pt x="220" y="425" on="1"/>
        <pt x="85" y="425" on="1"/>
        <pt x="85" y="500" on="1"/>
        <pt x="210" y="500" on="1"/>
        <pt x="292" y="500" on="0"/>
        <pt x="335" y="463" on="1"/>
        <pt x="374" y="500" on="0"/>
        <pt x="455" y="500" on="1"/>
        <pt x="482" y="500" on="1"/>
        <pt x="626" y="500" on="0"/>
        <pt x="626" y="345" on="1"/>
        <pt x="626" y="225" on="1"/>
        <pt x="380" y="225" on="1"/>
        <pt x="380" y="134" on="1"/>
        <pt x="383" y="75" on="0"/>
        <pt x="455" y="75" on="1"/>
        <pt x="594" y="75" on="1"/>
      </contour>
      <contour>
        <pt x="295" y="125" on="1"/>
        <pt x="295" y="225" on="1"/>
        <pt x="190" y="225" on="1"/>
        <pt x="164" y="225" on="0"/>
        <pt x="130" y="191" on="0"/>
        <pt x="130" y="165" on="1"/>
        <pt x="130" y="125" on="1"/>
        <pt x="130" y="99" on="0"/>
        <pt x="154" y="75" on="0"/>
        <pt x="180" y="75" on="1"/>
        <pt x="249" y="75" on="1"/>
        <pt x="282" y="75" on="0"/>
        <pt x="290" y="93" on="1"/>
        <pt x="295" y="107" on="0"/>
      </contour>
      <contour>
        <pt x="380" y="360" on="1"/>
        <pt x="380" y="300" on="1"/>
        <pt x="543" y="300" on="1"/>
        <pt x="543" y="365" on="1"/>
        <pt x="543" y="391" on="0"/>
        <pt x="509" y="425" on="0"/>
        <pt x="483" y="425" on="1"/>
        <pt x="445" y="425" on="1"/>
        <pt x="409" y="425" on="0"/>
        <pt x="380" y="392" on="0"/>
      </contour>
    </TTGlyph>
    <TTGlyph name="agrave" xMin="45" yMin="0" xMax="430" yMax="715">
      <contour>
        <pt x="430" y="0" on="1"/>
        <pt x="375" y="0" on="1"/>
        <pt x="345" y="0" on="0"/>
        <pt x="320" y="30" on="1"/>
        <pt x="297" y="0" on="0"/>
        <pt x="259" y="0" on="1"/>
        <pt x="190" y="0" on="1"/>
        <pt x="114" y="0" on="0"/>
        <pt x="45" y="61" on="0"/>
        <pt x="45" y="135" on="1"/>
        <pt x="45" y="155" on="1"/>
        <pt x="45" y="310" on="0"/>
        <pt x="191" y="310" on="1"/>
        <pt x="295" y="310" on="1"/>
        <pt x="295" y="360" on="1"/>
        <pt x="295" y="425" on="0"/>
        <pt x="220" y="425" on="1"/>
        <pt x="85" y="425" on="1"/>
        <pt x="85" y="500" on="1"/>
        <pt x="210" y="500" on="1"/>
        <pt x="297" y="500" on="0"/>
        <pt x="380" y="424" on="0"/>
        <pt x="380" y="340" on="1"/>
        <pt x="380" y="100" on="1"/>
        <pt x="380" y="70" on="0"/>
        <pt x="430" y="70" on="1"/>
      </contour>
      <contour>
        <pt x="249" y="75" on="1"/>
        <pt x="282" y="75" on="0"/>
        <pt x="290" y="93" on="1"/>
        <pt x="295" y="107" on="0"/>
        <pt x="295" y="125" on="1"/>
        <pt x="295" y="235" on="1"/>
        <pt x="190" y="235" on="1"/>
        <pt x="164" y="235" on="0"/>
        <pt x="130" y="201" on="0"/>
        <pt x="130" y="175" on="1"/>
        <pt x="130" y="125" on="1"/>
        <pt x="130" y="99" on="0"/>
        <pt x="154" y="75" on="0"/>
        <pt x="180" y="75" on="1"/>
      </contour>
      <contour>
        <pt x="326" y="580" on="1"/>
        <pt x="240" y="580" on="1"/>
        <pt x="113" y="715" on="1"/>
        <pt x="222" y="715" on="1"/>
      </contour>
    </TTGlyph>
    <TTGlyph name="ampersand" xMin="69" yMin="0" xMax="482" yMax="700">
      <contour>
        <pt x="403" y="0" on="1"/>
        <pt x="239" y="0" on="1"/>
        <pt x="149" y="0" on="0"/>
        <pt x="69" y="75" on="0"/>
        <pt x="69" y="158" on="1"/>
        <pt x="69" y="284" on="1"/>
        <pt x="69" y="371" on="0"/>
        <pt x="134" y="407" on="1"/>
        <pt x="79" y="446" on="0"/>
        <pt x="79" y="523" on="1"/>
        <pt x="79" y="544" on="1"/>
        <pt x="79" y="700" on="0"/>
        <pt x="251" y="700" on="1"/>
        <pt x="357" y="700" on="1"/>
        <pt x="357" y="625" on="1"/>
        <pt x="239" y="625" on="1"/>
        <pt x="201" y="625" on="0"/>
        <pt x="166" y="591" on="0"/>
        <pt x="166" y="553" on="1"/>
        <pt x="166" y="513" on="1"/>
        <pt x="166" y="480" on="0"/>
        <pt x="208" y="440" on="0"/>
        <pt x="239" y="440" on="1"/>
        <pt x="482" y="440" on="1"/>
        <pt x="482" y="365" on="1"/>
        <pt x="403" y="365" on="1"/>
      </contour>
      <contour>
        <pt x="229" y="365" on="1"/>
        <pt x="196" y="365" on="0"/>
        <pt x="156" y="326" on="0"/>
        <pt x="156" y="293" on="1"/>
        <pt x="156" y="148" on="1"/>
        <pt x="156" y="110" on="0"/>
        <pt x="192" y="75" on="0"/>
        <pt x="230" y="75" on="1"/>
        <pt x="322" y="75" on="1"/>
        <pt x="322" y="365" on="1"/>
      </contour>
    </TTGlyph>
    <TTGlyph name="approxequal" xMin="85" yMin="170" xMax="425" yMax="458">
      <contour>
        <pt x="182" y="458" on="1"/>
        <pt x="197" y="458" on="1"/>
        <pt x="209" y="458" on="0"/>
        <pt x="317" y="418" on="0"/>
        <pt x="328" y="418" on="1"/>
        <pt x="338" y="418" on="1"/>
        <pt x="349" y="418" on="0"/>
        <pt x="406" y="445" on="1"/>
        <pt x="425" y="454" on="1"/>
        <pt x="425" y="374" on="1"/>
        <pt x="354" y="339" on="0"/>
        <pt x="337" y="339" on="1"/>
        <pt x="322" y="339" on="1"/>
        <pt x="316" y="339" on="0"/>
        <pt x="203" y="379" on="0"/>
        <pt x="192" y="379" on="1"/>
        <pt x="182" y="379" on="1"/>
        <pt x="169" y="379" on="0"/>
        <pt x="106" y="352" on="1"/>
        <pt x="85" y="343" on="1"/>
        <pt x="85" y="423" on="1"/>
        <pt x="163" y="458" on="0"/>
      </contour>
      <contour>
        <pt x="182" y="289" on="1"/>
        <pt x="197" y="289" on="1"/>
        <pt x="209" y="289" on="0"/>
        <pt x="317" y="249" on="0"/>
        <pt x="328" y="249" on="1"/>
        <pt x="338" y="249" on="1"/>
        <pt x="349" y="249" on="0"/>
        <pt x="406" y="276" on="1"/>
        <pt x="425" y="285" on="1"/>
        <pt x="425" y="205" on="1"/>
        <pt x="354" y="170" on="0"/>
        <pt x="337" y="170" on="1"/>
        <pt x="322" y="170" on="1"/>
        <pt x="316" y="170" on="0"/>
        <pt x="203" y="210" on="0"/>
        <pt x="192" y="210" on="1"/>
        <pt x="182" y="210" on="1"/>
        <pt x="169" y="210" on="0"/>
        <pt x="106" y="183" on="1"/>
        <pt x="85" y="174" on="1"/>
        <pt x="85" y="254" on="1"/>
        <pt x="163" y="289" on="0"/>
      </contour>
    </TTGlyph>
    <TTGlyph name="aring" xMin="45" yMin="0" xMax="430" yMax="747">
      <contour>
        <pt x="305" y="633" on="1"/>
        <pt x="305" y="592" on="0"/>
        <pt x="255" y="548" on="0"/>
        <pt x="216" y="548" on="1"/>
        <pt x="210" y="548" on="1"/>
        <pt x="171" y="548" on="0"/>
        <pt x="121" y="592" on="0"/>
        <pt x="121" y="633" on="1"/>
        <pt x="121" y="662" on="1"/>
        <pt x="121" y="704" on="0"/>
        <pt x="170" y="747" on="0"/>
        <pt x="210" y="747" on="1"/>
        <pt x="216" y="747" on="1"/>
        <pt x="256" y="747" on="0"/>
        <pt x="305" y="704" on="0"/>
        <pt x="305" y="662" on="1"/>
      </contour>
      <contour>
        <pt x="248" y="632" on="1"/>
        <pt x="248" y="663" on="1"/>
        <pt x="248" y="701" on="0"/>
        <pt x="216" y="701" on="1"/>
        <pt x="210" y="701" on="1"/>
        <pt x="176" y="701" on="0"/>
        <pt x="176" y="663" on="1"/>
        <pt x="176" y="632" on="1"/>
        <pt x="176" y="594" on="0"/>
        <pt x="210" y="594" on="1"/>
        <pt x="216" y="594" on="1"/>
        <pt x="248" y="594" on="0"/>
      </contour>
      <contour>
        <pt x="430" y="0" on="1"/>
        <pt x="375" y="0" on="1"/>
        <pt x="345" y="0" on="0"/>
        <pt x="320" y="30" on="1"/>
        <pt x="297" y="0" on="0"/>
        <pt x="259" y="0" on="1"/>
        <pt x="190" y="0" on="1"/>
        <pt x="114" y="0" on="0"/>
        <pt x="45" y="61" on="0"/>
        <pt x="45" y="135" on="1"/>
        <pt x="45" y="155" on="1"/>
        <pt x="45" y="310" on="0"/>
        <pt x="191" y="310" on="1"/>
        <pt x="295" y="310" on="1"/>
        <pt x="295" y="360" on="1"/>
        <pt x="295" y="425" on="0"/>
        <pt x="220" y="425" on="1"/>
        <pt x="85" y="425" on="1"/>
        <pt x="85" y="500" on="1"/>
        <pt x="210" y="500" on="1"/>
        <pt x="297" y="500" on="0"/>
        <pt x="380" y="424" on="0"/>
        <pt x="380" y="340" on="1"/>
        <pt x="380" y="100" on="1"/>
        <pt x="380" y="70" on="0"/>
        <pt x="430" y="70" on="1"/>
      </contour>
      <contour>
        <pt x="249" y="75" on="1"/>
        <pt x="282" y="75" on="0"/>
        <pt x="290" y="93" on="1"/>
        <pt x="295" y="107" on="0"/>
        <pt x="295" y="125" on="1"/>
        <pt x="295" y="235" on="1"/>
        <pt x="190" y="235" on="1"/>
        <pt x="164" y="235" on="0"/>
        <pt x="130" y="201" on="0"/>
        <pt x="130" y="175" on="1"/>
        <pt x="130" y="125" on="1"/>
        <pt x="130" y="99" on="0"/>
        <pt x="154" y="75" on="0"/>
        <pt x="180" y="75" on="1"/>
      </contour>
    </TTGlyph>
    <TTGlyph name="asciicircum" xMin="45" yMin="420" xMax="442" yMax="760">
      <contour>
        <pt x="442" y="420" on="1"/>
        <pt x="351" y="420" on="1"/>
        <pt x="247" y="700" on="1"/>
        <pt x="133" y="420" on="1"/>
        <pt x="45" y="420" on="1"/>
        <pt x="189" y="760" on="1"/>
        <pt x="303" y="760" on="1"/>
      </contour>
    </TTGlyph>
    <TTGlyph name="asciitilde" xMin="85" yMin="262" xMax="425" yMax="381">
      <contour>
        <pt x="182" y="381" on="1"/>
        <pt x="197" y="381" on="1"/>
        <pt x="209" y="381" on="0"/>
        <pt x="317" y="341" on="0"/>
        <pt x="328" y="341" on="1"/>
        <pt x="338" y="341" on="1"/>
        <pt x="349" y="341" on="0"/>
        <pt x="406" y="368" on="1"/>
        <pt x="425" y="377" on="1"/>
        <pt x="425" y="297" on="1"/>
        <pt x="354" y="262" on="0"/>
        <pt x="337" y="262" on="1"/>
        <pt x="322" y="262" on="1"/>
        <pt x="316" y="262" on="0"/>
        <pt x="203" y="302" on="0"/>
        <pt x="192" y="302" on="1"/>
        <pt x="182" y="302" on="1"/>
        <pt x="169" y="302" on="0"/>
        <pt x="106" y="275" on="1"/>
        <pt x="85" y="266" on="1"/>
        <pt x="85" y="346" on="1"/>
        <pt x="163" y="381" on="0"/>
      </contour>
    </TTGlyph>
    <TTGlyph name="asterisk" xMin="40" yMin="340" xMax="440" yMax="722">
      <contour>
        <pt x="440" y="546" on="1"/>
        <pt x="293" y="515" on="1"/>
        <pt x="399" y="392" on="1"/>
        <pt x="327" y="340" on="1"/>
        <pt x="239" y="482" on="1"/>
        <pt x="148" y="340" on="1"/>
        <pt x="78" y="393" on="1"/>
        <pt x="185" y="515" on="1"/>
        <pt x="40" y="547" on="1"/>
        <pt x="67" y="627" on="1"/>
        <pt x="208" y="570" on="1"/>
        <pt x="195" y="722" on="1"/>
        <pt x="285" y="722" on="1"/>
        <pt x="272" y="570" on="1"/>
        <pt x="415" y="625" on="1"/>
      </contour>
    </TTGlyph>
    <TTGlyph name="at" xMin="95" yMin="0" xMax="720" yMax="700">
      <contour>
        <pt x="561" y="0" on="1"/>
        <pt x="275" y="0" on="1"/>
        <pt x="188" y="0" on="0"/>
        <pt x="95" y="85" on="0"/>
        <pt x="95" y="170" on="1"/>
        <pt x="95" y="520" on="1"/>
        <pt x="95" y="606" on="0"/>
        <pt x="189" y="700" on="0"/>
        <pt x="275" y="700" on="1"/>
        <pt x="540" y="700" on="1"/>
        <pt x="626" y="700" on="0"/>
        <pt x="720" y="606" on="0"/>
        <pt x="720" y="520" on="1"/>
        <pt x="720" y="250" on="1"/>
        <pt x="720" y="115" on="0"/>
        <pt x="593" y="115" on="1"/>
        <pt x="564" y="115" on="0"/>
        <pt x="502" y="149" on="0"/>
        <pt x="488" y="184" on="1"/>
        <pt x="452" y="144" on="0"/>
        <pt x="375" y="144" on="1"/>
        <pt x="241" y="144" on="0"/>
        <pt x="241" y="275" on="1"/>
        <pt x="241" y="393" on="1"/>
        <pt x="241" y="473" on="0"/>
        <pt x="329" y="539" on="0"/>
        <pt x="418" y="539" on="1"/>
        <pt x="552" y="539" on="1"/>
        <pt x="552" y="217" on="1"/>
        <pt x="552" y="201" on="0"/>
        <pt x="576" y="180" on="0"/>
        <pt x="596" y="180" on="1"/>
        <pt x="637" y="180" on="0"/>
        <pt x="637" y="230" on="1"/>
        <pt x="637" y="540" on="1"/>
        <pt x="637" y="577" on="0"/>
        <pt x="588" y="627" on="0"/>
        <pt x="550" y="627" on="1"/>
        <pt x="265" y="627" on="1"/>
        <pt x="227" y="627" on="0"/>
        <pt x="178" y="578" on="0"/>
        <pt x="178" y="540" on="1"/>
        <pt x="178" y="150" on="1"/>
        <pt x="178" y="119" on="0"/>
        <pt x="228" y="73" on="0"/>
        <pt x="265" y="73" on="1"/>
        <pt x="561" y="73" on="1"/>
      </contour>
      <contour>
        <pt x="321" y="279" on="1"/>
        <pt x="321" y="212" on="0"/>
        <pt x="472" y="212" on="0"/>
        <pt x="472" y="264" on="1"/>
        <pt x="472" y="472" on="1"/>
        <pt x="407" y="472" on="1"/>
        <pt x="362" y="472" on="0"/>
        <pt x="321" y="436" on="0"/>
        <pt x="321" y="389" on="1"/>
      </contour>
    </TTGlyph>
    <TTGlyph name="atilde" xMin="45" yMin="0" xMax="430" yMax="700">
      <contour>
        <pt x="430" y="0" on="1"/>
        <pt x="375" y="0" on="1"/>
        <pt x="345" y="0" on="0"/>
        <pt x="320" y="30" on="1"/>
        <pt x="297" y="0" on="0"/>
        <pt x="259" y="0" on="1"/>
        <pt x="190" y="0" on="1"/>
        <pt x="114" y="0" on="0"/>
        <pt x="45" y="61" on="0"/>
        <pt x="45" y="135" on="1"/>
        <pt x="45" y="155" on="1"/>
        <pt x="45" y="310" on="0"/>
        <pt x="191" y="310" on="1"/>
        <pt x="295" y="310" on="1"/>
        <pt x="295" y="360" on="1"/>
        <pt x="295" y="425" on="0"/>
        <pt x="220" y="425" on="1"/>
        <pt x="85" y="425" on="1"/>
        <pt x="85" y="500" on="1"/>
        <pt x="210" y="500" on="1"/>
        <pt x="297" y="500" on="0"/>
        <pt x="380" y="424" on="0"/>
        <pt x="380" y="340" on="1"/>
        <pt x="380" y="100" on="1"/>
        <pt x="380" y="70" on="0"/>
        <pt x="430" y="70" on="1"/>
      </contour>
      <contour>
        <pt x="249" y="75" on="1"/>
        <pt x="282" y="75" on="0"/>
        <pt x="290" y="93" on="1"/>
        <pt x="295" y="107" on="0"/>
        <pt x="295" y="125" on="1"/>
        <pt x="295" y="235" on="1"/>
        <pt x="190" y="235" on="1"/>
        <pt x="164" y="235" on="0"/>
        <pt x="130" y="201" on="0"/>
        <pt x="130" y="175" on="1"/>
        <pt x="130" y="125" on="1"/>
        <pt x="130" y="99" on="0"/>
        <pt x="154" y="75" on="0"/>
        <pt x="180" y="75" on="1"/>
      </contour>
      <contour>
        <pt x="162" y="700" on="1"/>
        <pt x="177" y="700" on="1"/>
        <pt x="189" y="700" on="0"/>
        <pt x="277" y="660" on="0"/>
        <pt x="288" y="660" on="1"/>
        <pt x="298" y="660" on="1"/>
        <pt x="309" y="660" on="0"/>
        <pt x="351" y="687" on="1"/>
        <pt x="365" y="696" on="1"/>
        <pt x="365" y="624" on="1"/>
        <pt x="314" y="591" on="0"/>
        <pt x="297" y="591" on="1"/>
        <pt x="282" y="591" on="1"/>
        <pt x="276" y="591" on="0"/>
        <pt x="183" y="631" on="0"/>
        <pt x="172" y="631" on="1"/>
        <pt x="162" y="631" on="1"/>
        <pt x="149" y="631" on="0"/>
        <pt x="101" y="604" on="1"/>
        <pt x="85" y="595" on="1"/>
        <pt x="85" y="667" on="1"/>
        <pt x="143" y="700" on="0"/>
      </contour>
    </TTGlyph>
    <TTGlyph name="b" xMin="80" yMin="0" xMax="426" yMax="700">
      <contour>
        <pt x="426" y="160" on="1"/>
        <pt x="426" y="76" on="0"/>
        <pt x="343" y="0" on="0"/>
        <pt x="256" y="0" on="1"/>
        <pt x="80" y="0" on="1"/>
        <pt x="80" y="700" on="1"/>
        <pt x="165" y="700" on="1"/>
        <pt x="165" y="480" on="1"/>
        <pt x="195" y="500" on="0"/>
        <pt x="240" y="500" on="1"/>
        <pt x="256" y="500" on="1"/>
        <pt x="344" y="500" on="0"/>
        <pt x="426" y="425" on="0"/>
        <pt x="426" y="340" on="1"/>
      </contour>
      <contour>
        <pt x="230" y="425" on="1"/>
        <pt x="197" y="425" on="0"/>
        <pt x="165" y="390" on="0"/>
        <pt x="165" y="370" on="1"/>
        <pt x="165" y="75" on="1"/>
        <pt x="266" y="75" on="1"/>
        <pt x="341" y="75" on="0"/>
        <pt x="341" y="140" on="1"/>
        <pt x="341" y="360" on="1"/>
        <pt x="341" y="425" on="0"/>
        <pt x="266" y="425" on="1"/>
      </contour>
    </TTGlyph>
    <TTGlyph name="backslash" xMin="5" yMin="-110" xMax="320" yMax="810">
      <contour>
        <pt x="241" y="-110" on="1"/>
        <pt x="5" y="810" on="1"/>
        <pt x="84" y="810" on="1"/>
        <pt x="320" y="-110" on="1"/>
      </contour>
    </TTGlyph>
    <TTGlyph name="bar" xMin="105" yMin="-110" xMax="185" yMax="810">
      <contour>
        <pt x="185" y="-110" on="1"/>
        <pt x="105" y="-110" on="1"/>
        <pt x="105" y="810" on="1"/>
        <pt x="185" y="810" on="1"/>
      </contour>
    </TTGlyph>
    <TTGlyph name="braceleft" xMin="40" yMin="-120" xMax="265" yMax="820">
      <contour>
        <pt x="40" y="295" on="1"/>
        <pt x="40" y="405" on="1"/>
        <pt x="80" y="405" on="0"/>
        <pt x="111" y="430" on="0"/>
        <pt x="111" y="469" on="1"/>
        <pt x="111" y="698" on="1"/>
        <pt x="111" y="765" on="0"/>
        <pt x="161" y="820" on="0"/>
        <pt x="220" y="820" on="1"/>
        <pt x="265" y="820" on="1"/>
        <pt x="265" y="750" on="1"/>
        <pt x="234" y="750" on="1"/>
        <pt x="210" y="750" on="0"/>
        <pt x="189" y="735" on="0"/>
        <pt x="189" y="713" on="1"/>
        <pt x="189" y="469" on="1"/>
        <pt x="189" y="419" on="0"/>
        <pt x="140" y="355" on="0"/>
        <pt x="104" y="349" on="1"/>
        <pt x="140" y="345" on="0"/>
        <pt x="189" y="281" on="0"/>
        <pt x="189" y="231" on="1"/>
        <pt x="189" y="-13" on="1"/>
        <pt x="189" y="-35" on="0"/>
        <pt x="210" y="-50" on="0"/>
        <pt x="234" y="-50" on="1"/>
        <pt x="265" y="-50" on="1"/>
        <pt x="265" y="-120" on="1"/>
        <pt x="220" y="-120" on="1"/>
        <pt x="161" y="-120" on="0"/>
        <pt x="111" y="-65" on="0"/>
        <pt x="111" y="2" on="1"/>
        <pt x="111" y="231" on="1"/>
        <pt x="111" y="270" on="0"/>
        <pt x="80" y="295" on="0"/>
      </contour>
    </TTGlyph>
    <TTGlyph name="braceright" xMin="61" yMin="-120" xMax="286" yMax="820">
      <contour>
        <pt x="286" y="405" on="1"/>
        <pt x="286" y="295" on="1"/>
        <pt x="246" y="295" on="0"/>
        <pt x="215" y="270" on="0"/>
        <pt x="215" y="231" on="1"/>
        <pt x="215" y="2" on="1"/>
        <pt x="215" y="-65" on="0"/>
        <pt x="165" y="-120" on="0"/>
        <pt x="106" y="-120" on="1"/>
        <pt x="61" y="-120" on="1"/>
        <pt x="61" y="-50" on="1"/>
        <pt x="92" y="-50" on="1"/>
        <pt x="116" y="-50" on="0"/>
        <pt x="137" y="-35" on="0"/>
        <pt x="137" y="-13" on="1"/>
        <pt x="137" y="231" on="1"/>
        <pt x="137" y="281" on="0"/>
        <pt x="186" y="345" on="0"/>
        <pt x="222" y="349" on="1"/>
        <pt x="186" y="355" on="0"/>
        <pt x="137" y="419" on="0"/>
        <pt x="137" y="469" on="1"/>
        <pt x="137" y="713" on="1"/>
        <pt x="137" y="735" on="0"/>
        <pt x="116" y="750" on="0"/>
        <pt x="92" y="750" on="1"/>
        <pt x="61" y="750" on="1"/>
        <pt x="61" y="820" on="1"/>
        <pt x="106" y="820" on="1"/>
        <pt x="165" y="820" on="0"/>
        <pt x="215" y="765" on="0"/>
        <pt x="215" y="698" on="1"/>
        <pt x="215" y="469" on="1"/>
        <pt x="215" y="430" on="0"/>
        <pt x="246" y="405" on="0"/>
      </contour>
    </TTGlyph>
    <TTGlyph name="bracketleft" xMin="85" yMin="-120" xMax="275" yMax="820">
      <contour>
        <pt x="275" y="-120" on="1"/>
        <pt x="85" y="-120" on="1"/>
        <pt x="85" y="820" on="1"/>
        <pt x="275" y="820" on="1"/>
        <pt x="275" y="745" on="1"/>
        <pt x="165" y="745" on="1"/>
        <pt x="165" y="-45" on="1"/>
        <pt x="275" y="-45" on="1"/>
      </contour>
    </TTGlyph>
    <TTGlyph name="bracketright" xMin="50" yMin="-120" xMax="240" yMax="820">
      <contour>
        <pt x="240" y="-120" on="1"/>
        <pt x="50" y="-120" on="1"/>
        <pt x="50" y="-45" on="1"/>
        <pt x="160" y="-45" on="1"/>
        <pt x="160" y="745" on="1"/>
        <pt x="50" y="745" on="1"/>
        <pt x="50" y="820" on="1"/>
        <pt x="240" y="820" on="1"/>
      </contour>
    </TTGlyph>
    <TTGlyph name="breve" xMin="35" yMin="585" xMax="319" yMax="715">
      <contour>
        <pt x="187" y="649" on="1"/>
        <pt x="217" y="649" on="0"/>
        <pt x="237" y="683" on="0"/>
        <pt x="237" y="715" on="1"/>
        <pt x="319" y="715" on="1"/>
        <pt x="319" y="664" on="0"/>
        <pt x="258" y="585" on="0"/>
        <pt x="187" y="585" on="1"/>
        <pt x="167" y="585" on="1"/>
        <pt x="96" y="585" on="0"/>
        <pt x="35" y="664" on="0"/>
        <pt x="35" y="715" on="1"/>
        <pt x="117" y="715" on="1"/>
        <pt x="117" y="683" on="0"/>
        <pt x="137" y="649" on="0"/>
        <pt x="167" y="649" on="1"/>
      </contour>
    </TTGlyph>
    <TTGlyph name="brokenbar" xMin="105" yMin="-110" xMax="185" yMax="810">
      <contour>
        <pt x="185" y="-110" on="1"/>
        <pt x="105" y="-110" on="1"/>
        <pt x="105" y="250" on="1"/>
        <pt x="185" y="250" on="1"/>
      </contour>
      <contour>
        <pt x="185" y="450" on="1"/>
        <pt x="105" y="450" on="1"/>
        <pt x="105" y="810" on="1"/>
        <pt x="185" y="810" on="1"/>
      </contour>
    </TTGlyph>
    <TTGlyph name="bullet" xMin="70" yMin="235" xMax="220" yMax="390">
      <contour>
        <pt x="220" y="235" on="1"/>
        <pt x="70" y="235" on="1"/>
        <pt x="70" y="390" on="1"/>
        <pt x="220" y="390" on="1"/>
      </contour>
    </TTGlyph>
    <TTGlyph name="c" xMin="70" yMin="0" xMax="349" yMax="500">
      <contour>
        <pt x="349" y="0" on="1"/>
        <pt x="240" y="0" on="1"/>
        <pt x="152" y="0" on="0"/>
        <pt x="70" y="75" on="0"/>
        <pt x="70" y="160" on="1"/>
        <pt x="70" y="340" on="1"/>
        <pt x="70" y="424" on="0"/>
        <pt x="153" y="500" on="0"/>
        <pt x="240" y="500" on="1"/>
        <pt x="349" y="500" on="1"/>
        <pt x="349" y="425" on="1"/>
        <pt x="230" y="425" on="1"/>
        <pt x="155" y="425" on="0"/>
        <pt x="155" y="360" on="1"/>
        <pt x="155" y="140" on="1"/>
        <pt x="155" y="75" on="0"/>
        <pt x="230" y="75" on="1"/>
        <pt x="349" y="75" on="1"/>
      </contour>
    </TTGlyph>
    <TTGlyph name="caron" xMin="35" yMin="579" xMax="348" yMax="714">
      <contour>
        <pt x="35" y="714" on="1"/>
        <pt x="132" y="714" on="1"/>
        <pt x="192" y="639" on="1"/>
        <pt x="252" y="714" on="1"/>
        <pt x="348" y="714" on="1"/>
        <pt x="236" y="579" on="1"/>
        <pt x="148" y="579" on="1"/>
      </contour>
    </TTGlyph>
    <TTGlyph name="ccedilla" xMin="70" yMin="-200" xMax="349" yMax="500">
      <contour>
        <pt x="252" y="-200" on="1"/>
        <pt x="167" y="-200" on="1"/>
        <pt x="167" y="-136" on="1"/>
        <pt x="234" y="-136" on="1"/>
        <pt x="267" y="-136" on="0"/>
        <pt x="267" y="-105" on="1"/>
        <pt x="267" y="-88" on="0"/>
        <pt x="250" y="-76" on="0"/>
        <pt x="232" y="-76" on="1"/>
        <pt x="183" y="-76" on="1"/>
        <pt x="183" y="4" on="1"/>
        <pt x="70" y="25" on="0"/>
        <pt x="70" y="160" on="1"/>
        <pt x="70" y="340" on="1"/>
        <pt x="70" y="424" on="0"/>
        <pt x="153" y="500" on="0"/>
        <pt x="240" y="500" on="1"/>
        <pt x="349" y="500" on="1"/>
        <pt x="349" y="425" on="1"/>
        <pt x="230" y="425" on="1"/>
        <pt x="155" y="425" on="0"/>
        <pt x="155" y="360" on="1"/>
        <pt x="155" y="140" on="1"/>
        <pt x="155" y="75" on="0"/>
        <pt x="230" y="75" on="1"/>
        <pt x="349" y="75" on="1"/>
        <pt x="349" y="0" on="1"/>
        <pt x="253" y="0" on="1"/>
        <pt x="253" y="-21" on="1"/>
        <pt x="299" y="-21" on="0"/>
        <pt x="340" y="-56" on="0"/>
        <pt x="340" y="-136" on="0"/>
        <pt x="323" y="-177" on="0"/>
        <pt x="308" y="-186" on="1"/>
        <pt x="284" y="-200" on="0"/>
      </contour>
    </TTGlyph>
    <TTGlyph name="cedilla" xMin="64" yMin="-200" xMax="237" yMax="50">
      <contour>
        <pt x="149" y="-200" on="1"/>
        <pt x="64" y="-200" on="1"/>
        <pt x="64" y="-136" on="1"/>
        <pt x="131" y="-136" on="1"/>
        <pt x="164" y="-136" on="0"/>
        <pt x="164" y="-105" on="1"/>
        <pt x="164" y="-88" on="0"/>
        <pt x="147" y="-76" on="0"/>
        <pt x="129" y="-76" on="1"/>
        <pt x="80" y="-76" on="1"/>
        <pt x="80" y="50" on="1"/>
        <pt x="150" y="50" on="1"/>
        <pt x="150" y="-21" on="1"/>
        <pt x="196" y="-21" on="0"/>
        <pt x="237" y="-56" on="0"/>
        <pt x="237" y="-136" on="0"/>
        <pt x="220" y="-177" on="0"/>
        <pt x="206" y="-186" on="1"/>
        <pt x="181" y="-200" on="0"/>
      </contour>
    </TTGlyph>
    <TTGlyph name="cent" xMin="99" yMin="-110" xMax="378" yMax="600">
      <contour>
        <pt x="317" y="-110" on="1"/>
        <pt x="237" y="-110" on="1"/>
        <pt x="237" y="0" on="1"/>
        <pt x="166" y="6" on="0"/>
        <pt x="99" y="82" on="0"/>
        <pt x="99" y="159" on="1"/>
        <pt x="99" y="339" on="1"/>
        <pt x="99" y="416" on="0"/>
        <pt x="166" y="491" on="0"/>
        <pt x="237" y="497" on="1"/>
        <pt x="237" y="600" on="1"/>
        <pt x="317" y="600" on="1"/>
        <pt x="317" y="499" on="1"/>
        <pt x="378" y="499" on="1"/>
        <pt x="378" y="424" on="1"/>
        <pt x="259" y="424" on="1"/>
        <pt x="184" y="424" on="0"/>
        <pt x="184" y="359" on="1"/>
        <pt x="184" y="139" on="1"/>
        <pt x="184" y="74" on="0"/>
        <pt x="259" y="74" on="1"/>
        <pt x="378" y="74" on="1"/>
        <pt x="378" y="-1" on="1"/>
        <pt x="317" y="-1" on="1"/>
      </contour>
    </TTGlyph>
    <TTGlyph name="circumflex" xMin="35" yMin="580" xMax="348" yMax="715">
      <contour>
        <pt x="348" y="580" on="1"/>
        <pt x="251" y="580" on="1"/>
        <pt x="191" y="655" on="1"/>
        <pt x="131" y="580" on="1"/>
        <pt x="35" y="580" on="1"/>
        <pt x="147" y="715" on="1"/>
        <pt x="235" y="715" on="1"/>
      </contour>
    </TTGlyph>
    <TTGlyph name="colon" xMin="65" yMin="0" xMax="165" yMax="500">
      <contour>
        <pt x="165" y="0" on="1"/>
        <pt x="65" y="0" on="1"/>
        <pt x="65" y="100" on="1"/>
        <pt x="165" y="100" on="1"/>
      </contour>
      <contour>
        <pt x="165" y="400" on="1"/>
        <pt x="65" y="400" on="1"/>
        <pt x="65" y="500" on="1"/>
        <pt x="165" y="500" on="1"/>
      </contour>
    </TTGlyph>
    <TTGlyph name="comma" xMin="25" yMin="-140" xMax="165" yMax="100">
      <contour>
        <pt x="65" y="100" on="1"/>
        <pt x="165" y="100" on="1"/>
        <pt x="165" y="0" on="1"/>
        <pt x="103" y="-140" on="1"/>
        <pt x="25" y="-140" on="1"/>
        <pt x="65" y="0" on="1"/>
      </contour>
    </TTGlyph>
    <TTGlyph name="copyright" xMin="105" yMin="0" xMax="695" yMax="700">
      <contour>
        <pt x="695" y="170" on="1"/>
        <pt x="695" y="87" on="0"/>
        <pt x="604" y="0" on="0"/>
        <pt x="527" y="0" on="1"/>
        <pt x="273" y="0" on="1"/>
        <pt x="196" y="0" on="0"/>
        <pt x="105" y="87" on="0"/>
        <pt x="105" y="170" on="1"/>
        <pt x="105" y="530" on="1"/>
        <pt x="105" y="614" on="0"/>
        <pt x="195" y="700" on="0"/>
        <pt x="273" y="700" on="1"/>
        <pt x="527" y="700" on="1"/>
        <pt x="605" y="700" on="0"/>
        <pt x="695" y="614" on="0"/>
        <pt x="695" y="530" on="1"/>
      </contour>
      <contour>
        <pt x="477" y="157" on="1"/>
        <pt x="403" y="157" on="1"/>
        <pt x="295" y="157" on="0"/>
        <pt x="295" y="251" on="1"/>
        <pt x="295" y="449" on="1"/>
        <pt x="295" y="543" on="0"/>
        <pt x="403" y="543" on="1"/>
        <pt x="478" y="543" on="1"/>
        <pt x="478" y="492" on="1"/>
        <pt x="398" y="492" on="1"/>
        <pt x="376" y="492" on="0"/>
        <pt x="352" y="468" on="0"/>
        <pt x="352" y="450" on="1"/>
        <pt x="352" y="250" on="1"/>
        <pt x="352" y="232" on="0"/>
        <pt x="376" y="208" on="0"/>
        <pt x="398" y="208" on="1"/>
        <pt x="477" y="208" on="1"/>
      </contour>
      <contour>
        <pt x="618" y="151" on="1"/>
        <pt x="618" y="549" on="1"/>
        <pt x="618" y="582" on="0"/>
        <pt x="569" y="633" on="0"/>
        <pt x="527" y="633" on="1"/>
        <pt x="273" y="633" on="1"/>
        <pt x="230" y="633" on="0"/>
        <pt x="182" y="582" on="0"/>
        <pt x="182" y="549" on="1"/>
        <pt x="182" y="151" on="1"/>
        <pt x="182" y="118" on="0"/>
        <pt x="230" y="67" on="0"/>
        <pt x="273" y="67" on="1"/>
        <pt x="527" y="67" on="1"/>
        <pt x="570" y="67" on="0"/>
        <pt x="618" y="118" on="0"/>
      </contour>
    </TTGlyph>
    <TTGlyph name="currency" xMin="37" yMin="46" xMax="533" yMax="558">
      <contour>
        <pt x="96" y="252" on="1"/>
        <pt x="96" y="350" on="1"/>
        <pt x="96" y="398" on="0"/>
        <pt x="108" y="429" on="1"/>
        <pt x="37" y="501" on="1"/>
        <pt x="94" y="558" on="1"/>
        <pt x="162" y="490" on="1"/>
        <pt x="199" y="510" on="0"/>
        <pt x="266" y="510" on="1"/>
        <pt x="303" y="510" on="1"/>
        <pt x="368" y="510" on="0"/>
        <pt x="407" y="489" on="1"/>
        <pt x="476" y="558" on="1"/>
        <pt x="533" y="501" on="1"/>
        <pt x="460" y="428" on="1"/>
        <pt x="473" y="398" on="0"/>
        <pt x="473" y="350" on="1"/>
        <pt x="473" y="252" on="1"/>
        <pt x="473" y="206" on="0"/>
        <pt x="461" y="175" on="1"/>
        <pt x="533" y="103" on="1"/>
        <pt x="476" y="46" on="1"/>
        <pt x="409" y="113" on="1"/>
        <pt x="368" y="92" on="0"/>
        <pt x="303" y="92" on="1"/>
        <pt x="266" y="92" on="1"/>
        <pt x="197" y="92" on="0"/>
        <pt x="161" y="113" on="1"/>
        <pt x="94" y="46" on="1"/>
        <pt x="37" y="103" on="1"/>
        <pt x="108" y="174" on="1"/>
        <pt x="96" y="206" on="0"/>
      </contour>
      <contour>
        <pt x="388" y="232" on="1"/>
        <pt x="388" y="370" on="1"/>
        <pt x="388" y="435" on="0"/>
        <pt x="313" y="435" on="1"/>
        <pt x="256" y="435" on="1"/>
        <pt x="181" y="435" on="0"/>
        <pt x="181" y="370" on="1"/>
        <pt x="181" y="232" on="1"/>
        <pt x="181" y="167" on="0"/>
        <pt x="256" y="167" on="1"/>
        <pt x="313" y="167" on="1"/>
        <pt x="388" y="167" on="0"/>
      </contour>
    </TTGlyph>
    <TTGlyph name="d" xMin="70" yMin="0" xMax="421" yMax="700">
      <contour>
        <pt x="421" y="0" on="1"/>
        <pt x="341" y="0" on="1"/>
        <pt x="341" y="23" on="1"/>
        <pt x="308" y="0" on="0"/>
        <pt x="261" y="0" on="1"/>
        <pt x="240" y="0" on="1"/>
        <pt x="152" y="0" on="0"/>
        <pt x="70" y="75" on="0"/>
        <pt x="70" y="160" on="1"/>
        <pt x="70" y="340" on="1"/>
        <pt x="70" y="424" on="0"/>
        <pt x="153" y="500" on="0"/>
        <pt x="240" y="500" on="1"/>
        <pt x="336" y="500" on="1"/>
        <pt x="336" y="700" on="1"/>
        <pt x="421" y="700" on="1"/>
      </contour>
      <contour>
        <pt x="271" y="75" on="1"/>
        <pt x="304" y="75" on="0"/>
        <pt x="336" y="110" on="0"/>
        <pt x="336" y="130" on="1"/>
        <pt x="336" y="425" on="1"/>
        <pt x="230" y="425" on="1"/>
        <pt x="155" y="425" on="0"/>
        <pt x="155" y="360" on="1"/>
        <pt x="155" y="140" on="1"/>
        <pt x="155" y="75" on="0"/>
        <pt x="230" y="75" on="1"/>
      </contour>
    </TTGlyph>
    <TTGlyph name="dagger" xMin="55" yMin="0" xMax="416" yMax="700">
      <contour>
        <pt x="276" y="0" on="1"/>
        <pt x="196" y="0" on="1"/>
        <pt x="196" y="425" on="1"/>
        <pt x="55" y="425" on="1"/>
        <pt x="55" y="500" on="1"/>
        <pt x="196" y="500" on="1"/>
        <pt x="196" y="700" on="1"/>
        <pt x="276" y="700" on="1"/>
        <pt x="276" y="500" on="1"/>
        <pt x="416" y="500" on="1"/>
        <pt x="416" y="425" on="1"/>
        <pt x="276" y="425" on="1"/>
      </contour>
    </TTGlyph>
    <TTGlyph name="daggerdbl" xMin="55" yMin="0" xMax="416" yMax="700">
      <contour>
        <pt x="276" y="0" on="1"/>
        <pt x="196" y="0" on="1"/>
        <pt x="196" y="210" on="1"/>
        <pt x="55" y="210" on="1"/>
        <pt x="55" y="285" on="1"/>
        <pt x="196" y="285" on="1"/>
        <pt x="196" y="425" on="1"/>
        <pt x="55" y="425" on="1"/>
        <pt x="55" y="500" on="1"/>
        <pt x="196" y="500" on="1"/>
        <pt x="196" y="700" on="1"/>
        <pt x="276" y="700" on="1"/>
        <pt x="276" y="500" on="1"/>
        <pt x="416" y="500" on="1"/>
        <pt x="416" y="425" on="1"/>
        <pt x="276" y="425" on="1"/>
        <pt x="276" y="285" on="1"/>
        <pt x="416" y="285" on="1"/>
        <pt x="416" y="210" on="1"/>
        <pt x="276" y="210" on="1"/>
      </contour>
    </TTGlyph>
    <TTGlyph name="degree" xMin="41" yMin="397" xMax="323" yMax="701">
      <contour>
        <pt x="323" y="516" on="1"/>
        <pt x="323" y="458" on="0"/>
        <pt x="251" y="397" on="0"/>
        <pt x="196" y="397" on="1"/>
        <pt x="168" y="397" on="1"/>
        <pt x="113" y="397" on="0"/>
        <pt x="41" y="458" on="0"/>
        <pt x="41" y="516" on="1"/>
        <pt x="41" y="582" on="1"/>
        <pt x="41" y="640" on="0"/>
        <pt x="112" y="701" on="0"/>
        <pt x="168" y="701" on="1"/>
        <pt x="196" y="701" on="1"/>
        <pt x="252" y="701" on="0"/>
        <pt x="323" y="640" on="0"/>
        <pt x="323" y="582" on="1"/>
      </contour>
      <contour>
        <pt x="254" y="513" on="1"/>
        <pt x="254" y="585" on="1"/>
        <pt x="254" y="607" on="0"/>
        <pt x="221" y="639" on="0"/>
        <pt x="196" y="639" on="1"/>
        <pt x="168" y="639" on="1"/>
        <pt x="143" y="639" on="0"/>
        <pt x="110" y="607" on="0"/>
        <pt x="110" y="585" on="1"/>
        <pt x="110" y="513" on="1"/>
        <pt x="110" y="491" on="0"/>
        <pt x="143" y="459" on="0"/>
        <pt x="168" y="459" on="1"/>
        <pt x="196" y="459" on="1"/>
        <pt x="221" y="459" on="0"/>
        <pt x="254" y="491" on="0"/>
      </contour>
    </TTGlyph>
    <TTGlyph name="dieresis" xMin="35" yMin="595" xMax="320" yMax="675">
      <contour>
        <pt x="320" y="595" on="1"/>
        <pt x="235" y="595" on="1"/>
        <pt x="235" y="675" on="1"/>
        <pt x="320" y="675" on="1"/>
      </contour>
      <contour>
        <pt x="120" y="595" on="1"/>
        <pt x="35" y="595" on="1"/>
        <pt x="35" y="675" on="1"/>
        <pt x="120" y="675" on="1"/>
      </contour>
    </TTGlyph>
    <TTGlyph name="divide" xMin="85" yMin="65" xMax="465" yMax="560">
      <contour>
        <pt x="465" y="275" on="1"/>
        <pt x="85" y="275" on="1"/>
        <pt x="85" y="350" on="1"/>
        <pt x="465" y="350" on="1"/>
      </contour>
      <contour>
        <pt x="325" y="65" on="1"/>
        <pt x="225" y="65" on="1"/>
        <pt x="225" y="165" on="1"/>
        <pt x="325" y="165" on="1"/>
      </contour>
      <contour>
        <pt x="325" y="460" on="1"/>
        <pt x="225" y="460" on="1"/>
        <pt x="225" y="560" on="1"/>
        <pt x="325" y="560" on="1"/>
      </contour>
    </TTGlyph>
    <TTGlyph name="dollar" xMin="70" yMin="-110" xMax="399" yMax="780">
      <contour>
        <pt x="277" y="-110" on="1"/>
        <pt x="192" y="-110" on="1"/>
        <pt x="192" y="0" on="1"/>
        <pt x="87" y="0" on="1"/>
        <pt x="87" y="76" on="1"/>
        <pt x="229" y="76" on="1"/>
        <pt x="266" y="76" on="0"/>
        <pt x="312" y="120" on="0"/>
        <pt x="312" y="151" on="1"/>
        <pt x="312" y="235" on="1"/>
        <pt x="312" y="265" on="0"/>
        <pt x="281" y="302" on="0"/>
        <pt x="250" y="302" on="1"/>
        <pt x="230" y="302" on="1"/>
        <pt x="156" y="302" on="0"/>
        <pt x="70" y="389" on="0"/>
        <pt x="70" y="472" on="1"/>
        <pt x="70" y="500" on="1"/>
        <pt x="70" y="638" on="0"/>
        <pt x="192" y="664" on="1"/>
        <pt x="192" y="780" on="1"/>
        <pt x="277" y="780" on="1"/>
        <pt x="277" y="670" on="1"/>
        <pt x="383" y="670" on="1"/>
        <pt x="383" y="594" on="1"/>
        <pt x="240" y="594" on="1"/>
        <pt x="203" y="594" on="0"/>
        <pt x="157" y="550" on="0"/>
        <pt x="157" y="519" on="1"/>
        <pt x="157" y="453" on="1"/>
        <pt x="157" y="422" on="0"/>
        <pt x="197" y="381" on="0"/>
        <pt x="229" y="381" on="1"/>
        <pt x="249" y="381" on="1"/>
        <pt x="320" y="381" on="0"/>
        <pt x="399" y="299" on="0"/>
        <pt x="399" y="216" on="1"/>
        <pt x="399" y="170" on="1"/>
        <pt x="399" y="32" on="0"/>
        <pt x="277" y="5" on="1"/>
      </contour>
    </TTGlyph>
    <TTGlyph name="dotaccent" xMin="35" yMin="615" xMax="120" yMax="700">
      <contour>
        <pt x="120" y="615" on="1"/>
        <pt x="35" y="615" on="1"/>
        <pt x="35" y="700" on="1"/>
        <pt x="120" y="700" on="1"/>
      </contour>
    </TTGlyph>
    <TTGlyph name="dotlessi" xMin="80" yMin="0" xMax="165" yMax="500">
      <contour>
        <pt x="165" y="0" on="1"/>
        <pt x="80" y="0" on="1"/>
        <pt x="80" y="500" on="1"/>
        <pt x="165" y="500" on="1"/>
      </contour>
    </TTGlyph>
    <TTGlyph name="dotmath" xMin="65" yMin="260" xMax="165" yMax="360">
      <contour>
        <pt x="165" y="260" on="1"/>
        <pt x="65" y="260" on="1"/>
        <pt x="65" y="360" on="1"/>
        <pt x="165" y="360" on="1"/>
      </contour>
    </TTGlyph>
    <TTGlyph name="e" xMin="70" yMin="0" xMax="401" yMax="500">
      <contour>
        <pt x="369" y="0" on="1"/>
        <pt x="240" y="0" on="1"/>
        <pt x="152" y="0" on="0"/>
        <pt x="70" y="75" on="0"/>
        <pt x="70" y="160" on="1"/>
        <pt x="70" y="340" on="1"/>
        <pt x="70" y="426" on="0"/>
        <pt x="144" y="500" on="0"/>
        <pt x="230" y="500" on="1"/>
        <pt x="257" y="500" on="1"/>
        <pt x="401" y="500" on="0"/>
        <pt x="401" y="345" on="1"/>
        <pt x="401" y="215" on="1"/>
        <pt x="155" y="215" on="1"/>
        <pt x="155" y="140" on="1"/>
        <pt x="155" y="75" on="0"/>
        <pt x="230" y="75" on="1"/>
        <pt x="369" y="75" on="1"/>
      </contour>
      <contour>
        <pt x="155" y="360" on="1"/>
        <pt x="155" y="290" on="1"/>
        <pt x="318" y="290" on="1"/>
        <pt x="318" y="365" on="1"/>
        <pt x="318" y="391" on="0"/>
        <pt x="284" y="425" on="0"/>
        <pt x="258" y="425" on="1"/>
        <pt x="220" y="425" on="1"/>
        <pt x="184" y="425" on="0"/>
        <pt x="155" y="392" on="0"/>
      </contour>
    </TTGlyph>
    <TTGlyph name="eacute" xMin="70" yMin="0" xMax="401" yMax="715">
      <contour>
        <pt x="369" y="0" on="1"/>
        <pt x="240" y="0" on="1"/>
        <pt x="152" y="0" on="0"/>
        <pt x="70" y="75" on="0"/>
        <pt x="70" y="160" on="1"/>
        <pt x="70" y="340" on="1"/>
        <pt x="70" y="426" on="0"/>
        <pt x="144" y="500" on="0"/>
        <pt x="230" y="500" on="1"/>
        <pt x="257" y="500" on="1"/>
        <pt x="401" y="500" on="0"/>
        <pt x="401" y="345" on="1"/>
        <pt x="401" y="215" on="1"/>
        <pt x="155" y="215" on="1"/>
        <pt x="155" y="140" on="1"/>
        <pt x="155" y="75" on="0"/>
        <pt x="230" y="75" on="1"/>
        <pt x="369" y="75" on="1"/>
      </contour>
      <contour>
        <pt x="155" y="360" on="1"/>
        <pt x="155" y="290" on="1"/>
        <pt x="318" y="290" on="1"/>
        <pt x="318" y="365" on="1"/>
        <pt x="318" y="391" on="0"/>
        <pt x="284" y="425" on="0"/>
        <pt x="258" y="425" on="1"/>
        <pt x="220" y="425" on="1"/>
        <pt x="184" y="425" on="0"/>
        <pt x="155" y="392" on="0"/>
      </contour>
      <contour>
        <pt x="250" y="580" on="1"/>
        <pt x="164" y="580" on="1"/>
        <pt x="268" y="715" on="1"/>
        <pt x="377" y="715" on="1"/>
      </contour>
    </TTGlyph>
    <TTGlyph name="ecircumflex" xMin="70" yMin="0" xMax="401" yMax="715">
      <contour>
        <pt x="369" y="0" on="1"/>
        <pt x="240" y="0" on="1"/>
        <pt x="152" y="0" on="0"/>
        <pt x="70" y="75" on="0"/>
        <pt x="70" y="160" on="1"/>
        <pt x="70" y="340" on="1"/>
        <pt x="70" y="426" on="0"/>
        <pt x="144" y="500" on="0"/>
        <pt x="230" y="500" on="1"/>
        <pt x="257" y="500" on="1"/>
        <pt x="401" y="500" on="0"/>
        <pt x="401" y="345" on="1"/>
        <pt x="401" y="215" on="1"/>
        <pt x="155" y="215" on="1"/>
        <pt x="155" y="140" on="1"/>
        <pt x="155" y="75" on="0"/>
        <pt x="230" y="75" on="1"/>
        <pt x="369" y="75" on="1"/>
      </contour>
      <contour>
        <pt x="155" y="360" on="1"/>
        <pt x="155" y="290" on="1"/>
        <pt x="318" y="290" on="1"/>
        <pt x="318" y="365" on="1"/>
        <pt x="318" y="391" on="0"/>
        <pt x="284" y="425" on="0"/>
        <pt x="258" y="425" on="1"/>
        <pt x="220" y="425" on="1"/>
        <pt x="184" y="425" on="0"/>
        <pt x="155" y="392" on="0"/>
      </contour>
      <contour>
        <pt x="399" y="580" on="1"/>
        <pt x="302" y="580" on="1"/>
        <pt x="242" y="655" on="1"/>
        <pt x="182" y="580" on="1"/>
        <pt x="86" y="580" on="1"/>
        <pt x="198" y="715" on="1"/>
        <pt x="286" y="715" on="1"/>
      </contour>
    </TTGlyph>
    <TTGlyph name="edieresis" xMin="70" yMin="0" xMax="401" yMax="675">
      <contour>
        <pt x="369" y="0" on="1"/>
        <pt x="240" y="0" on="1"/>
        <pt x="152" y="0" on="0"/>
        <pt x="70" y="75" on="0"/>
        <pt x="70" y="160" on="1"/>
        <pt x="70" y="340" on="1"/>
        <pt x="70" y="426" on="0"/>
        <pt x="144" y="500" on="0"/>
        <pt x="230" y="500" on="1"/>
        <pt x="257" y="500" on="1"/>
        <pt x="401" y="500" on="0"/>
        <pt x="401" y="345" on="1"/>
        <pt x="401" y="215" on="1"/>
        <pt x="155" y="215" on="1"/>
        <pt x="155" y="140" on="1"/>
        <pt x="155" y="75" on="0"/>
        <pt x="230" y="75" on="1"/>
        <pt x="369" y="75" on="1"/>
      </contour>
      <contour>
        <pt x="155" y="360" on="1"/>
        <pt x="155" y="290" on="1"/>
        <pt x="318" y="290" on="1"/>
        <pt x="318" y="365" on="1"/>
        <pt x="318" y="391" on="0"/>
        <pt x="284" y="425" on="0"/>
        <pt x="258" y="425" on="1"/>
        <pt x="220" y="425" on="1"/>
        <pt x="184" y="425" on="0"/>
        <pt x="155" y="392" on="0"/>
      </contour>
      <contour>
        <pt x="382" y="595" on="1"/>
        <pt x="297" y="595" on="1"/>
        <pt x="297" y="675" on="1"/>
        <pt x="382" y="675" on="1"/>
      </contour>
      <contour>
        <pt x="182" y="595" on="1"/>
        <pt x="97" y="595" on="1"/>
        <pt x="97" y="675" on="1"/>
        <pt x="182" y="675" on="1"/>
      </contour>
    </TTGlyph>
    <TTGlyph name="egrave" xMin="70" yMin="0" xMax="401" yMax="715">
      <contour>
        <pt x="369" y="0" on="1"/>
        <pt x="240" y="0" on="1"/>
        <pt x="152" y="0" on="0"/>
        <pt x="70" y="75" on="0"/>
        <pt x="70" y="160" on="1"/>
        <pt x="70" y="340" on="1"/>
        <pt x="70" y="426" on="0"/>
        <pt x="144" y="500" on="0"/>
        <pt x="230" y="500" on="1"/>
        <pt x="257" y="500" on="1"/>
        <pt x="401" y="500" on="0"/>
        <pt x="401" y="345" on="1"/>
        <pt x="401" y="215" on="1"/>
        <pt x="155" y="215" on="1"/>
        <pt x="155" y="140" on="1"/>
        <pt x="155" y="75" on="0"/>
        <pt x="230" y="75" on="1"/>
        <pt x="369" y="75" on="1"/>
      </contour>
      <contour>
        <pt x="155" y="360" on="1"/>
        <pt x="155" y="290" on="1"/>
        <pt x="318" y="290" on="1"/>
        <pt x="318" y="365" on="1"/>
        <pt x="318" y="391" on="0"/>
        <pt x="284" y="425" on="0"/>
        <pt x="258" y="425" on="1"/>
        <pt x="220" y="425" on="1"/>
        <pt x="184" y="425" on="0"/>
        <pt x="155" y="392" on="0"/>
      </contour>
      <contour>
        <pt x="326" y="580" on="1"/>
        <pt x="240" y="580" on="1"/>
        <pt x="113" y="715" on="1"/>
        <pt x="222" y="715" on="1"/>
      </contour>
    </TTGlyph>
    <TTGlyph name="eight" xMin="56" yMin="0" xMax="414" yMax="700">
      <contour>
        <pt x="414" y="158" on="1"/>
        <pt x="414" y="75" on="0"/>
        <pt x="334" y="0" on="0"/>
        <pt x="244" y="0" on="1"/>
        <pt x="226" y="0" on="1"/>
        <pt x="136" y="0" on="0"/>
        <pt x="56" y="75" on="0"/>
        <pt x="56" y="158" on="1"/>
        <pt x="56" y="242" on="1"/>
        <pt x="56" y="329" on="0"/>
        <pt x="121" y="365" on="1"/>
        <pt x="68" y="402" on="0"/>
        <pt x="68" y="481" on="1"/>
        <pt x="68" y="544" on="1"/>
        <pt x="68" y="700" on="0"/>
        <pt x="230" y="700" on="1"/>
        <pt x="240" y="700" on="1"/>
        <pt x="402" y="700" on="0"/>
        <pt x="402" y="544" on="1"/>
        <pt x="402" y="481" on="1"/>
        <pt x="402" y="402" on="0"/>
        <pt x="349" y="365" on="1"/>
        <pt x="414" y="329" on="0"/>
        <pt x="414" y="242" on="1"/>
      </contour>
      <contour>
        <pt x="327" y="251" on="1"/>
        <pt x="327" y="284" on="0"/>
        <pt x="287" y="323" on="0"/>
        <pt x="254" y="323" on="1"/>
        <pt x="216" y="323" on="1"/>
        <pt x="183" y="323" on="0"/>
        <pt x="143" y="284" on="0"/>
        <pt x="143" y="251" on="1"/>
        <pt x="143" y="148" on="1"/>
        <pt x="143" y="75" on="0"/>
        <pt x="209" y="75" on="1"/>
        <pt x="253" y="75" on="1"/>
        <pt x="291" y="75" on="0"/>
        <pt x="327" y="110" on="0"/>
        <pt x="327" y="148" on="1"/>
      </contour>
      <contour>
        <pt x="244" y="625" on="1"/>
        <pt x="218" y="625" on="1"/>
        <pt x="155" y="625" on="0"/>
        <pt x="155" y="553" on="1"/>
        <pt x="155" y="471" on="1"/>
        <pt x="155" y="439" on="0"/>
        <pt x="192" y="400" on="0"/>
        <pt x="220" y="398" on="1"/>
        <pt x="244" y="398" on="1"/>
        <pt x="275" y="398" on="0"/>
        <pt x="315" y="438" on="0"/>
        <pt x="315" y="471" on="1"/>
        <pt x="315" y="553" on="1"/>
        <pt x="315" y="591" on="0"/>
        <pt x="282" y="625" on="0"/>
      </contour>
    </TTGlyph>
    <TTGlyph name="ellipsis" xMin="65" yMin="0" xMax="605" yMax="100">
      <contour>
        <pt x="165" y="0" on="1"/>
        <pt x="65" y="0" on="1"/>
        <pt x="65" y="100" on="1"/>
        <pt x="165" y="100" on="1"/>
      </contour>
      <contour>
        <pt x="385" y="0" on="1"/>
        <pt x="285" y="0" on="1"/>
        <pt x="285" y="100" on="1"/>
        <pt x="385" y="100" on="1"/>
      </contour>
      <contour>
        <pt x="605" y="0" on="1"/>
        <pt x="505" y="0" on="1"/>
        <pt x="505" y="100" on="1"/>
        <pt x="605" y="100" on="1"/>
      </contour>
    </TTGlyph>
    <TTGlyph name="emdash" xMin="65" yMin="275" xMax="540" yMax="350">
      <contour>
        <pt x="540" y="275" on="1"/>
        <pt x="65" y="275" on="1"/>
        <pt x="65" y="350" on="1"/>
        <pt x="540" y="350" on="1"/>
      </contour>
    </TTGlyph>
    <TTGlyph name="endash" xMin="85" yMin="275" xMax="465" yMax="350">
      <contour>
        <pt x="465" y="275" on="1"/>
        <pt x="85" y="275" on="1"/>
        <pt x="85" y="350" on="1"/>
        <pt x="465" y="350" on="1"/>
      </contour>
    </TTGlyph>
    <TTGlyph name="equal" xMin="85" yMin="175" xMax="465" yMax="450">
      <contour>
        <pt x="465" y="175" on="1"/>
        <pt x="85" y="175" on="1"/>
        <pt x="85" y="250" on="1"/>
        <pt x="465" y="250" on="1"/>
      </contour>
      <contour>
        <pt x="465" y="375" on="1"/>
        <pt x="85" y="375" on="1"/>
        <pt x="85" y="450" on="1"/>
        <pt x="465" y="450" on="1"/>
      </contour>
    </TTGlyph>
    <TTGlyph name="eth" xMin="78" yMin="0" xMax="419" yMax="750">
      <contour>
        <pt x="126" y="626" on="1"/>
        <pt x="126" y="700" on="1"/>
        <pt x="240" y="700" on="1"/>
        <pt x="270" y="750" on="1"/>
        <pt x="352" y="750" on="1"/>
        <pt x="316" y="690" on="1"/>
        <pt x="419" y="658" on="0"/>
        <pt x="419" y="530" on="1"/>
        <pt x="419" y="170" on="1"/>
        <pt x="419" y="88" on="0"/>
        <pt x="329" y="0" on="0"/>
        <pt x="261" y="0" on="1"/>
        <pt x="236" y="0" on="1"/>
        <pt x="168" y="0" on="0"/>
        <pt x="78" y="88" on="0"/>
        <pt x="78" y="170" on="1"/>
        <pt x="78" y="300" on="1"/>
        <pt x="78" y="384" on="0"/>
        <pt x="160" y="460" on="0"/>
        <pt x="246" y="460" on="1"/>
        <pt x="334" y="460" on="1"/>
        <pt x="334" y="549" on="1"/>
        <pt x="334" y="574" on="0"/>
        <pt x="303" y="615" on="0"/>
        <pt x="277" y="622" on="1"/>
        <pt x="244" y="566" on="1"/>
        <pt x="162" y="566" on="1"/>
        <pt x="197" y="626" on="1"/>
      </contour>
      <contour>
        <pt x="334" y="385" on="1"/>
        <pt x="236" y="385" on="1"/>
        <pt x="163" y="385" on="0"/>
        <pt x="163" y="319" on="1"/>
        <pt x="163" y="151" on="1"/>
        <pt x="163" y="119" on="0"/>
        <pt x="205" y="75" on="0"/>
        <pt x="241" y="75" on="1"/>
        <pt x="256" y="75" on="1"/>
        <pt x="292" y="75" on="0"/>
        <pt x="334" y="119" on="0"/>
        <pt x="334" y="151" on="1"/>
      </contour>
    </TTGlyph>
    <TTGlyph name="exclam" xMin="75" yMin="0" xMax="175" yMax="700">
      <contour>
        <pt x="175" y="0" on="1"/>
        <pt x="75" y="0" on="1"/>
        <pt x="75" y="100" on="1"/>
        <pt x="175" y="100" on="1"/>
      </contour>
      <contour>
        <pt x="167" y="208" on="1"/>
        <pt x="82" y="208" on="1"/>
        <pt x="82" y="700" on="1"/>
        <pt x="167" y="700" on="1"/>
      </contour>
    </TTGlyph>
    <TTGlyph name="exclamdown" xMin="75" yMin="-200" xMax="175" yMax="500">
      <contour>
        <pt x="75" y="500" on="1"/>
        <pt x="175" y="500" on="1"/>
        <pt x="175" y="400" on="1"/>
        <pt x="75" y="400" on="1"/>
      </contour>
      <contour>
        <pt x="83" y="292" on="1"/>
        <pt x="168" y="292" on="1"/>
        <pt x="168" y="-200" on="1"/>
        <pt x="83" y="-200" on="1"/>
      </contour>
    </TTGlyph>
    <TTGlyph name="f" xMin="30" yMin="0" xMax="311" yMax="700">
      <contour>
        <pt x="311" y="625" on="1"/>
        <pt x="215" y="625" on="1"/>
        <pt x="199" y="625" on="0"/>
        <pt x="180" y="608" on="0"/>
        <pt x="180" y="595" on="1"/>
        <pt x="180" y="500" on="1"/>
        <pt x="301" y="500" on="1"/>
        <pt x="301" y="425" on="1"/>
        <pt x="180" y="425" on="1"/>
        <pt x="180" y="0" on="1"/>
        <pt x="95" y="0" on="1"/>
        <pt x="95" y="425" on="1"/>
        <pt x="30" y="425" on="1"/>
        <pt x="30" y="500" on="1"/>
        <pt x="95" y="500" on="1"/>
        <pt x="95" y="590" on="1"/>
        <pt x="95" y="641" on="0"/>
        <pt x="153" y="700" on="0"/>
        <pt x="199" y="700" on="1"/>
        <pt x="311" y="700" on="1"/>
      </contour>
    </TTGlyph>
    <TTGlyph name="fi" xMin="30" yMin="0" xMax="435" yMax="700">
      <contour>
        <pt x="414" y="625" on="1"/>
        <pt x="215" y="625" on="1"/>
        <pt x="199" y="625" on="0"/>
        <pt x="180" y="608" on="0"/>
        <pt x="180" y="595" on="1"/>
        <pt x="180" y="500" on="1"/>
        <pt x="435" y="500" on="1"/>
        <pt x="435" y="0" on="1"/>
        <pt x="350" y="0" on="1"/>
        <pt x="350" y="425" on="1"/>
        <pt x="180" y="425" on="1"/>
        <pt x="180" y="0" on="1"/>
        <pt x="95" y="0" on="1"/>
        <pt x="95" y="425" on="1"/>
        <pt x="30" y="425" on="1"/>
        <pt x="30" y="500" on="1"/>
        <pt x="95" y="500" on="1"/>
        <pt x="95" y="590" on="1"/>
        <pt x="95" y="641" on="0"/>
        <pt x="153" y="700" on="0"/>
        <pt x="199" y="700" on="1"/>
        <pt x="414" y="700" on="1"/>
      </contour>
    </TTGlyph>
    <TTGlyph name="five" xMin="83" yMin="0" xMax="374" yMax="700">
      <contour>
        <pt x="374" y="158" on="1"/>
        <pt x="374" y="75" on="0"/>
        <pt x="294" y="0" on="0"/>
        <pt x="204" y="0" on="1"/>
        <pt x="83" y="0" on="1"/>
        <pt x="83" y="75" on="1"/>
        <pt x="213" y="75" on="1"/>
        <pt x="251" y="75" on="0"/>
        <pt x="287" y="110" on="0"/>
        <pt x="287" y="148" on="1"/>
        <pt x="287" y="275" on="1"/>
        <pt x="287" y="308" on="0"/>
        <pt x="247" y="347" on="0"/>
        <pt x="214" y="347" on="1"/>
        <pt x="93" y="347" on="1"/>
        <pt x="93" y="700" on="1"/>
        <pt x="359" y="700" on="1"/>
        <pt x="359" y="625" on="1"/>
        <pt x="178" y="625" on="1"/>
        <pt x="178" y="422" on="1"/>
        <pt x="209" y="422" on="1"/>
        <pt x="286" y="422" on="0"/>
        <pt x="374" y="346" on="0"/>
        <pt x="374" y="266" on="1"/>
      </contour>
    </TTGlyph>
    <TTGlyph name="fl" xMin="30" yMin="0" xMax="490" yMax="700">
      <contour>
        <pt x="490" y="0" on="1"/>
        <pt x="435" y="0" on="1"/>
        <pt x="401" y="0" on="0"/>
        <pt x="350" y="48" on="0"/>
        <pt x="350" y="100" on="1"/>
        <pt x="350" y="625" on="1"/>
        <pt x="215" y="625" on="1"/>
        <pt x="199" y="625" on="0"/>
        <pt x="180" y="608" on="0"/>
        <pt x="180" y="595" on="1"/>
        <pt x="180" y="500" on="1"/>
        <pt x="272" y="500" on="1"/>
        <pt x="272" y="425" on="1"/>
        <pt x="180" y="425" on="1"/>
        <pt x="180" y="0" on="1"/>
        <pt x="95" y="0" on="1"/>
        <pt x="95" y="425" on="1"/>
        <pt x="30" y="425" on="1"/>
        <pt x="30" y="500" on="1"/>
        <pt x="95" y="500" on="1"/>
        <pt x="95" y="590" on="1"/>
        <pt x="95" y="641" on="0"/>
        <pt x="153" y="700" on="0"/>
        <pt x="199" y="700" on="1"/>
        <pt x="435" y="700" on="1"/>
        <pt x="435" y="105" on="1"/>
        <pt x="435" y="89" on="0"/>
        <pt x="451" y="75" on="0"/>
        <pt x="470" y="75" on="1"/>
        <pt x="490" y="75" on="1"/>
      </contour>
    </TTGlyph>
    <TTGlyph name="florin" xMin="-31" yMin="-170" xMax="311" yMax="700">
      <contour>
        <pt x="311" y="625" on="1"/>
        <pt x="215" y="625" on="1"/>
        <pt x="199" y="625" on="0"/>
        <pt x="180" y="608" on="0"/>
        <pt x="180" y="595" on="1"/>
        <pt x="180" y="500" on="1"/>
        <pt x="301" y="500" on="1"/>
        <pt x="301" y="425" on="1"/>
        <pt x="180" y="425" on="1"/>
        <pt x="180" y="-60" on="1"/>
        <pt x="180" y="-111" on="0"/>
        <pt x="122" y="-170" on="0"/>
        <pt x="76" y="-170" on="1"/>
        <pt x="-31" y="-170" on="1"/>
        <pt x="-31" y="-95" on="1"/>
        <pt x="60" y="-95" on="1"/>
        <pt x="76" y="-95" on="0"/>
        <pt x="95" y="-78" on="0"/>
        <pt x="95" y="-65" on="1"/>
        <pt x="95" y="425" on="1"/>
        <pt x="30" y="425" on="1"/>
        <pt x="30" y="500" on="1"/>
        <pt x="95" y="500" on="1"/>
        <pt x="95" y="590" on="1"/>
        <pt x="95" y="641" on="0"/>
        <pt x="153" y="700" on="0"/>
        <pt x="199" y="700" on="1"/>
        <pt x="311" y="700" on="1"/>
      </contour>
    </TTGlyph>
    <TTGlyph name="four" xMin="69" yMin="0" xMax="422" yMax="700">
      <contour>
        <pt x="422" y="156" on="1"/>
        <pt x="352" y="156" on="1"/>
        <pt x="352" y="0" on="1"/>
        <pt x="267" y="0" on="1"/>
        <pt x="267" y="156" on="1"/>
        <pt x="69" y="156" on="1"/>
        <pt x="69" y="242" on="1"/>
        <pt x="168" y="700" on="1"/>
        <pt x="249" y="700" on="1"/>
        <pt x="155" y="229" on="1"/>
        <pt x="267" y="229" on="1"/>
        <pt x="267" y="457" on="1"/>
        <pt x="352" y="457" on="1"/>
        <pt x="352" y="229" on="1"/>
        <pt x="422" y="229" on="1"/>
      </contour>
    </TTGlyph>
    <TTGlyph name="fraction" xMin="-85" yMin="-100" xMax="315" yMax="810">
      <contour>
        <pt x="315" y="810" on="1"/>
        <pt x="-5" y="-100" on="1"/>
        <pt x="-85" y="-100" on="1"/>
        <pt x="235" y="810" on="1"/>
      </contour>
    </TTGlyph>
    <TTGlyph name="g" xMin="55" yMin="-170" xMax="444" yMax="500">
      <contour>
        <pt x="444" y="-35" on="1"/>
        <pt x="444" y="-170" on="0"/>
        <pt x="277" y="-170" on="1"/>
        <pt x="75" y="-170" on="1"/>
        <pt x="75" y="-95" on="1"/>
        <pt x="287" y="-95" on="1"/>
        <pt x="323" y="-95" on="0"/>
        <pt x="359" y="-67" on="0"/>
        <pt x="359" y="-45" on="1"/>
        <pt x="359" y="-13" on="1"/>
        <pt x="359" y="37" on="0"/>
        <pt x="287" y="37" on="1"/>
        <pt x="120" y="37" on="1"/>
        <pt x="120" y="175" on="1"/>
        <pt x="55" y="210" on="0"/>
        <pt x="55" y="315" on="1"/>
        <pt x="55" y="340" on="1"/>
        <pt x="55" y="424" on="0"/>
        <pt x="138" y="500" on="0"/>
        <pt x="225" y="500" on="1"/>
        <pt x="429" y="500" on="1"/>
        <pt x="429" y="315" on="1"/>
        <pt x="429" y="240" on="0"/>
        <pt x="347" y="155" on="0"/>
        <pt x="279" y="155" on="1"/>
        <pt x="205" y="155" on="1"/>
        <pt x="205" y="112" on="1"/>
        <pt x="277" y="112" on="1"/>
        <pt x="444" y="112" on="0"/>
        <pt x="444" y="-23" on="1"/>
      </contour>
      <contour>
        <pt x="279" y="230" on="1"/>
        <pt x="310" y="230" on="0"/>
        <pt x="342" y="270" on="0"/>
        <pt x="344" y="292" on="1"/>
        <pt x="344" y="425" on="1"/>
        <pt x="215" y="425" on="1"/>
        <pt x="140" y="425" on="0"/>
        <pt x="140" y="360" on="1"/>
        <pt x="140" y="295" on="1"/>
        <pt x="140" y="230" on="0"/>
        <pt x="215" y="230" on="1"/>
      </contour>
    </TTGlyph>
    <TTGlyph name="germandbls" xMin="80" yMin="0" xMax="455" yMax="700">
      <contour>
        <pt x="165" y="0" on="1"/>
        <pt x="80" y="0" on="1"/>
        <pt x="80" y="560" on="1"/>
        <pt x="80" y="630" on="0"/>
        <pt x="166" y="700" on="0"/>
        <pt x="230" y="700" on="1"/>
        <pt x="256" y="700" on="1"/>
        <pt x="344" y="700" on="0"/>
        <pt x="426" y="625" on="0"/>
        <pt x="426" y="540" on="1"/>
        <pt x="426" y="415" on="1"/>
        <pt x="348" y="415" on="1"/>
        <pt x="318" y="415" on="0"/>
        <pt x="293" y="393" on="0"/>
        <pt x="293" y="370" on="1"/>
        <pt x="293" y="355" on="1"/>
        <pt x="293" y="310" on="0"/>
        <pt x="336" y="310" on="1"/>
        <pt x="391" y="310" on="0"/>
        <pt x="455" y="246" on="0"/>
        <pt x="455" y="190" on="1"/>
        <pt x="455" y="125" on="1"/>
        <pt x="455" y="69" on="0"/>
        <pt x="385" y="0" on="0"/>
        <pt x="317" y="0" on="1"/>
        <pt x="218" y="0" on="1"/>
        <pt x="218" y="75" on="1"/>
        <pt x="323" y="75" on="1"/>
        <pt x="370" y="75" on="0"/>
        <pt x="370" y="120" on="1"/>
        <pt x="370" y="190" on="1"/>
        <pt x="370" y="235" on="0"/>
        <pt x="273" y="235" on="0"/>
        <pt x="208" y="301" on="0"/>
        <pt x="208" y="356" on="1"/>
        <pt x="208" y="366" on="1"/>
        <pt x="208" y="430" on="0"/>
        <pt x="276" y="483" on="0"/>
        <pt x="341" y="486" on="1"/>
        <pt x="341" y="560" on="1"/>
        <pt x="341" y="625" on="0"/>
        <pt x="266" y="625" on="1"/>
        <pt x="225" y="625" on="1"/>
        <pt x="192" y="625" on="0"/>
        <pt x="165" y="591" on="0"/>
        <pt x="165" y="570" on="1"/>
      </contour>
    </TTGlyph>
    <TTGlyph name="grave" xMin="52" yMin="580" xMax="265" yMax="715">
      <contour>
        <pt x="265" y="580" on="1"/>
        <pt x="179" y="580" on="1"/>
        <pt x="52" y="715" on="1"/>
        <pt x="161" y="715" on="1"/>
      </contour>
    </TTGlyph>
    <TTGlyph name="greater" xMin="85" yMin="105" xMax="465" yMax="564">
      <contour>
        <pt x="465" y="280" on="1"/>
        <pt x="85" y="105" on="1"/>
        <pt x="85" y="199" on="1"/>
        <pt x="401" y="336" on="1"/>
        <pt x="85" y="472" on="1"/>
        <pt x="85" y="564" on="1"/>
        <pt x="465" y="385" on="1"/>
      </contour>
    </TTGlyph>
    <TTGlyph name="greaterequal" xMin="85" yMin="0" xMax="465" yMax="564">
      <contour>
        <pt x="465" y="280" on="1"/>
        <pt x="85" y="125" on="1"/>
        <pt x="85" y="219" on="1"/>
        <pt x="393" y="336" on="1"/>
        <pt x="85" y="472" on="1"/>
        <pt x="85" y="564" on="1"/>
        <pt x="465" y="385" on="1"/>
      </contour>
      <contour>
        <pt x="465" y="0" on="1"/>
        <pt x="85" y="0" on="1"/>
        <pt x="85" y="75" on="1"/>
        <pt x="465" y="75" on="1"/>
      </contour>
    </TTGlyph>
    <TTGlyph name="guillemotleft" xMin="75" yMin="92" xMax="390" yMax="506">
      <contour>
        <pt x="230" y="92" on="1"/>
        <pt x="164" y="92" on="1"/>
        <pt x="75" y="299" on="1"/>
        <pt x="164" y="506" on="1"/>
        <pt x="230" y="506" on="1"/>
        <pt x="167" y="299" on="1"/>
      </contour>
      <contour>
        <pt x="390" y="92" on="1"/>
        <pt x="324" y="92" on="1"/>
        <pt x="235" y="299" on="1"/>
        <pt x="324" y="506" on="1"/>
        <pt x="390" y="506" on="1"/>
        <pt x="327" y="299" on="1"/>
      </contour>
    </TTGlyph>
    <TTGlyph name="guillemotright" xMin="75" yMin="92" xMax="390" yMax="506">
      <contour>
        <pt x="301" y="92" on="1"/>
        <pt x="235" y="92" on="1"/>
        <pt x="298" y="299" on="1"/>
        <pt x="235" y="506" on="1"/>
        <pt x="301" y="506" on="1"/>
        <pt x="390" y="299" on="1"/>
      </contour>
      <contour>
        <pt x="141" y="92" on="1"/>
        <pt x="75" y="92" on="1"/>
        <pt x="138" y="299" on="1"/>
        <pt x="75" y="506" on="1"/>
        <pt x="141" y="506" on="1"/>
        <pt x="230" y="299" on="1"/>
      </contour>
    </TTGlyph>
    <TTGlyph name="guilsinglleft" xMin="75" yMin="92" xMax="230" yMax="506">
      <contour>
        <pt x="230" y="92" on="1"/>
        <pt x="164" y="92" on="1"/>
        <pt x="75" y="299" on="1"/>
        <pt x="164" y="506" on="1"/>
        <pt x="230" y="506" on="1"/>
        <pt x="167" y="299" on="1"/>
      </contour>
    </TTGlyph>
    <TTGlyph name="guilsinglright" xMin="75" yMin="92" xMax="230" yMax="506">
      <contour>
        <pt x="141" y="92" on="1"/>
        <pt x="75" y="92" on="1"/>
        <pt x="138" y="299" on="1"/>
        <pt x="75" y="506" on="1"/>
        <pt x="141" y="506" on="1"/>
        <pt x="230" y="299" on="1"/>
      </contour>
    </TTGlyph>
    <TTGlyph name="h" xMin="80" yMin="0" xMax="426" yMax="700">
      <contour>
        <pt x="165" y="0" on="1"/>
        <pt x="80" y="0" on="1"/>
        <pt x="80" y="700" on="1"/>
        <pt x="165" y="700" on="1"/>
        <pt x="165" y="480" on="1"/>
        <pt x="195" y="500" on="0"/>
        <pt x="240" y="500" on="1"/>
        <pt x="266" y="500" on="1"/>
        <pt x="347" y="500" on="0"/>
        <pt x="426" y="424" on="0"/>
        <pt x="426" y="340" on="1"/>
        <pt x="426" y="0" on="1"/>
        <pt x="341" y="0" on="1"/>
        <pt x="341" y="360" on="1"/>
        <pt x="341" y="390" on="0"/>
        <pt x="306" y="425" on="0"/>
        <pt x="276" y="425" on="1"/>
        <pt x="230" y="425" on="1"/>
        <pt x="198" y="425" on="0"/>
        <pt x="165" y="392" on="0"/>
        <pt x="165" y="373" on="1"/>
      </contour>
    </TTGlyph>
    <TTGlyph name="hungarumlaut" xMin="40" yMin="598" xMax="428" yMax="745">
      <contour>
        <pt x="258" y="745" on="1"/>
        <pt x="131" y="598" on="1"/>
        <pt x="40" y="598" on="1"/>
        <pt x="143" y="745" on="1"/>
      </contour>
      <contour>
        <pt x="428" y="745" on="1"/>
        <pt x="301" y="598" on="1"/>
        <pt x="210" y="598" on="1"/>
        <pt x="313" y="745" on="1"/>
      </contour>
    </TTGlyph>
    <TTGlyph name="hyphen" xMin="85" yMin="275" xMax="410" yMax="350">
      <contour>
        <pt x="410" y="275" on="1"/>
        <pt x="85" y="275" on="1"/>
        <pt x="85" y="350" on="1"/>
        <pt x="410" y="350" on="1"/>
      </contour>
    </TTGlyph>
    <TTGlyph name="i" xMin="75" yMin="0" xMax="170" yMax="700">
      <contour>
        <pt x="170" y="610" on="1"/>
        <pt x="75" y="610" on="1"/>
        <pt x="75" y="700" on="1"/>
        <pt x="170" y="700" on="1"/>
      </contour>
      <contour>
        <pt x="165" y="0" on="1"/>
        <pt x="80" y="0" on="1"/>
        <pt x="80" y="500" on="1"/>
        <pt x="165" y="500" on="1"/>
      </contour>
    </TTGlyph>
    <TTGlyph name="iacute" xMin="55" yMin="0" xMax="268" yMax="715">
      <contour>
        <pt x="165" y="0" on="1"/>
        <pt x="80" y="0" on="1"/>
        <pt x="80" y="500" on="1"/>
        <pt x="165" y="500" on="1"/>
      </contour>
      <contour>
        <pt x="141" y="580" on="1"/>
        <pt x="55" y="580" on="1"/>
        <pt x="159" y="715" on="1"/>
        <pt x="268" y="715" on="1"/>
      </contour>
    </TTGlyph>
    <TTGlyph name="icircumflex" xMin="-34" yMin="0" xMax="279" yMax="715">
      <contour>
        <pt x="165" y="0" on="1"/>
        <pt x="80" y="0" on="1"/>
        <pt x="80" y="500" on="1"/>
        <pt x="165" y="500" on="1"/>
      </contour>
      <contour>
        <pt x="279" y="580" on="1"/>
        <pt x="182" y="580" on="1"/>
        <pt x="122" y="655" on="1"/>
        <pt x="62" y="580" on="1"/>
        <pt x="-34" y="580" on="1"/>
        <pt x="78" y="715" on="1"/>
        <pt x="166" y="715" on="1"/>
      </contour>
    </TTGlyph>
    <TTGlyph name="idieresis" xMin="-20" yMin="0" xMax="265" yMax="675">
      <contour>
        <pt x="165" y="0" on="1"/>
        <pt x="80" y="0" on="1"/>
        <pt x="80" y="500" on="1"/>
        <pt x="165" y="500" on="1"/>
      </contour>
      <contour>
        <pt x="265" y="595" on="1"/>
        <pt x="180" y="595" on="1"/>
        <pt x="180" y="675" on="1"/>
        <pt x="265" y="675" on="1"/>
      </contour>
      <contour>
        <pt x="65" y="595" on="1"/>
        <pt x="-20" y="595" on="1"/>
        <pt x="-20" y="675" on="1"/>
        <pt x="65" y="675" on="1"/>
      </contour>
    </TTGlyph>
    <TTGlyph name="igrave" xMin="-19" yMin="0" xMax="194" yMax="715">
      <contour>
        <pt x="165" y="0" on="1"/>
        <pt x="80" y="0" on="1"/>
        <pt x="80" y="500" on="1"/>
        <pt x="165" y="500" on="1"/>
      </contour>
      <contour>
        <pt x="194" y="580" on="1"/>
        <pt x="108" y="580" on="1"/>
        <pt x="-19" y="715" on="1"/>
        <pt x="80" y="715" on="1"/>
      </contour>
    </TTGlyph>
    <TTGlyph name="infinity" xMin="48" yMin="141" xMax="682" yMax="475">
      <contour>
        <pt x="249" y="141" on="1"/>
        <pt x="199" y="141" on="1"/>
        <pt x="119" y="141" on="0"/>
        <pt x="48" y="220" on="0"/>
        <pt x="48" y="298" on="1"/>
        <pt x="48" y="318" on="1"/>
        <pt x="48" y="396" on="0"/>
        <pt x="119" y="475" on="0"/>
        <pt x="199" y="475" on="1"/>
        <pt x="249" y="475" on="1"/>
        <pt x="330" y="475" on="0"/>
        <pt x="367" y="422" on="1"/>
        <pt x="404" y="475" on="0"/>
        <pt x="481" y="475" on="1"/>
        <pt x="531" y="475" on="1"/>
        <pt x="611" y="475" on="0"/>
        <pt x="682" y="396" on="0"/>
        <pt x="682" y="318" on="1"/>
        <pt x="682" y="303" on="1"/>
        <pt x="682" y="141" on="0"/>
        <pt x="531" y="141" on="1"/>
        <pt x="481" y="141" on="1"/>
        <pt x="402" y="141" on="0"/>
        <pt x="365" y="194" on="1"/>
        <pt x="328" y="141" on="0"/>
      </contour>
      <contour>
        <pt x="598" y="286" on="1"/>
        <pt x="598" y="338" on="1"/>
        <pt x="598" y="401" on="0"/>
        <pt x="526" y="401" on="1"/>
        <pt x="479" y="401" on="1"/>
        <pt x="447" y="401" on="0"/>
        <pt x="406" y="364" on="0"/>
        <pt x="406" y="336" on="1"/>
        <pt x="406" y="286" on="1"/>
        <pt x="406" y="255" on="0"/>
        <pt x="446" y="215" on="0"/>
        <pt x="479" y="215" on="1"/>
        <pt x="526" y="215" on="1"/>
        <pt x="564" y="215" on="0"/>
        <pt x="598" y="248" on="0"/>
      </contour>
      <contour>
        <pt x="132" y="330" on="1"/>
        <pt x="132" y="278" on="1"/>
        <pt x="132" y="215" on="0"/>
        <pt x="204" y="215" on="1"/>
        <pt x="251" y="215" on="1"/>
        <pt x="283" y="215" on="0"/>
        <pt x="324" y="252" on="0"/>
        <pt x="324" y="280" on="1"/>
        <pt x="324" y="330" on="1"/>
        <pt x="324" y="361" on="0"/>
        <pt x="284" y="401" on="0"/>
        <pt x="251" y="401" on="1"/>
        <pt x="204" y="401" on="1"/>
        <pt x="166" y="401" on="0"/>
        <pt x="132" y="368" on="0"/>
      </contour>
    </TTGlyph>
    <TTGlyph name="integral" xMin="-10" yMin="-235" xMax="332" yMax="820">
      <contour>
        <pt x="-10" y="-160" on="1"/>
        <pt x="81" y="-160" on="1"/>
        <pt x="97" y="-160" on="0"/>
        <pt x="116" y="-143" on="0"/>
        <pt x="116" y="-130" on="1"/>
        <pt x="116" y="710" on="1"/>
        <pt x="116" y="761" on="0"/>
        <pt x="174" y="820" on="0"/>
        <pt x="220" y="820" on="1"/>
        <pt x="332" y="820" on="1"/>
        <pt x="332" y="745" on="1"/>
        <pt x="236" y="745" on="1"/>
        <pt x="220" y="745" on="0"/>
        <pt x="201" y="728" on="0"/>
        <pt x="201" y="715" on="1"/>
        <pt x="201" y="-125" on="1"/>
        <pt x="201" y="-176" on="0"/>
        <pt x="143" y="-235" on="0"/>
        <pt x="97" y="-235" on="1"/>
        <pt x="-10" y="-235" on="1"/>
      </contour>
    </TTGlyph>
    <TTGlyph name="j" xMin="-45" yMin="-170" xMax="170" yMax="700">
      <contour>
        <pt x="170" y="610" on="1"/>
        <pt x="75" y="610" on="1"/>
        <pt x="75" y="700" on="1"/>
        <pt x="170" y="700" on="1"/>
      </contour>
      <contour>
        <pt x="-45" y="-95" on="1"/>
        <pt x="46" y="-95" on="1"/>
        <pt x="62" y="-95" on="0"/>
        <pt x="81" y="-78" on="0"/>
        <pt x="81" y="-65" on="1"/>
        <pt x="81" y="500" on="1"/>
        <pt x="166" y="500" on="1"/>
        <pt x="166" y="-60" on="1"/>
        <pt x="166" y="-111" on="0"/>
        <pt x="108" y="-170" on="0"/>
        <pt x="62" y="-170" on="1"/>
        <pt x="-45" y="-170" on="1"/>
      </contour>
    </TTGlyph>
    <TTGlyph name="k" xMin="80" yMin="0" xMax="429" yMax="700">
      <contour>
        <pt x="165" y="0" on="1"/>
        <pt x="80" y="0" on="1"/>
        <pt x="80" y="700" on="1"/>
        <pt x="165" y="700" on="1"/>
        <pt x="165" y="326" on="1"/>
        <pt x="315" y="500" on="1"/>
        <pt x="422" y="500" on="1"/>
        <pt x="253" y="307" on="1"/>
        <pt x="429" y="0" on="1"/>
        <pt x="330" y="0" on="1"/>
        <pt x="193" y="247" on="1"/>
        <pt x="165" y="214" on="1"/>
      </contour>
    </TTGlyph>
    <TTGlyph name="l" xMin="75" yMin="0" xMax="215" yMax="700">
      <contour>
        <pt x="215" y="0" on="1"/>
        <pt x="160" y="0" on="1"/>
        <pt x="126" y="0" on="0"/>
        <pt x="75" y="48" on="0"/>
        <pt x="75" y="100" on="1"/>
        <pt x="75" y="700" on="1"/>
        <pt x="160" y="700" on="1"/>
        <pt x="160" y="105" on="1"/>
        <pt x="160" y="89" on="0"/>
        <pt x="176" y="75" on="0"/>
        <pt x="195" y="75" on="1"/>
        <pt x="215" y="75" on="1"/>
      </contour>
    </TTGlyph>
    <TTGlyph name="less" xMin="85" yMin="105" xMax="465" yMax="564">
      <contour>
        <pt x="465" y="105" on="1"/>
        <pt x="85" y="280" on="1"/>
        <pt x="85" y="385" on="1"/>
        <pt x="465" y="564" on="1"/>
        <pt x="465" y="472" on="1"/>
        <pt x="155" y="336" on="1"/>
        <pt x="465" y="199" on="1"/>
      </contour>
    </TTGlyph>
    <TTGlyph name="lessequal" xMin="85" yMin="0" xMax="465" yMax="564">
      <contour>
        <pt x="465" y="125" on="1"/>
        <pt x="85" y="280" on="1"/>
        <pt x="85" y="385" on="1"/>
        <pt x="465" y="564" on="1"/>
        <pt x="465" y="472" on="1"/>
        <pt x="157" y="336" on="1"/>
        <pt x="465" y="219" on="1"/>
      </contour>
      <contour>
        <pt x="465" y="0" on="1"/>
        <pt x="85" y="0" on="1"/>
        <pt x="85" y="75" on="1"/>
        <pt x="465" y="75" on="1"/>
      </contour>
    </TTGlyph>
    <TTGlyph name="logicaland" xMin="65" yMin="260" xMax="165" yMax="360">
      <contour>
        <pt x="165" y="260" on="1"/>
        <pt x="65" y="260" on="1"/>
        <pt x="65" y="360" on="1"/>
        <pt x="165" y="360" on="1"/>
      </contour>
    </TTGlyph>
    <TTGlyph name="logicalnot" xMin="70" yMin="106" xMax="505" yMax="350">
      <contour>
        <pt x="505" y="106" on="1"/>
        <pt x="420" y="106" on="1"/>
        <pt x="420" y="275" on="1"/>
        <pt x="70" y="275" on="1"/>
        <pt x="70" y="350" on="1"/>
        <pt x="505" y="350" on="1"/>
      </contour>
    </TTGlyph>
    <TTGlyph name="lozenge" xMin="40" yMin="0" xMax="430" yMax="700">
      <contour>
        <pt x="430" y="350" on="1"/>
        <pt x="290" y="0" on="1"/>
        <pt x="178" y="0" on="1"/>
        <pt x="40" y="350" on="1"/>
        <pt x="180" y="700" on="1"/>
        <pt x="290" y="700" on="1"/>
      </contour>
      <contour>
        <pt x="343" y="350" on="1"/>
        <pt x="235" y="630" on="1"/>
        <pt x="127" y="350" on="1"/>
        <pt x="235" y="70" on="1"/>
      </contour>
    </TTGlyph>
    <TTGlyph name="lslash" xMin="35" yMin="0" xMax="231" yMax="700">
      <contour>
        <pt x="225" y="0" on="1"/>
        <pt x="170" y="0" on="1"/>
        <pt x="136" y="0" on="0"/>
        <pt x="85" y="48" on="0"/>
        <pt x="85" y="100" on="1"/>
        <pt x="85" y="332" on="1"/>
        <pt x="35" y="300" on="1"/>
        <pt x="35" y="378" on="1"/>
        <pt x="85" y="411" on="1"/>
        <pt x="85" y="700" on="1"/>
        <pt x="170" y="700" on="1"/>
        <pt x="170" y="467" on="1"/>
        <pt x="231" y="508" on="1"/>
        <pt x="231" y="428" on="1"/>
        <pt x="170" y="388" on="1"/>
        <pt x="170" y="105" on="1"/>
        <pt x="170" y="89" on="0"/>
        <pt x="186" y="75" on="0"/>
        <pt x="205" y="75" on="1"/>
        <pt x="225" y="75" on="1"/>
      </contour>
    </TTGlyph>
    <TTGlyph name="m" xMin="80" yMin="0" xMax="645" yMax="500">
      <contour>
        <pt x="165" y="0" on="1"/>
        <pt x="80" y="0" on="1"/>
        <pt x="80" y="500" on="1"/>
        <pt x="160" y="500" on="1"/>
        <pt x="160" y="476" on="1"/>
        <pt x="191" y="500" on="0"/>
        <pt x="240" y="500" on="1"/>
        <pt x="246" y="500" on="1"/>
        <pt x="337" y="500" on="0"/>
        <pt x="376" y="454" on="1"/>
        <pt x="413" y="500" on="0"/>
        <pt x="479" y="500" on="1"/>
        <pt x="485" y="500" on="1"/>
        <pt x="566" y="500" on="0"/>
        <pt x="645" y="424" on="0"/>
        <pt x="645" y="340" on="1"/>
        <pt x="645" y="0" on="1"/>
        <pt x="560" y="0" on="1"/>
        <pt x="560" y="360" on="1"/>
        <pt x="560" y="390" on="0"/>
        <pt x="525" y="425" on="0"/>
        <pt x="495" y="425" on="1"/>
        <pt x="469" y="425" on="1"/>
        <pt x="438" y="425" on="0"/>
        <pt x="407" y="388" on="0"/>
        <pt x="405" y="367" on="1"/>
        <pt x="405" y="0" on="1"/>
        <pt x="320" y="0" on="1"/>
        <pt x="320" y="360" on="1"/>
        <pt x="320" y="390" on="0"/>
        <pt x="286" y="425" on="0"/>
        <pt x="256" y="425" on="1"/>
        <pt x="230" y="425" on="1"/>
        <pt x="198" y="425" on="0"/>
        <pt x="165" y="392" on="0"/>
        <pt x="165" y="373" on="1"/>
      </contour>
    </TTGlyph>
    <TTGlyph name="macron" xMin="35" yMin="605" xMax="290" yMax="675">
      <contour>
        <pt x="290" y="605" on="1"/>
        <pt x="35" y="605" on="1"/>
        <pt x="35" y="675" on="1"/>
        <pt x="290" y="675" on="1"/>
      </contour>
    </TTGlyph>
    <TTGlyph name="minus" xMin="85" yMin="275" xMax="465" yMax="350">
      <contour>
        <pt x="465" y="275" on="1"/>
        <pt x="85" y="275" on="1"/>
        <pt x="85" y="350" on="1"/>
        <pt x="465" y="350" on="1"/>
      </contour>
    </TTGlyph>
    <TTGlyph name="mu" xMin="80" yMin="-170" xMax="414" yMax="500">
      <contour>
        <pt x="165" y="-170" on="1"/>
        <pt x="80" y="-170" on="1"/>
        <pt x="80" y="500" on="1"/>
        <pt x="165" y="500" on="1"/>
        <pt x="165" y="140" on="1"/>
        <pt x="165" y="110" on="0"/>
        <pt x="200" y="75" on="0"/>
        <pt x="230" y="75" on="1"/>
        <pt x="264" y="75" on="1"/>
        <pt x="297" y="75" on="0"/>
        <pt x="329" y="110" on="0"/>
        <pt x="329" y="130" on="1"/>
        <pt x="329" y="500" on="1"/>
        <pt x="414" y="500" on="1"/>
        <pt x="414" y="0" on="1"/>
        <pt x="334" y="0" on="1"/>
        <pt x="334" y="23" on="1"/>
        <pt x="301" y="0" on="0"/>
        <pt x="254" y="0" on="1"/>
        <pt x="240" y="0" on="1"/>
        <pt x="195" y="0" on="0"/>
        <pt x="165" y="10" on="1"/>
      </contour>
    </TTGlyph>
    <TTGlyph name="multiply" xMin="102" yMin="137" xMax="448" yMax="483">
      <contour>
        <pt x="392" y="137" on="1"/>
        <pt x="275" y="253" on="1"/>
        <pt x="158" y="137" on="1"/>
        <pt x="102" y="193" on="1"/>
        <pt x="218" y="310" on="1"/>
        <pt x="102" y="427" on="1"/>
        <pt x="158" y="483" on="1"/>
        <pt x="275" y="367" on="1"/>
        <pt x="392" y="483" on="1"/>
        <pt x="448" y="427" on="1"/>
        <pt x="332" y="310" on="1"/>
        <pt x="448" y="193" on="1"/>
      </contour>
    </TTGlyph>
    <TTGlyph name="n" xMin="80" yMin="0" xMax="426" yMax="500">
      <contour>
        <pt x="165" y="0" on="1"/>
        <pt x="80" y="0" on="1"/>
        <pt x="80" y="500" on="1"/>
        <pt x="160" y="500" on="1"/>
        <pt x="160" y="476" on="1"/>
        <pt x="191" y="500" on="0"/>
        <pt x="240" y="500" on="1"/>
        <pt x="266" y="500" on="1"/>
        <pt x="347" y="500" on="0"/>
        <pt x="426" y="424" on="0"/>
        <pt x="426" y="340" on="1"/>
        <pt x="426" y="0" on="1"/>
        <pt x="341" y="0" on="1"/>
        <pt x="341" y="360" on="1"/>
        <pt x="341" y="390" on="0"/>
        <pt x="306" y="425" on="0"/>
        <pt x="276" y="425" on="1"/>
        <pt x="230" y="425" on="1"/>
        <pt x="197" y="425" on="0"/>
        <pt x="165" y="390" on="0"/>
        <pt x="165" y="370" on="1"/>
      </contour>
    </TTGlyph>
    <TTGlyph name="nine" xMin="65" yMin="0" xMax="406" yMax="700">
      <contour>
        <pt x="65" y="530" on="1"/>
        <pt x="65" y="612" on="0"/>
        <pt x="155" y="700" on="0"/>
        <pt x="223" y="700" on="1"/>
        <pt x="248" y="700" on="1"/>
        <pt x="316" y="700" on="0"/>
        <pt x="406" y="612" on="0"/>
        <pt x="406" y="530" on="1"/>
        <pt x="406" y="170" on="1"/>
        <pt x="406" y="0" on="0"/>
        <pt x="228" y="0" on="1"/>
        <pt x="123" y="0" on="1"/>
        <pt x="123" y="76" on="1"/>
        <pt x="238" y="76" on="1"/>
        <pt x="275" y="76" on="0"/>
        <pt x="321" y="120" on="0"/>
        <pt x="321" y="151" on="1"/>
        <pt x="321" y="260" on="1"/>
        <pt x="233" y="260" on="1"/>
        <pt x="147" y="260" on="0"/>
        <pt x="65" y="336" on="0"/>
        <pt x="65" y="420" on="1"/>
      </contour>
      <contour>
        <pt x="223" y="335" on="1"/>
        <pt x="321" y="335" on="1"/>
        <pt x="321" y="549" on="1"/>
        <pt x="321" y="581" on="0"/>
        <pt x="279" y="625" on="0"/>
        <pt x="243" y="625" on="1"/>
        <pt x="228" y="625" on="1"/>
        <pt x="192" y="625" on="0"/>
        <pt x="150" y="581" on="0"/>
        <pt x="150" y="549" on="1"/>
        <pt x="150" y="401" on="1"/>
        <pt x="150" y="335" on="0"/>
      </contour>
    </TTGlyph>
    <TTGlyph name="notequal" xMin="85" yMin="70" xMax="465" yMax="555">
      <contour>
        <pt x="465" y="375" on="1"/>
        <pt x="354" y="375" on="1"/>
        <pt x="276" y="250" on="1"/>
        <pt x="465" y="250" on="1"/>
        <pt x="465" y="175" on="1"/>
        <pt x="230" y="175" on="1"/>
        <pt x="165" y="70" on="1"/>
        <pt x="85" y="70" on="1"/>
        <pt x="150" y="175" on="1"/>
        <pt x="85" y="175" on="1"/>
        <pt x="85" y="250" on="1"/>
        <pt x="196" y="250" on="1"/>
        <pt x="274" y="375" on="1"/>
        <pt x="85" y="375" on="1"/>
        <pt x="85" y="450" on="1"/>
        <pt x="320" y="450" on="1"/>
        <pt x="385" y="555" on="1"/>
        <pt x="465" y="555" on="1"/>
        <pt x="400" y="450" on="1"/>
        <pt x="465" y="450" on="1"/>
      </contour>
    </TTGlyph>
    <TTGlyph name="ntilde" xMin="80" yMin="0" xMax="426" yMax="700">
      <contour>
        <pt x="165" y="0" on="1"/>
        <pt x="80" y="0" on="1"/>
        <pt x="80" y="500" on="1"/>
        <pt x="160" y="500" on="1"/>
        <pt x="160" y="476" on="1"/>
        <pt x="191" y="500" on="0"/>
        <pt x="240" y="500" on="1"/>
        <pt x="266" y="500" on="1"/>
        <pt x="347" y="500" on="0"/>
        <pt x="426" y="424" on="0"/>
        <pt x="426" y="340" on="1"/>
        <pt x="426" y="0" on="1"/>
        <pt x="341" y="0" on="1"/>
        <pt x="341" y="360" on="1"/>
        <pt x="341" y="390" on="0"/>
        <pt x="306" y="425" on="0"/>
        <pt x="276" y="425" on="1"/>
        <pt x="230" y="425" on="1"/>
        <pt x="197" y="425" on="0"/>
        <pt x="165" y="390" on="0"/>
        <pt x="165" y="370" on="1"/>
      </contour>
      <contour>
        <pt x="207" y="700" on="1"/>
        <pt x="222" y="700" on="1"/>
        <pt x="234" y="700" on="0"/>
        <pt x="322" y="660" on="0"/>
        <pt x="333" y="660" on="1"/>
        <pt x="343" y="660" on="1"/>
        <pt x="354" y="660" on="0"/>
        <pt x="396" y="687" on="1"/>
        <pt x="410" y="696" on="1"/>
        <pt x="410" y="624" on="1"/>
        <pt x="359" y="591" on="0"/>
        <pt x="342" y="591" on="1"/>
        <pt x="327" y="591" on="1"/>
        <pt x="321" y="591" on="0"/>
        <pt x="228" y="631" on="0"/>
        <pt x="217" y="631" on="1"/>
        <pt x="207" y="631" on="1"/>
        <pt x="194" y="631" on="0"/>
        <pt x="146" y="604" on="1"/>
        <pt x="130" y="595" on="1"/>
        <pt x="130" y="667" on="1"/>
        <pt x="188" y="700" on="0"/>
      </contour>
    </TTGlyph>
    <TTGlyph name="numbersign" xMin="43" yMin="0" xMax="423" yMax="700">
      <contour>
        <pt x="273" y="255" on="1"/>
        <pt x="273" y="455" on="1"/>
        <pt x="193" y="455" on="1"/>
        <pt x="193" y="255" on="1"/>
      </contour>
      <contour>
        <pt x="423" y="180" on="1"/>
        <pt x="353" y="180" on="1"/>
        <pt x="353" y="0" on="1"/>
        <pt x="273" y="0" on="1"/>
        <pt x="273" y="180" on="1"/>
        <pt x="193" y="180" on="1"/>
        <pt x="193" y="0" on="1"/>
        <pt x="113" y="0" on="1"/>
        <pt x="113" y="180" on="1"/>
        <pt x="43" y="180" on="1"/>
        <pt x="43" y="255" on="1"/>
        <pt x="113" y="255" on="1"/>
        <pt x="113" y="455" on="1"/>
        <pt x="43" y="455" on="1"/>
        <pt x="43" y="530" on="1"/>
        <pt x="113" y="530" on="1"/>
        <pt x="113" y="700" on="1"/>
        <pt x="193" y="700" on="1"/>
        <pt x="193" y="530" on="1"/>
        <pt x="273" y="530" on="1"/>
        <pt x="273" y="700" on="1"/>
        <pt x="353" y="700" on="1"/>
        <pt x="353" y="530" on="1"/>
        <pt x="423" y="530" on="1"/>
        <pt x="423" y="455" on="1"/>
        <pt x="353" y="455" on="1"/>
        <pt x="353" y="255" on="1"/>
        <pt x="423" y="255" on="1"/>
      </contour>
    </TTGlyph>
    <TTGlyph name="o" xMin="70" yMin="0" xMax="423" yMax="500">
      <contour>
        <pt x="423" y="160" on="1"/>
        <pt x="423" y="76" on="0"/>
        <pt x="340" y="0" on="0"/>
        <pt x="253" y="0" on="1"/>
        <pt x="240" y="0" on="1"/>
        <pt x="153" y="0" on="0"/>
        <pt x="70" y="76" on="0"/>
        <pt x="70" y="160" on="1"/>
        <pt x="70" y="340" on="1"/>
        <pt x="70" y="424" on="0"/>
        <pt x="153" y="500" on="0"/>
        <pt x="240" y="500" on="1"/>
        <pt x="253" y="500" on="1"/>
        <pt x="340" y="500" on="0"/>
        <pt x="423" y="424" on="0"/>
        <pt x="423" y="340" on="1"/>
      </contour>
      <contour>
        <pt x="338" y="140" on="1"/>
        <pt x="338" y="360" on="1"/>
        <pt x="338" y="425" on="0"/>
        <pt x="263" y="425" on="1"/>
        <pt x="230" y="425" on="1"/>
        <pt x="155" y="425" on="0"/>
        <pt x="155" y="360" on="1"/>
        <pt x="155" y="140" on="1"/>
        <pt x="155" y="75" on="0"/>
        <pt x="230" y="75" on="1"/>
        <pt x="263" y="75" on="1"/>
        <pt x="338" y="75" on="0"/>
      </contour>
    </TTGlyph>
    <TTGlyph name="oacute" xMin="70" yMin="0" xMax="423" yMax="715">
      <contour>
        <pt x="423" y="160" on="1"/>
        <pt x="423" y="76" on="0"/>
        <pt x="340" y="0" on="0"/>
        <pt x="253" y="0" on="1"/>
        <pt x="240" y="0" on="1"/>
        <pt x="153" y="0" on="0"/>
        <pt x="70" y="76" on="0"/>
        <pt x="70" y="160" on="1"/>
        <pt x="70" y="340" on="1"/>
        <pt x="70" y="424" on="0"/>
        <pt x="153" y="500" on="0"/>
        <pt x="240" y="500" on="1"/>
        <pt x="253" y="500" on="1"/>
        <pt x="340" y="500" on="0"/>
        <pt x="423" y="424" on="0"/>
        <pt x="423" y="340" on="1"/>
      </contour>
      <contour>
        <pt x="338" y="140" on="1"/>
        <pt x="338" y="360" on="1"/>
        <pt x="338" y="425" on="0"/>
        <pt x="263" y="425" on="1"/>
        <pt x="230" y="425" on="1"/>
        <pt x="155" y="425" on="0"/>
        <pt x="155" y="360" on="1"/>
        <pt x="155" y="140" on="1"/>
        <pt x="155" y="75" on="0"/>
        <pt x="230" y="75" on="1"/>
        <pt x="263" y="75" on="1"/>
        <pt x="338" y="75" on="0"/>
      </contour>
      <contour>
        <pt x="268" y="580" on="1"/>
        <pt x="182" y="580" on="1"/>
        <pt x="286" y="715" on="1"/>
        <pt x="395" y="715" on="1"/>
      </contour>
    </TTGlyph>
    <TTGlyph name="ocircumflex" xMin="70" yMin="0" xMax="423" yMax="715">
      <contour>
        <pt x="423" y="160" on="1"/>
        <pt x="423" y="76" on="0"/>
        <pt x="340" y="0" on="0"/>
        <pt x="253" y="0" on="1"/>
        <pt x="240" y="0" on="1"/>
        <pt x="153" y="0" on="0"/>
        <pt x="70" y="76" on="0"/>
        <pt x="70" y="160" on="1"/>
        <pt x="70" y="340" on="1"/>
        <pt x="70" y="424" on="0"/>
        <pt x="153" y="500" on="0"/>
        <pt x="240" y="500" on="1"/>
        <pt x="253" y="500" on="1"/>
        <pt x="340" y="500" on="0"/>
        <pt x="423" y="424" on="0"/>
        <pt x="423" y="340" on="1"/>
      </contour>
      <contour>
        <pt x="338" y="140" on="1"/>
        <pt x="338" y="360" on="1"/>
        <pt x="338" y="425" on="0"/>
        <pt x="263" y="425" on="1"/>
        <pt x="230" y="425" on="1"/>
        <pt x="155" y="425" on="0"/>
        <pt x="155" y="360" on="1"/>
        <pt x="155" y="140" on="1"/>
        <pt x="155" y="75" on="0"/>
        <pt x="230" y="75" on="1"/>
        <pt x="263" y="75" on="1"/>
        <pt x="338" y="75" on="0"/>
      </contour>
      <contour>
        <pt x="405" y="580" on="1"/>
        <pt x="308" y="580" on="1"/>
        <pt x="248" y="655" on="1"/>
        <pt x="188" y="580" on="1"/>
        <pt x="92" y="580" on="1"/>
        <pt x="204" y="715" on="1"/>
        <pt x="292" y="715" on="1"/>
      </contour>
    </TTGlyph>
    <TTGlyph name="odieresis" xMin="70" yMin="0" xMax="423" yMax="675">
      <contour>
        <pt x="423" y="160" on="1"/>
        <pt x="423" y="76" on="0"/>
        <pt x="340" y="0" on="0"/>
        <pt x="253" y="0" on="1"/>
        <pt x="240" y="0" on="1"/>
        <pt x="153" y="0" on="0"/>
        <pt x="70" y="76" on="0"/>
        <pt x="70" y="160" on="1"/>
        <pt x="70" y="340" on="1"/>
        <pt x="70" y="424" on="0"/>
        <pt x="153" y="500" on="0"/>
        <pt x="240" y="500" on="1"/>
        <pt x="253" y="500" on="1"/>
        <pt x="340" y="500" on="0"/>
        <pt x="423" y="424" on="0"/>
        <pt x="423" y="340" on="1"/>
      </contour>
      <contour>
        <pt x="338" y="140" on="1"/>
        <pt x="338" y="360" on="1"/>
        <pt x="338" y="425" on="0"/>
        <pt x="263" y="425" on="1"/>
        <pt x="230" y="425" on="1"/>
        <pt x="155" y="425" on="0"/>
        <pt x="155" y="360" on="1"/>
        <pt x="155" y="140" on="1"/>
        <pt x="155" y="75" on="0"/>
        <pt x="230" y="75" on="1"/>
        <pt x="263" y="75" on="1"/>
        <pt x="338" y="75" on="0"/>
      </contour>
      <contour>
        <pt x="391" y="595" on="1"/>
        <pt x="306" y="595" on="1"/>
        <pt x="306" y="675" on="1"/>
        <pt x="391" y="675" on="1"/>
      </contour>
      <contour>
        <pt x="191" y="595" on="1"/>
        <pt x="106" y="595" on="1"/>
        <pt x="106" y="675" on="1"/>
        <pt x="191" y="675" on="1"/>
      </contour>
    </TTGlyph>
    <TTGlyph name="oe" xMin="70" yMin="0" xMax="669" yMax="500">
      <contour>
        <pt x="637" y="0" on="1"/>
        <pt x="508" y="0" on="1"/>
        <pt x="424" y="0" on="0"/>
        <pt x="380" y="39" on="1"/>
        <pt x="336" y="0" on="0"/>
        <pt x="253" y="0" on="1"/>
        <pt x="240" y="0" on="1"/>
        <pt x="153" y="0" on="0"/>
        <pt x="70" y="76" on="0"/>
        <pt x="70" y="160" on="1"/>
        <pt x="70" y="340" on="1"/>
        <pt x="70" y="424" on="0"/>
        <pt x="153" y="500" on="0"/>
        <pt x="240" y="500" on="1"/>
        <pt x="253" y="500" on="1"/>
        <pt x="332" y="500" on="0"/>
        <pt x="378" y="461" on="1"/>
        <pt x="419" y="500" on="0"/>
        <pt x="498" y="500" on="1"/>
        <pt x="525" y="500" on="1"/>
        <pt x="669" y="500" on="0"/>
        <pt x="669" y="345" on="1"/>
        <pt x="669" y="215" on="1"/>
        <pt x="423" y="215" on="1"/>
        <pt x="423" y="140" on="1"/>
        <pt x="423" y="75" on="0"/>
        <pt x="498" y="75" on="1"/>
        <pt x="637" y="75" on="1"/>
      </contour>
      <contour>
        <pt x="338" y="140" on="1"/>
        <pt x="338" y="360" on="1"/>
        <pt x="338" y="425" on="0"/>
        <pt x="263" y="425" on="1"/>
        <pt x="230" y="425" on="1"/>
        <pt x="155" y="425" on="0"/>
        <pt x="155" y="360" on="1"/>
        <pt x="155" y="140" on="1"/>
        <pt x="155" y="75" on="0"/>
        <pt x="230" y="75" on="1"/>
        <pt x="263" y="75" on="1"/>
        <pt x="338" y="75" on="0"/>
      </contour>
      <contour>
        <pt x="423" y="360" on="1"/>
        <pt x="423" y="290" on="1"/>
        <pt x="586" y="290" on="1"/>
        <pt x="586" y="365" on="1"/>
        <pt x="586" y="391" on="0"/>
        <pt x="552" y="425" on="0"/>
        <pt x="526" y="425" on="1"/>
        <pt x="488" y="425" on="1"/>
        <pt x="452" y="425" on="0"/>
        <pt x="423" y="392" on="0"/>
      </contour>
    </TTGlyph>
    <TTGlyph name="ogonek" xMin="75" yMin="-180" xMax="252" yMax="60">
      <contour>
        <pt x="252" y="-180" on="1"/>
        <pt x="163" y="-180" on="1"/>
        <pt x="102" y="-180" on="0"/>
        <pt x="84" y="-136" on="1"/>
        <pt x="75" y="-116" on="0"/>
        <pt x="75" y="-85" on="1"/>
        <pt x="75" y="60" on="1"/>
        <pt x="149" y="60" on="1"/>
        <pt x="149" y="-85" on="1"/>
        <pt x="149" y="-113" on="0"/>
        <pt x="181" y="-113" on="1"/>
        <pt x="252" y="-113" on="1"/>
      </contour>
    </TTGlyph>
    <TTGlyph name="ograve" xMin="70" yMin="0" xMax="423" yMax="715">
      <contour>
        <pt x="423" y="160" on="1"/>
        <pt x="423" y="76" on="0"/>
        <pt x="340" y="0" on="0"/>
        <pt x="253" y="0" on="1"/>
        <pt x="240" y="0" on="1"/>
        <pt x="153" y="0" on="0"/>
        <pt x="70" y="76" on="0"/>
        <pt x="70" y="160" on="1"/>
        <pt x="70" y="340" on="1"/>
        <pt x="70" y="424" on="0"/>
        <pt x="153" y="500" on="0"/>
        <pt x="240" y="500" on="1"/>
        <pt x="253" y="500" on="1"/>
        <pt x="340" y="500" on="0"/>
        <pt x="423" y="424" on="0"/>
        <pt x="423" y="340" on="1"/>
      </contour>
      <contour>
        <pt x="338" y="140" on="1"/>
        <pt x="338" y="360" on="1"/>
        <pt x="338" y="425" on="0"/>
        <pt x="263" y="425" on="1"/>
        <pt x="230" y="425" on="1"/>
        <pt x="155" y="425" on="0"/>
        <pt x="155" y="360" on="1"/>
        <pt x="155" y="140" on="1"/>
        <pt x="155" y="75" on="0"/>
        <pt x="230" y="75" on="1"/>
        <pt x="263" y="75" on="1"/>
        <pt x="338" y="75" on="0"/>
      </contour>
      <contour>
        <pt x="341" y="580" on="1"/>
        <pt x="255" y="580" on="1"/>
        <pt x="128" y="715" on="1"/>
        <pt x="237" y="715" on="1"/>
      </contour>
    </TTGlyph>
    <TTGlyph name="one" xMin="82" yMin="0" xMax="397" yMax="700">
      <contour>
        <pt x="397" y="0" on="1"/>
        <pt x="92" y="0" on="1"/>
        <pt x="92" y="75" on="1"/>
        <pt x="213" y="75" on="1"/>
        <pt x="213" y="621" on="1"/>
        <pt x="82" y="569" on="1"/>
        <pt x="82" y="650" on="1"/>
        <pt x="203" y="700" on="1"/>
        <pt x="298" y="700" on="1"/>
        <pt x="298" y="75" on="1"/>
        <pt x="397" y="75" on="1"/>
      </contour>
    </TTGlyph>
    <TTGlyph name="onehalf" xMin="84" yMin="-100" xMax="821" yMax="810">
      <contour>
        <pt x="331" y="205" on="1"/>
        <pt x="92" y="205" on="1"/>
        <pt x="92" y="269" on="1"/>
        <pt x="183" y="269" on="1"/>
        <pt x="183" y="633" on="1"/>
        <pt x="84" y="594" on="1"/>
        <pt x="84" y="662" on="1"/>
        <pt x="175" y="700" on="1"/>
        <pt x="257" y="700" on="1"/>
        <pt x="257" y="269" on="1"/>
        <pt x="331" y="269" on="1"/>
      </contour>
      <contour>
        <pt x="821" y="0" on="1"/>
        <pt x="581" y="0" on="1"/>
        <pt x="581" y="73" on="1"/>
        <pt x="693" y="226" on="1"/>
        <pt x="726" y="271" on="0"/>
        <pt x="743" y="309" on="0"/>
        <pt x="743" y="346" on="1"/>
        <pt x="743" y="382" on="1"/>
        <pt x="743" y="431" on="0"/>
        <pt x="682" y="431" on="1"/>
        <pt x="596" y="431" on="1"/>
        <pt x="596" y="495" on="1"/>
        <pt x="675" y="495" on="1"/>
        <pt x="749" y="495" on="0"/>
        <pt x="816" y="438" on="0"/>
        <pt x="816" y="376" on="1"/>
        <pt x="816" y="353" on="1"/>
        <pt x="816" y="285" on="0"/>
        <pt x="794" y="250" on="1"/>
        <pt x="786" y="236" on="0"/>
        <pt x="762" y="203" on="1"/>
        <pt x="659" y="64" on="1"/>
        <pt x="821" y="64" on="1"/>
      </contour>
      <contour>
        <pt x="651" y="810" on="1"/>
        <pt x="331" y="-100" on="1"/>
        <pt x="251" y="-100" on="1"/>
        <pt x="581" y="810" on="1"/>
      </contour>
    </TTGlyph>
    <TTGlyph name="onequarter" xMin="84" yMin="-100" xMax="785" yMax="810">
      <contour>
        <pt x="331" y="205" on="1"/>
        <pt x="92" y="205" on="1"/>
        <pt x="92" y="269" on="1"/>
        <pt x="183" y="269" on="1"/>
        <pt x="183" y="633" on="1"/>
        <pt x="84" y="594" on="1"/>
        <pt x="84" y="662" on="1"/>
        <pt x="175" y="700" on="1"/>
        <pt x="257" y="700" on="1"/>
        <pt x="257" y="269" on="1"/>
        <pt x="331" y="269" on="1"/>
      </contour>
      <contour>
        <pt x="785" y="117" on="1"/>
        <pt x="735" y="117" on="1"/>
        <pt x="735" y="0" on="1"/>
        <pt x="661" y="0" on="1"/>
        <pt x="661" y="117" on="1"/>
        <pt x="514" y="117" on="1"/>
        <pt x="514" y="191" on="1"/>
        <pt x="588" y="495" on="1"/>
        <pt x="657" y="495" on="1"/>
        <pt x="584" y="181" on="1"/>
        <pt x="661" y="181" on="1"/>
        <pt x="668" y="324" on="1"/>
        <pt x="735" y="324" on="1"/>
        <pt x="735" y="181" on="1"/>
        <pt x="785" y="181" on="1"/>
      </contour>
      <contour>
        <pt x="646" y="810" on="1"/>
        <pt x="326" y="-100" on="1"/>
        <pt x="246" y="-100" on="1"/>
        <pt x="566" y="810" on="1"/>
      </contour>
    </TTGlyph>
    <TTGlyph name="onesuperior" xMin="94" yMin="205" xMax="341" yMax="700">
      <contour>
        <pt x="341" y="205" on="1"/>
        <pt x="102" y="205" on="1"/>
        <pt x="102" y="269" on="1"/>
        <pt x="193" y="269" on="1"/>
        <pt x="193" y="633" on="1"/>
        <pt x="94" y="594" on="1"/>
        <pt x="94" y="662" on="1"/>
        <pt x="185" y="700" on="1"/>
        <pt x="267" y="700" on="1"/>
        <pt x="267" y="269" on="1"/>
        <pt x="341" y="269" on="1"/>
      </contour>
    </TTGlyph>
    <TTGlyph name="ordfeminine" xMin="48" yMin="0" xMax="337" yMax="700">
      <contour>
        <pt x="337" y="324" on="1"/>
        <pt x="292" y="324" on="1"/>
        <pt x="269" y="324" on="0"/>
        <pt x="252" y="344" on="1"/>
        <pt x="235" y="324" on="0"/>
        <pt x="209" y="324" on="1"/>
        <pt x="157" y="324" on="1"/>
        <pt x="100" y="324" on="0"/>
        <pt x="48" y="371" on="0"/>
        <pt x="48" y="426" on="1"/>
        <pt x="48" y="441" on="1"/>
        <pt x="48" y="557" on="0"/>
        <pt x="158" y="557" on="1"/>
        <pt x="232" y="557" on="1"/>
        <pt x="232" y="595" on="1"/>
        <pt x="232" y="639" on="0"/>
        <pt x="179" y="639" on="1"/>
        <pt x="78" y="639" on="1"/>
        <pt x="78" y="700" on="1"/>
        <pt x="172" y="700" on="1"/>
        <pt x="237" y="700" on="0"/>
        <pt x="300" y="643" on="0"/>
        <pt x="300" y="580" on="1"/>
        <pt x="300" y="399" on="1"/>
        <pt x="300" y="377" on="0"/>
        <pt x="337" y="377" on="1"/>
      </contour>
      <contour>
        <pt x="321" y="0" on="1"/>
        <pt x="70" y="0" on="1"/>
        <pt x="70" y="75" on="1"/>
        <pt x="321" y="75" on="1"/>
      </contour>
      <contour>
        <pt x="197" y="383" on="1"/>
        <pt x="213" y="383" on="0"/>
        <pt x="230" y="397" on="0"/>
        <pt x="232" y="409" on="0"/>
        <pt x="232" y="420" on="1"/>
        <pt x="232" y="499" on="1"/>
        <pt x="161" y="499" on="1"/>
        <pt x="142" y="499" on="0"/>
        <pt x="116" y="474" on="0"/>
        <pt x="116" y="454" on="1"/>
        <pt x="116" y="422" on="1"/>
        <pt x="116" y="383" on="0"/>
        <pt x="153" y="383" on="1"/>
      </contour>
    </TTGlyph>
    <TTGlyph name="ordmasculine" xMin="70" yMin="0" xMax="346" yMax="702">
      <contour>
        <pt x="346" y="0" on="1"/>
        <pt x="70" y="0" on="1"/>
        <pt x="70" y="75" on="1"/>
        <pt x="346" y="75" on="1"/>
      </contour>
      <contour>
        <pt x="338" y="446" on="1"/>
        <pt x="338" y="383" on="0"/>
        <pt x="276" y="326" on="0"/>
        <pt x="211" y="326" on="1"/>
        <pt x="201" y="326" on="1"/>
        <pt x="135" y="326" on="0"/>
        <pt x="73" y="383" on="0"/>
        <pt x="73" y="446" on="1"/>
        <pt x="73" y="582" on="1"/>
        <pt x="73" y="645" on="0"/>
        <pt x="135" y="702" on="0"/>
        <pt x="201" y="702" on="1"/>
        <pt x="211" y="702" on="1"/>
        <pt x="276" y="702" on="0"/>
        <pt x="338" y="645" on="0"/>
        <pt x="338" y="582" on="1"/>
      </contour>
      <contour>
        <pt x="270" y="435" on="1"/>
        <pt x="270" y="593" on="1"/>
        <pt x="270" y="641" on="0"/>
        <pt x="214" y="641" on="1"/>
        <pt x="197" y="641" on="1"/>
        <pt x="141" y="641" on="0"/>
        <pt x="141" y="593" on="1"/>
        <pt x="141" y="435" on="1"/>
        <pt x="141" y="387" on="0"/>
        <pt x="197" y="387" on="1"/>
        <pt x="214" y="387" on="1"/>
        <pt x="270" y="387" on="0"/>
      </contour>
    </TTGlyph>
    <TTGlyph name="oslash" xMin="70" yMin="-89" xMax="423" yMax="589">
      <contour>
        <pt x="423" y="160" on="1"/>
        <pt x="423" y="76" on="0"/>
        <pt x="340" y="0" on="0"/>
        <pt x="253" y="0" on="1"/>
        <pt x="240" y="0" on="1"/>
        <pt x="220" y="0" on="0"/>
        <pt x="211" y="1" on="1"/>
        <pt x="184" y="-89" on="1"/>
        <pt x="106" y="-89" on="1"/>
        <pt x="139" y="19" on="1"/>
        <pt x="70" y="53" on="0"/>
        <pt x="70" y="160" on="1"/>
        <pt x="70" y="340" on="1"/>
        <pt x="70" y="424" on="0"/>
        <pt x="153" y="500" on="0"/>
        <pt x="240" y="500" on="1"/>
        <pt x="253" y="500" on="1"/>
        <pt x="264" y="500" on="0"/>
        <pt x="284" y="498" on="1"/>
        <pt x="312" y="589" on="1"/>
        <pt x="389" y="589" on="1"/>
        <pt x="356" y="480" on="1"/>
        <pt x="423" y="444" on="0"/>
        <pt x="423" y="340" on="1"/>
      </contour>
      <contour>
        <pt x="155" y="140" on="1"/>
        <pt x="155" y="118" on="0"/>
        <pt x="164" y="103" on="1"/>
        <pt x="262" y="425" on="1"/>
        <pt x="230" y="425" on="1"/>
        <pt x="155" y="425" on="0"/>
        <pt x="155" y="360" on="1"/>
      </contour>
      <contour>
        <pt x="338" y="140" on="1"/>
        <pt x="338" y="360" on="1"/>
        <pt x="338" y="378" on="0"/>
        <pt x="330" y="394" on="1"/>
        <pt x="234" y="75" on="1"/>
        <pt x="263" y="75" on="1"/>
        <pt x="338" y="75" on="0"/>
      </contour>
    </TTGlyph>
    <TTGlyph name="otilde" xMin="70" yMin="0" xMax="423" yMax="700">
      <contour>
        <pt x="423" y="160" on="1"/>
        <pt x="423" y="76" on="0"/>
        <pt x="340" y="0" on="0"/>
        <pt x="253" y="0" on="1"/>
        <pt x="240" y="0" on="1"/>
        <pt x="153" y="0" on="0"/>
        <pt x="70" y="76" on="0"/>
        <pt x="70" y="160" on="1"/>
        <pt x="70" y="340" on="1"/>
        <pt x="70" y="424" on="0"/>
        <pt x="153" y="500" on="0"/>
        <pt x="240" y="500" on="1"/>
        <pt x="253" y="500" on="1"/>
        <pt x="340" y="500" on="0"/>
        <pt x="423" y="424" on="0"/>
        <pt x="423" y="340" on="1"/>
      </contour>
      <contour>
        <pt x="338" y="140" on="1"/>
        <pt x="338" y="360" on="1"/>
        <pt x="338" y="425" on="0"/>
        <pt x="263" y="425" on="1"/>
        <pt x="230" y="425" on="1"/>
        <pt x="155" y="425" on="0"/>
        <pt x="155" y="360" on="1"/>
        <pt x="155" y="140" on="1"/>
        <pt x="155" y="75" on="0"/>
        <pt x="230" y="75" on="1"/>
        <pt x="263" y="75" on="1"/>
        <pt x="338" y="75" on="0"/>
      </contour>
      <contour>
        <pt x="182" y="700" on="1"/>
        <pt x="197" y="700" on="1"/>
        <pt x="209" y="700" on="0"/>
        <pt x="297" y="660" on="0"/>
        <pt x="308" y="660" on="1"/>
        <pt x="318" y="660" on="1"/>
        <pt x="329" y="660" on="0"/>
        <pt x="371" y="687" on="1"/>
        <pt x="385" y="696" on="1"/>
        <pt x="385" y="624" on="1"/>
        <pt x="334" y="591" on="0"/>
        <pt x="317" y="591" on="1"/>
        <pt x="302" y="591" on="1"/>
        <pt x="296" y="591" on="0"/>
        <pt x="203" y="631" on="0"/>
        <pt x="192" y="631" on="1"/>
        <pt x="182" y="631" on="1"/>
        <pt x="169" y="631" on="0"/>
        <pt x="121" y="604" on="1"/>
        <pt x="105" y="595" on="1"/>
        <pt x="105" y="667" on="1"/>
        <pt x="163" y="700" on="0"/>
      </contour>
    </TTGlyph>
    <TTGlyph name="p" xMin="80" yMin="-170" xMax="426" yMax="500">
      <contour>
        <pt x="165" y="-170" on="1"/>
        <pt x="80" y="-170" on="1"/>
        <pt x="80" y="500" on="1"/>
        <pt x="160" y="500" on="1"/>
        <pt x="160" y="476" on="1"/>
        <pt x="191" y="500" on="0"/>
        <pt x="240" y="500" on="1"/>
        <pt x="256" y="500" on="1"/>
        <pt x="344" y="500" on="0"/>
        <pt x="426" y="425" on="0"/>
        <pt x="426" y="340" on="1"/>
        <pt x="426" y="160" on="1"/>
        <pt x="426" y="76" on="0"/>
        <pt x="343" y="0" on="0"/>
        <pt x="256" y="0" on="1"/>
        <pt x="165" y="0" on="1"/>
      </contour>
      <contour>
        <pt x="230" y="425" on="1"/>
        <pt x="197" y="425" on="0"/>
        <pt x="165" y="390" on="0"/>
        <pt x="165" y="370" on="1"/>
        <pt x="165" y="75" on="1"/>
        <pt x="266" y="75" on="1"/>
        <pt x="341" y="75" on="0"/>
        <pt x="341" y="140" on="1"/>
        <pt x="341" y="360" on="1"/>
        <pt x="341" y="425" on="0"/>
        <pt x="266" y="425" on="1"/>
      </contour>
    </TTGlyph>
    <TTGlyph name="paragraph" xMin="51" yMin="0" xMax="442" yMax="700">
      <contour>
        <pt x="307" y="0" on="1"/>
        <pt x="224" y="0" on="1"/>
        <pt x="224" y="374" on="1"/>
        <pt x="218" y="374" on="1"/>
        <pt x="130" y="374" on="0"/>
        <pt x="51" y="443" on="0"/>
        <pt x="51" y="527" on="1"/>
        <pt x="51" y="540" on="1"/>
        <pt x="51" y="625" on="0"/>
        <pt x="131" y="700" on="0"/>
        <pt x="218" y="700" on="1"/>
        <pt x="307" y="700" on="1"/>
        <pt x="307" y="630" on="1"/>
        <pt x="207" y="630" on="1"/>
        <pt x="171" y="630" on="0"/>
        <pt x="132" y="591" on="0"/>
        <pt x="132" y="560" on="1"/>
        <pt x="132" y="507" on="1"/>
        <pt x="132" y="442" on="0"/>
        <pt x="207" y="442" on="1"/>
        <pt x="307" y="442" on="1"/>
      </contour>
      <contour>
        <pt x="442" y="0" on="1"/>
        <pt x="362" y="0" on="1"/>
        <pt x="362" y="700" on="1"/>
        <pt x="442" y="700" on="1"/>
      </contour>
    </TTGlyph>
    <TTGlyph name="parenleft" xMin="60" yMin="-120" xMax="260" yMax="820">
      <contour>
        <pt x="60" y="505" on="1"/>
        <pt x="60" y="621" on="0"/>
        <pt x="119" y="765" on="0"/>
        <pt x="172" y="820" on="1"/>
        <pt x="260" y="820" on="1"/>
        <pt x="191" y="736" on="0"/>
        <pt x="145" y="619" on="0"/>
        <pt x="145" y="507" on="1"/>
        <pt x="145" y="193" on="1"/>
        <pt x="145" y="81" on="0"/>
        <pt x="191" y="-36" on="0"/>
        <pt x="260" y="-120" on="1"/>
        <pt x="172" y="-120" on="1"/>
        <pt x="119" y="-65" on="0"/>
        <pt x="60" y="79" on="0"/>
        <pt x="60" y="195" on="1"/>
      </contour>
    </TTGlyph>
    <TTGlyph name="parenright" xMin="60" yMin="-120" xMax="260" yMax="820">
      <contour>
        <pt x="260" y="505" on="1"/>
        <pt x="260" y="195" on="1"/>
        <pt x="260" y="79" on="0"/>
        <pt x="201" y="-65" on="0"/>
        <pt x="148" y="-120" on="1"/>
        <pt x="60" y="-120" on="1"/>
        <pt x="129" y="-36" on="0"/>
        <pt x="175" y="81" on="0"/>
        <pt x="175" y="193" on="1"/>
        <pt x="175" y="507" on="1"/>
        <pt x="175" y="619" on="0"/>
        <pt x="129" y="736" on="0"/>
        <pt x="60" y="820" on="1"/>
        <pt x="148" y="820" on="1"/>
        <pt x="201" y="765" on="0"/>
        <pt x="260" y="621" on="0"/>
      </contour>
    </TTGlyph>
    <TTGlyph name="partialdiff" xMin="65" yMin="0" xMax="406" yMax="700">
      <contour>
        <pt x="65" y="170" on="1"/>
        <pt x="65" y="280" on="1"/>
        <pt x="65" y="364" on="0"/>
        <pt x="147" y="440" on="0"/>
        <pt x="233" y="440" on="1"/>
        <pt x="321" y="440" on="1"/>
        <pt x="321" y="549" on="1"/>
        <pt x="321" y="580" on="0"/>
        <pt x="275" y="624" on="0"/>
        <pt x="238" y="624" on="1"/>
        <pt x="113" y="624" on="1"/>
        <pt x="113" y="700" on="1"/>
        <pt x="228" y="700" on="1"/>
        <pt x="406" y="700" on="0"/>
        <pt x="406" y="530" on="1"/>
        <pt x="406" y="170" on="1"/>
        <pt x="406" y="88" on="0"/>
        <pt x="316" y="0" on="0"/>
        <pt x="248" y="0" on="1"/>
        <pt x="223" y="0" on="1"/>
        <pt x="155" y="0" on="0"/>
        <pt x="65" y="88" on="0"/>
      </contour>
      <contour>
        <pt x="321" y="365" on="1"/>
        <pt x="223" y="365" on="1"/>
        <pt x="150" y="365" on="0"/>
        <pt x="150" y="299" on="1"/>
        <pt x="150" y="151" on="1"/>
        <pt x="150" y="119" on="0"/>
        <pt x="192" y="75" on="0"/>
        <pt x="228" y="75" on="1"/>
        <pt x="243" y="75" on="1"/>
        <pt x="279" y="75" on="0"/>
        <pt x="321" y="119" on="0"/>
        <pt x="321" y="151" on="1"/>
      </contour>
    </TTGlyph>
    <TTGlyph name="percent" xMin="89" yMin="0" xMax="765" yMax="700">
      <contour>
        <pt x="590" y="700" on="1"/>
        <pt x="351" y="0" on="1"/>
        <pt x="267" y="0" on="1"/>
        <pt x="512" y="700" on="1"/>
      </contour>
      <contour>
        <pt x="351" y="412" on="1"/>
        <pt x="351" y="349" on="0"/>
        <pt x="287" y="284" on="0"/>
        <pt x="229" y="284" on="1"/>
        <pt x="211" y="284" on="1"/>
        <pt x="153" y="284" on="0"/>
        <pt x="89" y="349" on="0"/>
        <pt x="89" y="412" on="1"/>
        <pt x="89" y="572" on="1"/>
        <pt x="89" y="635" on="0"/>
        <pt x="153" y="700" on="0"/>
        <pt x="211" y="700" on="1"/>
        <pt x="229" y="700" on="1"/>
        <pt x="287" y="700" on="0"/>
        <pt x="351" y="635" on="0"/>
        <pt x="351" y="572" on="1"/>
      </contour>
      <contour>
        <pt x="281" y="401" on="1"/>
        <pt x="281" y="583" on="1"/>
        <pt x="281" y="608" on="0"/>
        <pt x="255" y="640" on="0"/>
        <pt x="229" y="640" on="1"/>
        <pt x="211" y="640" on="1"/>
        <pt x="185" y="640" on="0"/>
        <pt x="159" y="608" on="0"/>
        <pt x="159" y="583" on="1"/>
        <pt x="159" y="401" on="1"/>
        <pt x="159" y="376" on="0"/>
        <pt x="185" y="344" on="0"/>
        <pt x="211" y="344" on="1"/>
        <pt x="229" y="344" on="1"/>
        <pt x="255" y="344" on="0"/>
        <pt x="281" y="376" on="0"/>
      </contour>
      <contour>
        <pt x="765" y="128" on="1"/>
        <pt x="765" y="65" on="0"/>
        <pt x="701" y="0" on="0"/>
        <pt x="643" y="0" on="1"/>
        <pt x="625" y="0" on="1"/>
        <pt x="567" y="0" on="0"/>
        <pt x="503" y="65" on="0"/>
        <pt x="503" y="128" on="1"/>
        <pt x="503" y="288" on="1"/>
        <pt x="503" y="351" on="0"/>
        <pt x="567" y="416" on="0"/>
        <pt x="625" y="416" on="1"/>
        <pt x="643" y="416" on="1"/>
        <pt x="701" y="416" on="0"/>
        <pt x="765" y="351" on="0"/>
        <pt x="765" y="288" on="1"/>
      </contour>
      <contour>
        <pt x="695" y="117" on="1"/>
        <pt x="695" y="299" on="1"/>
        <pt x="695" y="324" on="0"/>
        <pt x="669" y="356" on="0"/>
        <pt x="643" y="356" on="1"/>
        <pt x="625" y="356" on="1"/>
        <pt x="599" y="356" on="0"/>
        <pt x="573" y="324" on="0"/>
        <pt x="573" y="299" on="1"/>
        <pt x="573" y="117" on="1"/>
        <pt x="573" y="92" on="0"/>
        <pt x="599" y="60" on="0"/>
        <pt x="625" y="60" on="1"/>
        <pt x="643" y="60" on="1"/>
        <pt x="669" y="60" on="0"/>
        <pt x="695" y="92" on="0"/>
      </contour>
    </TTGlyph>
    <TTGlyph name="period" xMin="65" yMin="0" xMax="165" yMax="100">
      <contour>
        <pt x="165" y="0" on="1"/>
        <pt x="65" y="0" on="1"/>
        <pt x="65" y="100" on="1"/>
        <pt x="165" y="100" on="1"/>
      </contour>
    </TTGlyph>
    <TTGlyph name="periodcentered" xMin="65" yMin="260" xMax="165" yMax="360">
      <contour>
        <pt x="165" y="260" on="1"/>
        <pt x="65" y="260" on="1"/>
        <pt x="65" y="360" on="1"/>
        <pt x="165" y="360" on="1"/>
      </contour>
    </TTGlyph>
    <TTGlyph name="perthousand" xMin="89" yMin="0" xMax="1089" yMax="700">
      <contour>
        <pt x="590" y="700" on="1"/>
        <pt x="351" y="0" on="1"/>
        <pt x="267" y="0" on="1"/>
        <pt x="512" y="700" on="1"/>
      </contour>
      <contour>
        <pt x="351" y="412" on="1"/>
        <pt x="351" y="349" on="0"/>
        <pt x="287" y="284" on="0"/>
        <pt x="229" y="284" on="1"/>
        <pt x="211" y="284" on="1"/>
        <pt x="153" y="284" on="0"/>
        <pt x="89" y="349" on="0"/>
        <pt x="89" y="412" on="1"/>
        <pt x="89" y="572" on="1"/>
        <pt x="89" y="635" on="0"/>
        <pt x="153" y="700" on="0"/>
        <pt x="211" y="700" on="1"/>
        <pt x="229" y="700" on="1"/>
        <pt x="287" y="700" on="0"/>
        <pt x="351" y="635" on="0"/>
        <pt x="351" y="572" on="1"/>
      </contour>
      <contour>
        <pt x="281" y="401" on="1"/>
        <pt x="281" y="583" on="1"/>
        <pt x="281" y="608" on="0"/>
        <pt x="255" y="640" on="0"/>
        <pt x="229" y="640" on="1"/>
        <pt x="211" y="640" on="1"/>
        <pt x="185" y="640" on="0"/>
        <pt x="159" y="608" on="0"/>
        <pt x="159" y="583" on="1"/>
        <pt x="159" y="401" on="1"/>
        <pt x="159" y="376" on="0"/>
        <pt x="185" y="344" on="0"/>
        <pt x="211" y="344" on="1"/>
        <pt x="229" y="344" on="1"/>
        <pt x="255" y="344" on="0"/>
        <pt x="281" y="376" on="0"/>
      </contour>
      <contour>
        <pt x="765" y="128" on="1"/>
        <pt x="765" y="65" on="0"/>
        <pt x="701" y="0" on="0"/>
        <pt x="643" y="0" on="1"/>
        <pt x="625" y="0" on="1"/>
        <pt x="567" y="0" on="0"/>
        <pt x="503" y="65" on="0"/>
        <pt x="503" y="128" on="1"/>
        <pt x="503" y="288" on="1"/>
        <pt x="503" y="351" on="0"/>
        <pt x="567" y="416" on="0"/>
        <pt x="625" y="416" on="1"/>
        <pt x="643" y="416" on="1"/>
        <pt x="701" y="416" on="0"/>
        <pt x="765" y="351" on="0"/>
        <pt x="765" y="288" on="1"/>
      </contour>
      <contour>
        <pt x="695" y="117" on="1"/>
        <pt x="695" y="299" on="1"/>
        <pt x="695" y="324" on="0"/>
        <pt x="669" y="356" on="0"/>
        <pt x="643" y="356" on="1"/>
        <pt x="625" y="356" on="1"/>
        <pt x="599" y="356" on="0"/>
        <pt x="573" y="324" on="0"/>
        <pt x="573" y="299" on="1"/>
        <pt x="573" y="117" on="1"/>
        <pt x="573" y="92" on="0"/>
        <pt x="599" y="60" on="0"/>
        <pt x="625" y="60" on="1"/>
        <pt x="643" y="60" on="1"/>
        <pt x="669" y="60" on="0"/>
        <pt x="695" y="92" on="0"/>
      </contour>
      <contour>
        <pt x="1089" y="128" on="1"/>
        <pt x="1089" y="65" on="0"/>
        <pt x="1025" y="0" on="0"/>
        <pt x="967" y="0" on="1"/>
        <pt x="949" y="0" on="1"/>
        <pt x="891" y="0" on="0"/>
        <pt x="827" y="65" on="0"/>
        <pt x="827" y="128" on="1"/>
        <pt x="827" y="288" on="1"/>
        <pt x="827" y="351" on="0"/>
        <pt x="891" y="416" on="0"/>
        <pt x="949" y="416" on="1"/>
        <pt x="967" y="416" on="1"/>
        <pt x="1025" y="416" on="0"/>
        <pt x="1089" y="351" on="0"/>
        <pt x="1089" y="288" on="1"/>
      </contour>
      <contour>
        <pt x="1019" y="117" on="1"/>
        <pt x="1019" y="299" on="1"/>
        <pt x="1019" y="324" on="0"/>
        <pt x="993" y="356" on="0"/>
        <pt x="967" y="356" on="1"/>
        <pt x="949" y="356" on="1"/>
        <pt x="923" y="356" on="0"/>
        <pt x="897" y="324" on="0"/>
        <pt x="897" y="299" on="1"/>
        <pt x="897" y="117" on="1"/>
        <pt x="897" y="92" on="0"/>
        <pt x="923" y="60" on="0"/>
        <pt x="949" y="60" on="1"/>
        <pt x="967" y="60" on="1"/>
        <pt x="993" y="60" on="0"/>
        <pt x="1019" y="92" on="0"/>
      </contour>
    </TTGlyph>
    <TTGlyph name="pi" xMin="45" yMin="0" xMax="509" yMax="500">
      <contour>
        <pt x="209" y="0" on="1"/>
        <pt x="124" y="0" on="1"/>
        <pt x="124" y="427" on="1"/>
        <pt x="45" y="427" on="1"/>
        <pt x="45" y="500" on="1"/>
        <pt x="509" y="500" on="1"/>
        <pt x="509" y="427" on="1"/>
        <pt x="419" y="427" on="1"/>
        <pt x="419" y="105" on="1"/>
        <pt x="419" y="89" on="0"/>
        <pt x="435" y="75" on="0"/>
        <pt x="454" y="75" on="1"/>
        <pt x="469" y="75" on="1"/>
        <pt x="469" y="0" on="1"/>
        <pt x="419" y="0" on="1"/>
        <pt x="385" y="0" on="0"/>
        <pt x="334" y="48" on="0"/>
        <pt x="334" y="100" on="1"/>
        <pt x="334" y="427" on="1"/>
        <pt x="209" y="427" on="1"/>
      </contour>
    </TTGlyph>
    <TTGlyph name="plus" xMin="84" yMin="118" xMax="465" yMax="508">
      <contour>
        <pt x="465" y="275" on="1"/>
        <pt x="315" y="275" on="1"/>
        <pt x="315" y="118" on="1"/>
        <pt x="235" y="118" on="1"/>
        <pt x="235" y="275" on="1"/>
        <pt x="84" y="275" on="1"/>
        <pt x="84" y="350" on="1"/>
        <pt x="235" y="350" on="1"/>
        <pt x="235" y="508" on="1"/>
        <pt x="315" y="508" on="1"/>
        <pt x="315" y="350" on="1"/>
        <pt x="465" y="350" on="1"/>
      </contour>
    </TTGlyph>
    <TTGlyph name="plusminus" xMin="85" yMin="0" xMax="465" yMax="508">
      <contour>
        <pt x="465" y="275" on="1"/>
        <pt x="315" y="275" on="1"/>
        <pt x="315" y="143" on="1"/>
        <pt x="235" y="143" on="1"/>
        <pt x="235" y="275" on="1"/>
        <pt x="85" y="275" on="1"/>
        <pt x="85" y="350" on="1"/>
        <pt x="235" y="350" on="1"/>
        <pt x="235" y="508" on="1"/>
        <pt x="315" y="508" on="1"/>
        <pt x="315" y="350" on="1"/>
        <pt x="465" y="350" on="1"/>
      </contour>
      <contour>
        <pt x="465" y="0" on="1"/>
        <pt x="85" y="0" on="1"/>
        <pt x="85" y="75" on="1"/>
        <pt x="465" y="75" on="1"/>
      </contour>
    </TTGlyph>
    <TTGlyph name="product" xMin="45" yMin="0" xMax="519" yMax="700">
      <contour>
        <pt x="211" y="0" on="1"/>
        <pt x="124" y="0" on="1"/>
        <pt x="124" y="625" on="1"/>
        <pt x="45" y="625" on="1"/>
        <pt x="45" y="700" on="1"/>
        <pt x="519" y="700" on="1"/>
        <pt x="519" y="625" on="1"/>
        <pt x="428" y="625" on="1"/>
        <pt x="428" y="105" on="1"/>
        <pt x="428" y="89" on="0"/>
        <pt x="442" y="75" on="0"/>
        <pt x="461" y="75" on="1"/>
        <pt x="476" y="75" on="1"/>
        <pt x="476" y="0" on="1"/>
        <pt x="426" y="0" on="1"/>
        <pt x="392" y="0" on="0"/>
        <pt x="341" y="48" on="0"/>
        <pt x="341" y="100" on="1"/>
        <pt x="341" y="625" on="1"/>
        <pt x="211" y="625" on="1"/>
      </contour>
    </TTGlyph>
    <TTGlyph name="q" xMin="70" yMin="-170" xMax="421" yMax="500">
      <contour>
        <pt x="421" y="-170" on="1"/>
        <pt x="336" y="-170" on="1"/>
        <pt x="336" y="20" on="1"/>
        <pt x="305" y="0" on="0"/>
        <pt x="261" y="0" on="1"/>
        <pt x="240" y="0" on="1"/>
        <pt x="152" y="0" on="0"/>
        <pt x="70" y="75" on="0"/>
        <pt x="70" y="160" on="1"/>
        <pt x="70" y="340" on="1"/>
        <pt x="70" y="424" on="0"/>
        <pt x="153" y="500" on="0"/>
        <pt x="240" y="500" on="1"/>
        <pt x="421" y="500" on="1"/>
      </contour>
      <contour>
        <pt x="271" y="75" on="1"/>
        <pt x="304" y="75" on="0"/>
        <pt x="336" y="110" on="0"/>
        <pt x="336" y="130" on="1"/>
        <pt x="336" y="425" on="1"/>
        <pt x="230" y="425" on="1"/>
        <pt x="155" y="425" on="0"/>
        <pt x="155" y="360" on="1"/>
        <pt x="155" y="140" on="1"/>
        <pt x="155" y="75" on="0"/>
        <pt x="230" y="75" on="1"/>
      </contour>
    </TTGlyph>
    <TTGlyph name="question" xMin="30" yMin="0" xMax="298" yMax="700">
      <contour>
        <pt x="298" y="518" on="1"/>
        <pt x="298" y="461" on="0"/>
        <pt x="277" y="414" on="0"/>
        <pt x="227" y="358" on="1"/>
        <pt x="179" y="304" on="1"/>
        <pt x="179" y="208" on="1"/>
        <pt x="94" y="208" on="1"/>
        <pt x="94" y="329" on="1"/>
        <pt x="147" y="390" on="1"/>
        <pt x="194" y="444" on="0"/>
        <pt x="213" y="477" on="0"/>
        <pt x="213" y="509" on="1"/>
        <pt x="213" y="559" on="1"/>
        <pt x="213" y="624" on="0"/>
        <pt x="140" y="624" on="1"/>
        <pt x="30" y="624" on="1"/>
        <pt x="30" y="700" on="1"/>
        <pt x="130" y="700" on="1"/>
        <pt x="298" y="700" on="0"/>
        <pt x="298" y="550" on="1"/>
      </contour>
      <contour>
        <pt x="187" y="0" on="1"/>
        <pt x="87" y="0" on="1"/>
        <pt x="87" y="100" on="1"/>
        <pt x="187" y="100" on="1"/>
      </contour>
    </TTGlyph>
    <TTGlyph name="questiondown" xMin="45" yMin="-200" xMax="313" yMax="500">
      <contour>
        <pt x="156" y="500" on="1"/>
        <pt x="256" y="500" on="1"/>
        <pt x="256" y="400" on="1"/>
        <pt x="156" y="400" on="1"/>
      </contour>
      <contour>
        <pt x="45" y="-18" on="1"/>
        <pt x="45" y="39" on="0"/>
        <pt x="66" y="86" on="0"/>
        <pt x="116" y="142" on="1"/>
        <pt x="164" y="196" on="1"/>
        <pt x="164" y="292" on="1"/>
        <pt x="249" y="292" on="1"/>
        <pt x="249" y="171" on="1"/>
        <pt x="196" y="110" on="1"/>
        <pt x="149" y="56" on="0"/>
        <pt x="130" y="23" on="0"/>
        <pt x="130" y="-9" on="1"/>
        <pt x="130" y="-59" on="1"/>
        <pt x="130" y="-124" on="0"/>
        <pt x="203" y="-124" on="1"/>
        <pt x="313" y="-124" on="1"/>
        <pt x="313" y="-200" on="1"/>
        <pt x="213" y="-200" on="1"/>
        <pt x="45" y="-200" on="0"/>
        <pt x="45" y="-50" on="1"/>
      </contour>
    </TTGlyph>
    <TTGlyph name="quotedbl" xMin="55" yMin="453" xMax="305" yMax="700">
      <contour>
        <pt x="55" y="700" on="1"/>
        <pt x="150" y="700" on="1"/>
        <pt x="150" y="610" on="1"/>
        <pt x="130" y="453" on="1"/>
        <pt x="75" y="453" on="1"/>
        <pt x="55" y="610" on="1"/>
      </contour>
      <contour>
        <pt x="210" y="700" on="1"/>
        <pt x="305" y="700" on="1"/>
        <pt x="305" y="610" on="1"/>
        <pt x="285" y="453" on="1"/>
        <pt x="230" y="453" on="1"/>
        <pt x="210" y="610" on="1"/>
      </contour>
    </TTGlyph>
    <TTGlyph name="quotedblbase" xMin="50" yMin="-157" xMax="330" yMax="90">
      <contour>
        <pt x="235" y="90" on="1"/>
        <pt x="330" y="90" on="1"/>
        <pt x="330" y="0" on="1"/>
        <pt x="275" y="-157" on="1"/>
        <pt x="205" y="-157" on="1"/>
        <pt x="235" y="0" on="1"/>
      </contour>
      <contour>
        <pt x="80" y="90" on="1"/>
        <pt x="175" y="90" on="1"/>
        <pt x="175" y="0" on="1"/>
        <pt x="120" y="-157" on="1"/>
        <pt x="50" y="-157" on="1"/>
        <pt x="80" y="0" on="1"/>
      </contour>
    </TTGlyph>
    <TTGlyph name="quotedblleft" xMin="55" yMin="452" xMax="335" yMax="699">
      <contour>
        <pt x="150" y="452" on="1"/>
        <pt x="55" y="452" on="1"/>
        <pt x="55" y="542" on="1"/>
        <pt x="110" y="699" on="1"/>
        <pt x="180" y="699" on="1"/>
        <pt x="150" y="542" on="1"/>
      </contour>
      <contour>
        <pt x="305" y="452" on="1"/>
        <pt x="210" y="452" on="1"/>
        <pt x="210" y="542" on="1"/>
        <pt x="265" y="699" on="1"/>
        <pt x="335" y="699" on="1"/>
        <pt x="305" y="542" on="1"/>
      </contour>
    </TTGlyph>
    <TTGlyph name="quotedblright" xMin="45" yMin="453" xMax="325" yMax="700">
      <contour>
        <pt x="230" y="700" on="1"/>
        <pt x="325" y="700" on="1"/>
        <pt x="325" y="610" on="1"/>
        <pt x="270" y="453" on="1"/>
        <pt x="200" y="453" on="1"/>
        <pt x="230" y="610" on="1"/>
      </contour>
      <contour>
        <pt x="75" y="700" on="1"/>
        <pt x="170" y="700" on="1"/>
        <pt x="170" y="610" on="1"/>
        <pt x="115" y="453" on="1"/>
        <pt x="45" y="453" on="1"/>
        <pt x="75" y="610" on="1"/>
      </contour>
    </TTGlyph>
    <TTGlyph name="quoteleft" xMin="55" yMin="452" xMax="180" yMax="699">
      <contour>
        <pt x="150" y="452" on="1"/>
        <pt x="55" y="452" on="1"/>
        <pt x="55" y="542" on="1"/>
        <pt x="110" y="699" on="1"/>
        <pt x="180" y="699" on="1"/>
        <pt x="150" y="542" on="1"/>
      </contour>
    </TTGlyph>
    <TTGlyph name="quoteright" xMin="45" yMin="453" xMax="170" yMax="700">
      <contour>
        <pt x="75" y="700" on="1"/>
        <pt x="170" y="700" on="1"/>
        <pt x="170" y="610" on="1"/>
        <pt x="115" y="453" on="1"/>
        <pt x="45" y="453" on="1"/>
        <pt x="75" y="610" on="1"/>
      </contour>
    </TTGlyph>
    <TTGlyph name="quotesinglbase" xMin="50" yMin="-157" xMax="175" yMax="90">
      <contour>
        <pt x="80" y="90" on="1"/>
        <pt x="175" y="90" on="1"/>
        <pt x="175" y="0" on="1"/>
        <pt x="120" y="-157" on="1"/>
        <pt x="50" y="-157" on="1"/>
        <pt x="80" y="0" on="1"/>
      </contour>
    </TTGlyph>
    <TTGlyph name="quotesingle" xMin="55" yMin="453" xMax="150" yMax="700">
      <contour>
        <pt x="55" y="700" on="1"/>
        <pt x="150" y="700" on="1"/>
        <pt x="150" y="610" on="1"/>
        <pt x="130" y="453" on="1"/>
        <pt x="75" y="453" on="1"/>
        <pt x="55" y="610" on="1"/>
      </contour>
    </TTGlyph>
    <TTGlyph name="r" xMin="80" yMin="0" xMax="313" yMax="500">
      <contour>
        <pt x="165" y="0" on="1"/>
        <pt x="80" y="0" on="1"/>
        <pt x="80" y="500" on="1"/>
        <pt x="160" y="500" on="1"/>
        <pt x="160" y="473" on="1"/>
        <pt x="193" y="500" on="0"/>
        <pt x="240" y="500" on="1"/>
        <pt x="313" y="500" on="1"/>
        <pt x="313" y="420" on="1"/>
        <pt x="230" y="420" on="1"/>
        <pt x="197" y="420" on="0"/>
        <pt x="165" y="376" on="0"/>
        <pt x="165" y="355" on="1"/>
      </contour>
    </TTGlyph>
    <TTGlyph name="radical" xMin="35" yMin="0" xMax="570" yMax="820">
      <contour>
        <pt x="570" y="745" on="1"/>
        <pt x="457" y="745" on="1"/>
        <pt x="282" y="0" on="1"/>
        <pt x="154" y="0" on="1"/>
        <pt x="35" y="392" on="1"/>
        <pt x="124" y="392" on="1"/>
        <pt x="216" y="61" on="1"/>
        <pt x="393" y="820" on="1"/>
        <pt x="570" y="820" on="1"/>
      </contour>
    </TTGlyph>
</ttFont>
